<svg width="26" height="26" viewBox="0 0 26 26" fill="none" xmlns="http://www.w3.org/2000/svg">
<path d="M9.4 25H16.6C22.6 25 25 22.6 25 16.6V9.4C25 3.4 22.6 1 16.6 1H9.4C3.4 1 1 3.4 1 9.4V16.6C1 22.6 3.4 25 9.4 25Z" stroke="#94A2AF" stroke-width="1.5" stroke-linecap="round" stroke-linejoin="round"/>
<path d="M13.7331 15.8359H12.7956C12.8008 15.3932 12.8451 15.0182 12.9284 14.7109C13.0117 14.4036 13.1472 14.1198 13.3347 13.8594C13.5222 13.599 13.7748 13.3125 14.0925 13C14.3685 12.724 14.6133 12.4688 14.8268 12.2344C15.0404 11.9948 15.2071 11.7318 15.3268 11.4453C15.4518 11.1589 15.5143 10.8073 15.5143 10.3906C15.5143 9.97917 15.4414 9.61719 15.2956 9.30469C15.1498 8.99219 14.931 8.7474 14.6393 8.57031C14.3477 8.39323 13.9831 8.30469 13.5456 8.30469C13.1446 8.30469 12.7852 8.38281 12.4675 8.53906C12.155 8.69531 11.9076 8.92188 11.7253 9.21875C11.5482 9.51042 11.4545 9.86458 11.444 10.2812H10.5143C10.5248 9.6875 10.6654 9.18229 10.9362 8.76562C11.2123 8.34375 11.5768 8.02344 12.03 7.80469C12.4883 7.58073 12.9935 7.46875 13.5456 7.46875C14.1706 7.46875 14.6966 7.59115 15.1237 7.83594C15.556 8.08073 15.8841 8.42188 16.1081 8.85938C16.3373 9.29688 16.4518 9.80469 16.4518 10.3828C16.4518 10.8464 16.3737 11.2656 16.2175 11.6406C16.0612 12.0104 15.8451 12.3594 15.569 12.6875C15.293 13.0156 14.9727 13.3464 14.6081 13.6797C14.2748 13.9661 14.0456 14.2943 13.9206 14.6641C13.7956 15.0286 13.7331 15.4193 13.7331 15.8359ZM12.6706 18.4453C12.6706 18.2682 12.7279 18.1198 12.8425 18C12.9571 17.875 13.1133 17.8125 13.3112 17.8125C13.5091 17.8125 13.6654 17.875 13.78 18C13.8998 18.1198 13.9597 18.2682 13.9597 18.4453C13.9597 18.6172 13.8998 18.7656 13.78 18.8906C13.6654 19.0104 13.5091 19.0703 13.3112 19.0703C13.1133 19.0703 12.9571 19.0104 12.8425 18.8906C12.7279 18.7656 12.6706 18.6172 12.6706 18.4453Z" fill="#94A2AF"/>
</svg>
