<svg width="82" height="81" viewBox="0 0 82 81" fill="none" xmlns="http://www.w3.org/2000/svg">
<g filter="url(#filter0_d_323_2174)">
<circle cx="41.1667" cy="36.5" r="34.5" fill="currentColor"/>
<path d="M46.4584 38.3791C45.8967 38.2613 45.3239 38.2041 44.75 38.2082H34.5C32.2346 38.2082 30.062 39.1081 28.4602 40.71C26.8583 42.3119 25.9584 44.4845 25.9584 46.7499V48.4582C25.9584 48.4582 29.375 51.8749 39.625 51.8749C41.3388 51.8837 43.0511 51.7752 44.75 51.5503C45.348 51.5503 45.9288 51.3795 46.4584 51.2599" stroke="white" stroke-width="1.5" stroke-linecap="round" stroke-linejoin="round"/>
<path d="M49.875 45.0417H56.7084M53.2917 41.625V48.4583M48.1667 29.6667C48.1667 31.356 47.6658 33.0075 46.7272 34.4122C45.7886 35.8168 44.4546 36.9116 42.8938 37.5581C41.333 38.2046 39.6156 38.3738 37.9586 38.0442C36.3017 37.7146 34.7797 36.9011 33.5852 35.7065C32.3906 34.512 31.5771 32.99 31.2475 31.3331C30.9179 29.6761 31.0871 27.9587 31.7336 26.3979C32.3801 24.8371 33.4749 23.5031 34.8795 22.5645C36.2842 21.626 37.9357 21.125 39.625 21.125C41.8904 21.125 44.063 22.0249 45.6649 23.6268C47.2668 25.2287 48.1667 27.4013 48.1667 29.6667Z" stroke="white" stroke-width="1.5" stroke-linecap="round" stroke-linejoin="round"/>
</g>
<defs>
<filter id="filter0_d_323_2174" x="0.666748" y="0" width="81" height="81" filterUnits="userSpaceOnUse" color-interpolation-filters="sRGB">
<feFlood flood-opacity="0" result="BackgroundImageFix"/>
<feColorMatrix in="SourceAlpha" type="matrix" values="0 0 0 0 0 0 0 0 0 0 0 0 0 0 0 0 0 0 127 0" result="hardAlpha"/>
<feOffset dy="4"/>
<feGaussianBlur stdDeviation="3"/>
<feComposite in2="hardAlpha" operator="out"/>
<feColorMatrix type="matrix" values="0 0 0 0 0 0 0 0 0 0 0 0 0 0 0 0 0 0 0.1 0"/>
<feBlend mode="normal" in2="BackgroundImageFix" result="effect1_dropShadow_323_2174"/>
<feBlend mode="normal" in="SourceGraphic" in2="effect1_dropShadow_323_2174" result="shape"/>
</filter>
</defs>
</svg>
