<svg width="56" height="56" viewBox="0 0 56 56" fill="none" xmlns="http://www.w3.org/2000/svg">
<g clip-path="url(#clip0_1_2372)">
<rect width="56" height="56" rx="28" fill="#E7F0FF"/>
<path d="M32.096 37.4647C30.9009 37.4284 27.3551 36.2969 26.6502 35.7748L32.096 37.4647Z" fill="#FFE7D0"/>
<path d="M32.5878 43.0416C34.7926 46.1299 41.9217 47.0466 43.1381 47.488C45.1331 48.244 45.4725 50.288 45.502 51.4014C45.5872 54.5736 45.9593 60.0155 44.8462 62.8913" fill="#FFE7D0"/>
<path d="M32.5878 43.0416C31.2501 40.6303 32.096 37.4647 32.096 37.4647C32.096 37.4647 34.6877 37.5882 35.727 37.0562C37.7253 36.1948 40.099 33.044 40.0744 28.5327C40.0178 24.4701 39.1638 20.4586 37.5614 16.7282C36.1155 12.9713 27.1437 9.45974 20.3849 16.0216C20.3849 16.0216 16.7407 19.3684 18.857 24.9306" fill="#FFE7D0"/>
<path d="M8.35557 62.8913C7.3933 59.7931 7.77198 51.6468 7.91132 50.4971C8.05066 49.3475 8.58835 47.0153 11.4358 46.3054C12.6948 45.9875 20.5783 44.7068 22.1782 42.4849" fill="#FFE7D0"/>
<path d="M22.5651 34.0849C22.5651 34.0849 19.9177 32.5746 18.8619 29.4254C17.8062 26.2762 18.857 24.9306 18.857 24.9306C19.7046 23.6607 23.0766 23.3494 23.0766 27.1804" fill="#FFE7D0"/>
<path d="M22.5651 34.0849C22.7668 38.0873 22.8176 39.9237 22.1782 42.4849L22.5651 34.0849Z" fill="#FFE7D0"/>
<path d="M32.5878 43.0416C34.7926 46.1299 41.9217 47.0466 43.1381 47.488C45.1331 48.244 45.4725 50.288 45.502 51.4014C45.5872 54.5736 45.9593 60.0155 44.8462 62.8913H8.35557C7.3933 59.7931 7.77198 51.6468 7.91132 50.4971C8.05066 49.3475 8.58835 47.0153 11.4358 46.3054C12.6948 45.9875 20.5783 44.7068 22.1782 42.4849C22.8176 39.9237 22.7668 38.0873 22.5651 34.0849C22.5651 34.0849 19.9177 32.5746 18.8619 29.4254C17.8062 26.2762 18.857 24.9306 18.857 24.9306C16.7407 19.3684 20.3849 16.0216 20.3849 16.0216C27.1437 9.45974 36.1155 12.9713 37.5614 16.7282C39.1638 20.4586 40.0178 24.4701 40.0744 28.5327C40.099 33.044 37.7253 36.1948 35.727 37.0562C34.6877 37.5882 32.096 37.4647 32.096 37.4647C32.096 37.4647 31.2501 40.6303 32.5878 43.0416Z" fill="#FFE7D0"/>
<path d="M32.096 37.4647C30.9009 37.4284 27.3551 36.2969 26.6502 35.7748M32.096 37.4647C32.096 37.4647 31.2501 40.6303 32.5878 43.0416C34.7926 46.1299 41.9217 47.0466 43.1381 47.488C45.1331 48.244 45.4725 50.288 45.502 51.4014C45.5872 54.5736 45.9593 60.0155 44.8462 62.8912H8.35557C7.3933 59.7931 7.77198 51.6468 7.91132 50.4971C8.05066 49.3475 8.58835 47.0153 11.4358 46.3054C12.6948 45.9875 20.5783 44.7068 22.1782 42.4849C22.8176 39.9237 22.7668 38.0873 22.5651 34.0849C22.5651 34.0849 19.9177 32.5746 18.8619 29.4254C17.8062 26.2762 18.857 24.9306 18.857 24.9306M32.096 37.4647C32.096 37.4647 34.6877 37.5882 35.727 37.0562C37.7253 36.1948 40.099 33.044 40.0744 28.5327C40.0178 24.4701 39.1638 20.4586 37.5614 16.7282C36.1155 12.9713 27.1437 9.45974 20.3849 16.0216C20.3849 16.0216 16.7407 19.3684 18.857 24.9306M18.857 24.9306C19.7046 23.6607 23.0766 23.3494 23.0766 27.1804" stroke="#373743" stroke-width="0.5" stroke-linecap="round" stroke-linejoin="round"/>
<path opacity="0.4" d="M32.0582 37.3379C31.8995 38.4588 31.6536 40.1059 32.0582 41.4235C30.5583 41.0661 26.324 38.1252 26.324 35.7369C28.1766 36.464 30.0979 37.0004 32.0582 37.3379Z" fill="#373743"/>
<path d="M20.7892 25.8588C20.1499 26.0334 19.7138 27.0035 20.222 28.0494" stroke="#373743" stroke-width="0.5" stroke-linecap="round"/>
<path d="M7.60412 49.2619C7.46412 50.4115 7.08365 58.5579 8.05048 61.656H44.7139C45.8323 58.7802 45.4584 53.3383 45.3728 50.1661C45.3431 49.0527 45.0022 47.0087 42.9977 46.2527C41.8787 45.8485 35.9875 45.2289 33.2707 42.7411C33.2707 42.7411 33.353 44.4706 27.0942 44.4706C20.8354 44.4706 20.9023 42.2797 20.9023 42.2797C18.2381 43.9356 12.2359 44.796 11.1453 45.0701C8.28435 45.78 7.74412 48.1122 7.60412 49.2619Z" fill="#9287FF" stroke="#373743" stroke-width="0.5" stroke-linecap="round" stroke-linejoin="round"/>
<path d="M33.2164 42.835C33.2164 43.5934 31.4911 44.4307 29.0905 44.7436C28.4672 44.8249 27.7984 44.8708 27.1025 44.8708C26.9311 44.8708 26.761 44.8675 26.5925 44.8613C23.4401 44.744 20.8353 43.5656 20.8353 42.6588" fill="#9287FF"/>
<path d="M20.9886 39.5788C20.9902 39.5963 20.9918 39.6138 20.9933 39.6313C21.0816 40.6617 20.9318 41.6261 20.8353 42.6588" fill="#9287FF"/>
<path d="M33.2164 39.5788C33.2147 39.5965 33.2131 39.6144 33.2115 39.6322C33.1209 40.648 33.1225 41.825 33.2164 42.835" fill="#9287FF"/>
<path d="M21.9883 40.3064C22.0863 41.3566 21.9664 42.6702 21.8683 43.7204L21.9883 40.3064Z" fill="#9287FF"/>
<path d="M26.5919 40.9063C26.6897 42.2228 26.6899 43.5448 26.5925 44.8613C26.5923 44.8639 26.5921 44.8665 26.5919 44.8691" fill="#9287FF"/>
<path d="M23.0886 40.5802C23.1808 41.6113 23.0819 43.274 22.9765 44.198L23.0886 40.5802Z" fill="#9287FF"/>
<path d="M24.2118 40.7488C24.304 41.7799 24.1492 43.5866 24.0471 44.5106L24.2118 40.7488Z" fill="#9287FF"/>
<path d="M25.3901 40.8535C25.4824 41.8846 25.3866 43.82 25.2845 44.744L25.3901 40.8535Z" fill="#9287FF"/>
<path d="M27.847 40.903C27.945 42.1815 27.945 43.5748 27.847 44.8532V40.903Z" fill="#9287FF"/>
<path d="M29.0905 40.8345C29.1877 42.1008 29.1877 43.4774 29.0905 44.7436L29.0905 44.744" fill="#9287FF"/>
<path d="M30.227 40.72C30.3242 41.9529 30.3242 43.3069 30.227 44.5397V40.72Z" fill="#9287FF"/>
<path d="M31.3058 40.5427C31.403 41.7178 31.403 43.0632 31.3058 44.2383V40.5427Z" fill="#9287FF"/>
<path d="M32.238 40.32C32.3361 41.4956 32.3361 42.6773 32.238 43.8529V40.32Z" fill="#9287FF"/>
<path fill-rule="evenodd" clip-rule="evenodd" d="M33.2164 39.5788C33.2164 39.5967 33.2147 39.6145 33.2115 39.6322C33.2131 39.6144 33.2147 39.5965 33.2164 39.5788ZM30.227 40.72C30.2292 40.7198 30.2314 40.7195 30.2336 40.7192C30.2467 40.7175 30.2597 40.7158 30.2727 40.7141M20.9933 39.6313C20.9902 39.6139 20.9886 39.5964 20.9886 39.5788C20.9902 39.5963 20.9918 39.6138 20.9933 39.6313Z" fill="#9287FF"/>
<path d="M29.0905 44.7436C31.4911 44.4307 33.2164 43.5934 33.2164 42.835C33.1225 41.825 33.1209 40.648 33.2115 39.6322C33.1278 40.0909 31.9718 40.4899 30.2727 40.7141C30.2597 40.7158 30.2467 40.7175 30.2336 40.7192C30.2314 40.7195 30.2292 40.7198 30.227 40.72C29.87 40.7662 29.4896 40.8047 29.0905 40.8345C29.1877 42.1008 29.1877 43.4774 29.0905 44.7436Z" fill="#9287FF"/>
<path d="M26.5925 44.8613C26.761 44.8675 26.9311 44.8708 27.1025 44.8708C27.3545 44.8708 27.6029 44.8648 27.847 44.8532C28.2768 44.8329 28.6929 44.7955 29.0905 44.7436C29.1877 43.4774 29.1877 42.1008 29.0905 40.8345C28.4672 40.8811 27.7984 40.9063 27.1025 40.9063C26.5081 40.9063 25.9335 40.8879 25.3901 40.8535C25.0172 40.8299 24.659 40.7988 24.3192 40.761C24.2832 40.757 24.2474 40.753 24.2118 40.7488C23.3117 40.6437 22.5468 40.4911 21.9883 40.3064C21.3977 40.1111 21.0379 39.88 20.9933 39.6313C21.0816 40.6617 20.9318 41.6261 20.8353 42.6588C20.8353 43.5656 23.4401 44.744 26.5925 44.8613Z" fill="#9287FF"/>
<path d="M31.9383 38.7668C32.7387 38.9908 33.2164 39.2724 33.2164 39.5788M33.2164 39.5788C33.2164 39.5967 33.2147 39.6145 33.2115 39.6322M33.2164 39.5788C33.2147 39.5965 33.2131 39.6144 33.2115 39.6322M27.1025 40.9063C26.1001 40.9063 25.154 40.8539 24.3192 40.761M27.1025 40.9063C28.2468 40.9063 29.3178 40.838 30.2336 40.7192M27.1025 40.9063C27.7984 40.9063 28.4672 40.8811 29.0905 40.8345M27.1025 40.9063C26.5081 40.9063 25.9335 40.8879 25.3901 40.8535M20.9886 39.5788C20.9886 39.2724 21.4663 38.9908 22.27 38.7651M20.9886 39.5788C20.9886 39.5964 20.9902 39.6139 20.9933 39.6313M20.9886 39.5788C20.9902 39.5963 20.9918 39.6138 20.9933 39.6313M27.1025 44.8708C27.7984 44.8708 28.4672 44.8249 29.0905 44.7436M27.1025 44.8708C26.9311 44.8708 26.761 44.8675 26.5925 44.8613M27.1025 44.8708C27.3545 44.8708 27.6029 44.8648 27.847 44.8532M21.9883 40.3064C22.0863 41.3566 21.9664 42.6702 21.8683 43.7204M21.9883 40.3064C22.5468 40.4911 23.3117 40.6437 24.2118 40.7488M21.9883 40.3064C21.3977 40.1111 21.0379 39.88 20.9933 39.6313M26.5919 40.9063C26.6897 42.2228 26.6899 43.5448 26.5925 44.8613M26.5919 44.8691C26.5921 44.8665 26.5923 44.8639 26.5925 44.8613M23.0886 40.5802C23.1808 41.6113 23.0819 43.274 22.9765 44.198M24.2118 40.7488C24.304 41.7799 24.1492 43.5866 24.0471 44.5106M24.2118 40.7488C24.2474 40.753 24.2832 40.757 24.3192 40.761M25.3901 40.8535C25.4824 41.8846 25.3866 43.82 25.2845 44.744M25.3901 40.8535C25.0172 40.8299 24.659 40.7988 24.3192 40.761M27.847 40.903C27.945 42.1815 27.945 43.5748 27.847 44.8532M27.847 44.8532C28.2768 44.8329 28.6929 44.7955 29.0905 44.7436M29.0905 40.8345C29.4896 40.8047 29.87 40.7662 30.227 40.72M29.0905 40.8345C29.1877 42.1008 29.1877 43.4774 29.0905 44.7436M29.0905 44.744L29.0905 44.7436M30.227 40.72C30.3242 41.9529 30.3242 43.3069 30.227 44.5397M30.227 40.72C30.2292 40.7198 30.2314 40.7195 30.2336 40.7192M31.3058 40.5427C31.403 41.7178 31.403 43.0632 31.3058 44.2383M32.238 40.32C32.3361 41.4956 32.3361 42.6773 32.238 43.8529M33.2115 39.6322C33.1209 40.648 33.1225 41.825 33.2164 42.835C33.2164 43.5934 31.4911 44.4307 29.0905 44.7436M33.2115 39.6322C33.1278 40.0909 31.9718 40.4899 30.2727 40.7141C30.2597 40.7158 30.2467 40.7175 30.2336 40.7192M24.3192 40.761C22.4094 40.5486 21.0817 40.1244 20.9933 39.6313M20.9933 39.6313C21.0816 40.6617 20.9318 41.6261 20.8353 42.6588C20.8353 43.5656 23.4401 44.744 26.5925 44.8613" stroke="#373743" stroke-width="0.5" stroke-linecap="round" stroke-linejoin="round"/>
<path d="M22.4824 40.2706L22.5153 38.7059C22.1007 38.7373 21.0824 39.0777 21.0824 39.5295C21.0824 39.9812 22.0954 40.2393 22.4824 40.2706Z" fill="#373743"/>
<path d="M31.7059 40.2706L31.6974 38.7883C32.112 38.8197 33.0236 39.0777 33.0236 39.5295C33.0236 39.9812 32.0929 40.2393 31.7059 40.2706Z" fill="#373743"/>
<path d="M40.1586 21.7511C40.5921 21.7753 41.075 21.1989 41.0447 20.658C41.0447 20.2877 41.0447 20.175 41.0447 19.8064L41.0256 19.2413C41.008 19.0803 41.0096 18.9966 40.9873 18.8549C40.9747 18.6925 40.9512 18.5312 40.9172 18.3719C40.4391 16.1181 39.2359 14.3182 37.4606 12.916C35.6853 11.5138 33.6821 10.8022 31.4638 10.5881C29.3141 10.3717 27.1461 10.7362 25.1816 11.6442C23.8065 12.2998 22.5258 13.1409 21.3745 14.1444C21.3906 14.2053 21.4108 14.265 21.435 14.3231C21.5058 14.4421 21.5275 14.5845 21.4957 14.7196C21.4638 14.8547 21.3808 14.9718 21.2645 15.0459C20.1639 15.9593 19.2022 17.0311 18.4103 18.2271C17.505 19.5286 16.9154 21.0269 16.6892 22.6011C16.6477 22.9135 16.4565 22.9956 16.3928 23.3079C16.3404 23.5768 16.3121 23.85 16.3083 24.1241C16.2764 25.0353 16.4453 25.9256 16.5697 26.8207C16.8007 28.4966 17.2677 30.0856 18.1952 31.5152C18.9585 32.692 19.435 33.4696 20.2047 34.6416C20.5615 35.211 20.9583 35.7539 21.392 36.266C21.5896 36.4801 22.1393 36.9389 22.4373 36.7876C22.4294 35.9955 22.4724 35.1423 22.4373 34.2407C21.6232 33.6754 20.759 32.9999 20.1266 32.2332C18.4421 29.5511 18.1362 28.4773 18.192 26.4633C18.3067 24.6924 19.6788 23.7265 21.1992 23.976C21.6612 24.0669 22.0917 24.3543 22.4374 24.6771C22.783 24.9998 22.9488 25.3459 23.0748 25.804C23.2125 26.2796 23.3088 26.838 23.3139 27.3334C23.6437 27.8808 24.3179 27.4582 24.8805 27.17C25.1663 27.0313 25.434 26.8572 25.6773 26.6516C27.451 25.082 28.0327 22.1633 27.639 19.6212C29.6884 21.1635 38.8981 21.6787 40.1586 21.7511Z" fill="#373743"/>
<path d="M22.1569 11.2916C22.1159 11.7903 21.9715 12.2746 21.733 12.7132C21.5386 12.623 21.3697 12.7035 21.1928 12.7856C19.9636 13.3698 18.9055 14.2662 18.1219 15.3872C16.6015 17.4801 15.427 19.713 15.5035 22.4176C15.5163 22.8394 15.6039 23.2226 15.9641 23.4769C15.8541 23.9953 15.8748 24.5379 15.7107 25.0466C15.2645 26.4327 14.388 27.4083 12.9633 27.7432C11.4987 28.0877 10.1393 27.0992 9.80468 25.5135C9.72869 25.2351 9.71346 24.9435 9.76006 24.6586C9.7999 24.4767 9.75049 24.4058 9.56085 24.4107C9.22232 24.4148 8.88489 24.3709 8.55846 24.2803C7.39032 23.9728 6.85008 23.0986 6.59351 22.0007C6.47026 21.5353 6.44459 21.049 6.51813 20.573C6.59168 20.097 6.76282 19.6418 7.0206 19.2365C7.13694 19.0529 7.07 18.9563 6.96004 18.8227C6.30028 18.0178 5.91462 17.0937 5.9449 16.0424C5.99111 14.505 7.55287 13.0689 9.08117 13.1172C9.5242 13.1317 9.52579 13.1317 9.53854 12.7051C9.58794 11.0453 10.4326 9.9055 11.8413 9.15046C12.7009 8.65699 13.6911 8.44547 14.6748 8.54514C14.7178 8.54514 14.7673 8.54514 14.8007 8.55802C15.1864 8.78984 15.4541 8.59987 15.7665 8.35678C16.426 7.86912 17.2021 7.56742 18.0151 7.4826C18.0629 7.53573 18.1027 7.52124 18.141 7.47133C18.976 7.4005 19.7744 7.50675 20.5139 7.94304C21.6916 8.63529 22.1346 9.72358 22.1681 11.0373C22.134 11.07 22.1138 11.1147 22.1117 11.1622C22.1097 11.2096 22.1259 11.256 22.1569 11.2916Z" fill="#373743"/>
<path d="M40.1586 21.7511C40.5921 21.7753 41.075 21.1989 41.0447 20.658C41.0447 20.2877 41.0447 20.175 41.0447 19.8064L41.0256 19.2413C41.008 19.0803 41.0096 18.9966 40.9873 18.8549C40.9747 18.6925 40.9512 18.5312 40.9172 18.3719C40.4391 16.1181 39.2359 14.3182 37.4606 12.916C35.6853 11.5138 33.6821 10.8022 31.4638 10.5881C29.3141 10.3717 27.1461 10.7362 25.1816 11.6442C23.8065 12.2998 22.5258 13.1409 21.3745 14.1444C21.3906 14.2053 21.4108 14.265 21.435 14.3231C21.5058 14.4421 21.5275 14.5845 21.4957 14.7196C21.4638 14.8547 21.3808 14.9718 21.2645 15.0459C20.1639 15.9593 19.2022 17.0311 18.4103 18.2271C17.505 19.5286 16.9154 21.0269 16.6892 22.6011C16.6477 22.9135 16.4565 22.9956 16.3928 23.3079C16.3404 23.5768 16.3121 23.85 16.3083 24.1241C16.2764 25.0353 16.4453 25.9256 16.5697 26.8207C16.8007 28.4966 17.2677 30.0856 18.1952 31.5152C18.9585 32.692 19.435 33.4696 20.2047 34.6416C20.5615 35.211 20.9583 35.7539 21.392 36.266C21.5896 36.4801 22.1393 36.9389 22.4373 36.7876C22.4294 35.9955 22.4724 35.1423 22.4373 34.2407C21.6232 33.6754 20.759 32.9999 20.1266 32.2332C18.4421 29.5511 18.1362 28.4773 18.192 26.4633C18.3067 24.6924 19.6788 23.7265 21.1992 23.976C21.6612 24.0669 22.0917 24.3543 22.4374 24.6771C22.783 24.9998 22.9488 25.3459 23.0748 25.804C23.2125 26.2796 23.3088 26.838 23.3139 27.3334C23.6437 27.8808 24.3179 27.4582 24.8805 27.17C25.1663 27.0313 25.434 26.8572 25.6773 26.6516C27.451 25.082 28.0327 22.1633 27.639 19.6212C29.6884 21.1635 38.8981 21.6787 40.1586 21.7511Z" stroke="#373743" stroke-width="0.5" stroke-linecap="round" stroke-linejoin="round"/>
<path d="M22.1569 11.2916C22.1159 11.7903 21.9715 12.2746 21.733 12.7132C21.5386 12.623 21.3697 12.7035 21.1928 12.7856C19.9636 13.3698 18.9055 14.2662 18.1219 15.3872C16.6015 17.4801 15.427 19.713 15.5035 22.4176C15.5163 22.8394 15.6039 23.2226 15.9641 23.4769C15.8541 23.9953 15.8748 24.5379 15.7107 25.0466C15.2645 26.4327 14.388 27.4083 12.9633 27.7432C11.4987 28.0877 10.1393 27.0992 9.80468 25.5135C9.72869 25.2351 9.71346 24.9435 9.76006 24.6586C9.7999 24.4767 9.75049 24.4058 9.56085 24.4107C9.22232 24.4148 8.88489 24.3709 8.55846 24.2803C7.39032 23.9728 6.85008 23.0986 6.59351 22.0007C6.47026 21.5353 6.44459 21.049 6.51813 20.573C6.59168 20.097 6.76282 19.6418 7.0206 19.2365C7.13694 19.0529 7.07 18.9563 6.96004 18.8227C6.30028 18.0178 5.91462 17.0937 5.9449 16.0424C5.99111 14.505 7.55287 13.0689 9.08117 13.1172C9.5242 13.1317 9.52579 13.1317 9.53854 12.7051C9.58794 11.0453 10.4326 9.9055 11.8413 9.15046C12.7009 8.65699 13.6911 8.44547 14.6748 8.54514C14.7178 8.54514 14.7673 8.54514 14.8007 8.55802C15.1864 8.78984 15.4541 8.59987 15.7665 8.35678C16.426 7.86912 17.2021 7.56742 18.0151 7.4826C18.0629 7.53573 18.1027 7.52124 18.141 7.47133C18.976 7.4005 19.7744 7.50675 20.5139 7.94304C21.6916 8.63529 22.1346 9.72358 22.1681 11.0373C22.134 11.07 22.1138 11.1147 22.1117 11.1622C22.1097 11.2096 22.1259 11.256 22.1569 11.2916Z" stroke="#373743" stroke-width="0.5" stroke-linecap="round" stroke-linejoin="round"/>
<path d="M15.964 23.4769C15.6038 23.2161 15.5162 22.833 15.5034 22.4176C15.4269 19.713 16.6014 17.4849 18.1218 15.3872C18.9054 14.2662 19.9635 13.3698 21.1927 12.7856C21.3696 12.7035 21.5385 12.6246 21.7329 12.7132C22.1218 13.0351 22.3242 13.4746 22.5616 13.8964C22.575 13.9577 22.5926 14.0179 22.6142 14.0767C22.6801 14.1988 22.6961 14.3421 22.6589 14.4759C22.6217 14.6097 22.5342 14.7236 22.415 14.7932C21.2767 15.6591 20.2709 16.6897 19.4301 17.852C18.472 19.1143 17.8218 20.5869 17.5321 22.1504C17.4779 22.4595 17.4716 22.775 17.3951 23.0825C17.354 23.3009 17.2472 23.5011 17.0891 23.6556C16.7048 23.7267 16.3081 23.6636 15.964 23.4769ZM16.3146 21.7061V22.5995C16.3101 22.6536 16.3268 22.7074 16.361 22.7492C16.3953 22.791 16.4444 22.8176 16.4978 22.8233C16.6158 22.8314 16.6349 22.7203 16.6301 22.6189C16.6431 22.452 16.6708 22.2865 16.713 22.1246C16.8269 21.1877 17.0883 20.2751 17.4875 19.4216C18.4142 17.4796 19.7708 15.7792 21.4524 14.4519C21.8142 14.1605 21.8301 14.0848 21.5449 13.7177C21.47 13.6195 21.4142 13.6147 21.3122 13.6759C20.8249 13.949 20.3672 14.2727 19.9465 14.6418C18.9903 15.5273 18.262 16.5995 17.6389 17.7393C16.9632 18.9805 16.3879 20.262 16.3146 21.7125V21.7061Z" fill="#373743"/>
<path d="M16.3147 21.7124C16.388 20.2635 16.9633 18.9756 17.639 17.7424C18.2621 16.6026 18.984 15.5304 19.9466 14.645C20.3673 14.2759 20.825 13.9521 21.3123 13.679C21.4143 13.6179 21.4717 13.6227 21.545 13.7209C21.8303 14.088 21.8143 14.1636 21.4526 14.455C19.7731 15.7819 18.4181 17.4812 17.4924 19.4216C17.0932 20.2751 16.8318 21.1876 16.7179 22.1246C16.6757 22.2865 16.648 22.4519 16.635 22.6188C16.635 22.7202 16.6207 22.8313 16.5027 22.8233C16.4499 22.8176 16.4013 22.7914 16.3671 22.7503C16.333 22.7092 16.3159 22.6563 16.3195 22.6027L16.3147 21.7124Z" fill="white"/>
<path d="M34.7132 26.2625C34.6578 26.136 34.5104 26.0784 34.3839 26.1338C34.2574 26.1892 34.1998 26.3366 34.2552 26.4631L34.7132 26.2625ZM34.7822 30.5108C34.6561 30.5672 34.5996 30.715 34.656 30.8411C34.7123 30.9671 34.8602 31.0236 34.9863 30.9672L34.7822 30.5108ZM27.0523 22.6358C26.9634 22.7414 26.9769 22.8991 27.0825 22.9881C27.1881 23.077 27.3458 23.0636 27.4347 22.958L27.0523 22.6358ZM30.832 21.2487L30.8741 21.0022L30.8724 21.0019L30.832 21.2487ZM31.2842 21.628C31.4137 21.676 31.5576 21.6101 31.6056 21.4806C31.6537 21.3512 31.5877 21.2073 31.4583 21.1592L31.2842 21.628ZM35.0466 21.5831C34.9448 21.6763 34.9378 21.8345 35.031 21.9363C35.1243 22.0381 35.2824 22.0451 35.3842 21.9519L35.0466 21.5831ZM38.5334 20.9884L38.6385 20.7616L38.6382 20.7615L38.5334 20.9884ZM38.8139 21.4466C38.9242 21.5297 39.0809 21.5078 39.1641 21.3976C39.2472 21.2873 39.2253 21.1306 39.1151 21.0474L38.8139 21.4466ZM34.4842 26.3628C34.2552 26.4631 34.2552 26.4631 34.2553 26.4631C34.2553 26.4631 34.2553 26.4632 34.2553 26.4632C34.2553 26.4633 34.2554 26.4635 34.2555 26.4636C34.2556 26.464 34.2559 26.4646 34.2562 26.4653C34.2569 26.4668 34.2579 26.4691 34.2592 26.4721C34.2618 26.4781 34.2657 26.487 34.2708 26.4987C34.281 26.5221 34.296 26.5564 34.315 26.6003C34.3531 26.688 34.4076 26.8139 34.473 26.966C34.6039 27.2704 34.7782 27.6799 34.9524 28.1006C35.1268 28.5217 35.3003 28.9521 35.4299 29.2991C35.4947 29.4729 35.5476 29.623 35.5838 29.7392C35.602 29.7975 35.6151 29.8444 35.6235 29.88C35.6329 29.9205 35.6326 29.9311 35.6326 29.9237H36.1326C36.1326 29.8702 36.1212 29.8127 36.1102 29.7658C36.0981 29.7141 36.0812 29.6547 36.0611 29.5904C36.0209 29.4614 35.9645 29.3016 35.8983 29.1242C35.7656 28.769 35.5895 28.3322 35.4144 27.9092C35.239 27.4858 35.0638 27.0742 34.9324 26.7686C34.8667 26.6157 34.812 26.4893 34.7736 26.401C34.7544 26.3569 34.7394 26.3223 34.7291 26.2987C34.7239 26.2869 34.72 26.2779 34.7173 26.2718C34.716 26.2687 34.715 26.2664 34.7143 26.2649C34.7139 26.2641 34.7137 26.2635 34.7135 26.2631C34.7134 26.2629 34.7133 26.2627 34.7133 26.2626C34.7133 26.2626 34.7133 26.2625 34.7132 26.2625C34.7132 26.2625 34.7132 26.2625 34.4842 26.3628ZM35.6326 29.9237C35.6326 29.9105 35.6344 29.9452 35.5497 30.0301C35.475 30.1049 35.3679 30.1838 35.2498 30.2584C35.1337 30.3318 35.0162 30.3953 34.9269 30.4407C34.8825 30.4633 34.8456 30.4811 34.8201 30.4932C34.8074 30.4992 34.7976 30.5038 34.7911 30.5067C34.7878 30.5082 34.7854 30.5093 34.7839 30.51C34.7832 30.5104 34.7826 30.5106 34.7823 30.5107C34.7822 30.5108 34.7821 30.5108 34.7821 30.5108C34.7821 30.5108 34.7821 30.5108 34.7821 30.5108C34.7821 30.5108 34.7821 30.5108 34.7821 30.5108C34.7821 30.5108 34.7822 30.5108 34.8842 30.739C34.9863 30.9672 34.9863 30.9672 34.9863 30.9672C34.9864 30.9672 34.9864 30.9672 34.9864 30.9672C34.9865 30.9671 34.9866 30.9671 34.9867 30.967C34.9869 30.9669 34.9872 30.9668 34.9875 30.9667C34.9882 30.9664 34.9891 30.966 34.9903 30.9654C34.9925 30.9644 34.9957 30.963 34.9998 30.9611C35.0079 30.9574 35.0195 30.952 35.0341 30.9451C35.0632 30.9313 35.1044 30.9114 35.1536 30.8863C35.2514 30.8366 35.3835 30.7654 35.5169 30.6811C35.6485 30.598 35.7909 30.4961 35.9035 30.3834C36.0059 30.2808 36.1326 30.1214 36.1326 29.9237H35.6326ZM27.4347 22.958C28.3334 21.8912 29.6235 21.304 30.7915 21.4954L30.8724 21.0019C29.4864 20.7749 28.0323 21.4725 27.0523 22.6358L27.4347 22.958ZM30.7898 21.4951C30.9583 21.5239 31.1239 21.5684 31.2842 21.628L31.4583 21.1592C31.2688 21.0889 31.0733 21.0363 30.8741 21.0022L30.7898 21.4951ZM35.3842 21.9519C36.3338 21.0826 37.5051 20.7886 38.4285 21.2154L38.6382 20.7615C37.4732 20.223 36.0904 20.6275 35.0466 21.5831L35.3842 21.9519ZM38.4282 21.2152C38.5645 21.2784 38.6938 21.356 38.8139 21.4466L39.1151 21.0474C38.9667 20.9355 38.807 20.8397 38.6385 20.7616L38.4282 21.2152Z" fill="#373743"/>
<path d="M31.6697 32.6301C32.1585 33.7733 33.8497 34.0479 34.6204 33.9183" stroke="#373743" stroke-width="0.5" stroke-miterlimit="10" stroke-linecap="round"/>
<path d="M30.7645 27.0514C31.2752 27.0514 31.6891 26.4836 31.6891 25.7831C31.6891 25.0827 31.2752 24.5149 30.7645 24.5149C30.2539 24.5149 29.84 25.0827 29.84 25.7831C29.84 26.4836 30.2539 27.0514 30.7645 27.0514Z" fill="#373743"/>
<path d="M31.3727 25.3252C31.1252 24.3831 29.8875 24.2365 28.9924 25.0205" stroke="#373743" stroke-width="0.5" stroke-linecap="round"/>
<path d="M37.9972 26.5935C38.5078 26.5935 38.9218 26.0257 38.9218 25.3252C38.9218 24.6248 38.5078 24.057 37.9972 24.057C37.4866 24.057 37.0726 24.6248 37.0726 25.3252C37.0726 26.0257 37.4866 26.5935 37.9972 26.5935Z" fill="#373743"/>
<path d="M38.6054 24.8673C38.3578 23.9252 37.1202 23.7786 36.2251 24.5626" stroke="#373743" stroke-width="0.5" stroke-linecap="round"/>
</g>
<defs>
<clipPath id="clip0_1_2372">
<rect width="56" height="56" rx="28" fill="white"/>
</clipPath>
</defs>
</svg>
