<svg width="56" height="56" viewBox="0 0 56 56" fill="none" xmlns="http://www.w3.org/2000/svg">
<g clip-path="url(#clip0_1_2396)">
<rect width="56" height="56" rx="28" fill="#F7FAE7"/>
<path d="M32.096 37.4647C30.9009 37.4284 27.3551 36.2969 26.6502 35.7748L32.096 37.4647Z" fill="#FFE7D0"/>
<path d="M32.5878 43.0416C34.7926 46.1299 41.9217 47.0466 43.1381 47.488C45.1331 48.244 45.4725 50.288 45.502 51.4014C45.5872 54.5736 45.9593 60.0155 44.8462 62.8913" fill="#FFE7D0"/>
<path d="M32.5878 43.0416C31.2501 40.6303 32.096 37.4647 32.096 37.4647C32.096 37.4647 34.6877 37.5882 35.727 37.0562C37.7253 36.1948 40.099 33.044 40.0744 28.5327C40.0178 24.4701 39.1638 20.4586 37.5614 16.7282C36.1155 12.9713 27.1437 9.45974 20.3849 16.0216C20.3849 16.0216 16.7407 19.3684 18.857 24.9306" fill="#FFE7D0"/>
<path d="M8.35557 62.8913C7.3933 59.7931 7.77198 51.6468 7.91132 50.4971C8.05066 49.3475 8.58835 47.0153 11.4358 46.3054C12.6948 45.9875 20.5783 44.7068 22.1782 42.4849" fill="#FFE7D0"/>
<path d="M22.5651 34.0849C22.5651 34.0849 19.9177 32.5746 18.8619 29.4254C17.8062 26.2762 18.857 24.9306 18.857 24.9306C19.7046 23.6607 23.0766 23.3494 23.0766 27.1804" fill="#FFE7D0"/>
<path d="M22.5651 34.0849C22.7668 38.0873 22.8176 39.9237 22.1782 42.4849L22.5651 34.0849Z" fill="#FFE7D0"/>
<path d="M32.5878 43.0416C34.7926 46.1299 41.9217 47.0466 43.1381 47.488C45.1331 48.244 45.4725 50.288 45.502 51.4014C45.5872 54.5736 45.9593 60.0155 44.8462 62.8913H8.35557C7.3933 59.7931 7.77198 51.6468 7.91132 50.4971C8.05066 49.3475 8.58835 47.0153 11.4358 46.3054C12.6948 45.9875 20.5783 44.7068 22.1782 42.4849C22.8176 39.9237 22.7668 38.0873 22.5651 34.0849C22.5651 34.0849 19.9177 32.5746 18.8619 29.4254C17.8062 26.2762 18.857 24.9306 18.857 24.9306C16.7407 19.3684 20.3849 16.0216 20.3849 16.0216C27.1437 9.45974 36.1155 12.9713 37.5614 16.7282C39.1638 20.4586 40.0178 24.4701 40.0744 28.5327C40.099 33.044 37.7253 36.1948 35.727 37.0562C34.6877 37.5882 32.096 37.4647 32.096 37.4647C32.096 37.4647 31.2501 40.6303 32.5878 43.0416Z" fill="#FFE7D0"/>
<path d="M32.096 37.4647C30.9009 37.4284 27.3551 36.2969 26.6502 35.7748M32.096 37.4647C32.096 37.4647 31.2501 40.6303 32.5878 43.0416C34.7926 46.1299 41.9217 47.0466 43.1381 47.488C45.1331 48.244 45.4725 50.288 45.502 51.4014C45.5872 54.5736 45.9593 60.0155 44.8462 62.8912H8.35557C7.3933 59.7931 7.77198 51.6468 7.91132 50.4971C8.05066 49.3475 8.58835 47.0153 11.4358 46.3054C12.6948 45.9875 20.5783 44.7068 22.1782 42.4849C22.8176 39.9237 22.7668 38.0873 22.5651 34.0849C22.5651 34.0849 19.9177 32.5746 18.8619 29.4254C17.8062 26.2762 18.857 24.9306 18.857 24.9306M32.096 37.4647C32.096 37.4647 34.6877 37.5882 35.727 37.0562C37.7253 36.1948 40.099 33.044 40.0744 28.5327C40.0178 24.4701 39.1638 20.4586 37.5614 16.7282C36.1155 12.9713 27.1437 9.45974 20.3849 16.0216C20.3849 16.0216 16.7407 19.3684 18.857 24.9306M18.857 24.9306C19.7046 23.6607 23.0766 23.3494 23.0766 27.1804" stroke="#373743" stroke-width="0.5" stroke-linecap="round" stroke-linejoin="round"/>
<path opacity="0.4" d="M32.0582 37.3379C31.8995 38.4588 31.6536 40.1059 32.0582 41.4235C30.5583 41.0661 26.324 38.1252 26.324 35.7369C28.1766 36.464 30.0979 37.0004 32.0582 37.3379Z" fill="#373743"/>
<path d="M20.7892 25.8588C20.1499 26.0334 19.7138 27.0035 20.222 28.0494" stroke="#373743" stroke-width="0.5" stroke-linecap="round"/>
<path d="M8.37982 62.8089C7.413 59.7108 7.79346 51.5645 7.93346 50.4148C8.07346 49.2652 8.6137 46.9329 11.4746 46.2231C12.7396 45.9052 17.9375 45.1294 20.4081 43.8941" fill="white"/>
<path d="M8.37982 62.8089C7.413 59.7108 7.79346 51.5645 7.93346 50.4148C8.07346 49.2652 8.6137 46.9329 11.4746 46.2231C12.7396 45.9052 17.9375 45.1294 20.4081 43.8941L21.4787 43.3177C21.4787 44.5912 23.9404 45.4588 27.0787 45.4588C30.217 45.4588 32.7611 44.4265 32.7611 43.153L33.5022 43.8941C36.3022 46.2824 42.1049 46.9642 43.3271 47.4057C45.3315 48.1617 45.6725 50.2056 45.7021 51.3191C45.7878 54.4913 46.1616 59.9332 45.0433 62.8089H8.37982Z" fill="white"/>
<path d="M8.37982 62.8089C7.413 59.7108 7.79346 51.5645 7.93346 50.4148C8.07346 49.2652 8.6137 46.9329 11.4746 46.2231C12.7396 45.9052 17.9375 45.1294 20.4081 43.8941L21.4787 43.3177C21.4787 44.5912 23.9404 45.4588 27.0787 45.4588C30.217 45.4588 32.7611 44.4265 32.7611 43.153L33.5022 43.8941C36.3022 46.2824 42.1049 46.9642 43.3271 47.4057C45.3315 48.1617 45.6725 50.2056 45.7021 51.3191C45.7878 54.4913 46.1616 59.9332 45.0433 62.8089H8.37982Z" stroke="#373743" stroke-width="0.5" stroke-linecap="round" stroke-linejoin="round"/>
<path d="M8.37982 62.8089C7.413 59.7108 7.79347 51.5645 7.93347 50.4148C8.07347 49.2652 8.6137 46.9329 11.4746 46.2231C12.7396 45.9052 17.9375 45.1294 20.4081 43.8941" fill="#F1CF73"/>
<path d="M8.37982 62.8089C7.413 59.7108 7.79347 51.5645 7.93347 50.4148C8.07347 49.2652 8.6137 46.9329 11.4746 46.2231C12.7396 45.9052 17.9375 45.1294 20.4081 43.8941L21.4787 43.3177C21.4787 44.5912 23.9404 45.4588 27.0787 45.4588C30.217 45.4588 32.7611 44.4265 32.7611 43.153L33.5022 43.8941C36.3022 46.2824 42.1049 46.9642 43.3271 47.4057C45.3315 48.1617 45.6725 50.2056 45.7021 51.3191C45.7878 54.4913 46.1616 59.9332 45.0433 62.8089H8.37982Z" fill="#F1CF73"/>
<path d="M8.37982 62.8089C7.413 59.7108 7.79347 51.5645 7.93347 50.4148C8.07347 49.2652 8.6137 46.9329 11.4746 46.2231C12.7396 45.9052 17.9375 45.1294 20.4081 43.8941L21.4787 43.3177C21.4787 44.5912 23.9404 45.4588 27.0787 45.4588C30.217 45.4588 32.7611 44.4265 32.7611 43.153L33.5022 43.8941C36.3022 46.2824 42.1049 46.9642 43.3271 47.4057C45.3315 48.1617 45.6725 50.2056 45.7021 51.3191C45.7878 54.4913 46.1616 59.9332 45.0433 62.8089H8.37982Z" stroke="#373743" stroke-width="0.5" stroke-linecap="round" stroke-linejoin="round"/>
<mask id="mask0_1_2396" style="mask-type:alpha" maskUnits="userSpaceOnUse" x="7" y="44" width="39" height="19">
<path d="M20.064 44.3252C20.157 44.6181 20.3415 44.8878 20.5887 45.1289C20.952 45.4832 21.465 45.791 22.0789 46.0442C23.3077 46.5511 24.9882 46.8589 26.8317 46.8589C28.6731 46.8589 30.3526 46.5723 31.5811 46.0868C32.1947 45.8442 32.7083 45.5472 33.0725 45.2004C33.3474 44.9387 33.545 44.6403 33.6261 44.3115C35.0653 45.4127 37.1094 46.1267 38.9423 46.6186C39.9257 46.8824 40.8585 47.0848 41.6182 47.2482L41.6808 47.2616C42.4185 47.4202 42.9635 47.5373 43.2415 47.6374C45.0902 48.3358 45.4259 50.2271 45.4552 51.3256C45.4663 51.7389 45.4823 52.1889 45.4992 52.6654C45.5475 54.028 45.6035 55.6082 45.5772 57.171C45.5429 59.2075 45.3685 61.1748 44.8718 62.5619H8.56449C8.13425 61.0212 7.9966 58.3575 7.98865 55.8804C7.98043 53.3165 8.11057 51.0044 8.17872 50.4447C8.24683 49.8854 8.41071 49.0563 8.89316 48.2851C9.37107 47.5211 10.169 46.8016 11.5342 46.4629L11.5349 46.4627C11.8268 46.3893 12.3391 46.2898 12.9953 46.1624L13.1038 46.1413C13.8077 46.0046 14.6558 45.8387 15.5423 45.6439C17.1077 45.3 18.8146 44.8616 20.064 44.3252Z" fill="#C4C4C4"/>
</mask>
<g mask="url(#mask0_1_2396)">
<path d="M13.5059 58.7177C13.5059 60.9463 11.7361 62.753 9.55292 62.753C7.36977 62.753 5.59998 60.9463 5.59998 58.7177C5.59998 56.489 7.36977 54.6824 9.55292 54.6824C11.7361 54.6824 13.5059 56.489 13.5059 58.7177Z" fill="white"/>
<path d="M48.7529 49C48.7529 51.2287 46.6513 53.0353 44.0588 53.0353C41.4663 53.0353 39.3647 51.2287 39.3647 49C39.3647 46.7714 41.4663 44.9647 44.0588 44.9647C46.6513 44.9647 48.7529 46.7714 48.7529 49Z" fill="white"/>
<path d="M31.9529 61.5177C31.9529 63.7463 29.372 65.553 26.1882 65.553C23.0045 65.553 20.4235 63.7463 20.4235 61.5177C20.4235 59.289 23.0045 57.4824 26.1882 57.4824C29.372 57.4824 31.9529 59.289 31.9529 61.5177Z" fill="white"/>
<path d="M20.4235 47.6824C20.4235 49.5472 18.6537 51.0588 16.4706 51.0588C14.2874 51.0588 12.5176 49.5472 12.5176 47.6824C12.5176 45.8176 14.2874 44.3059 16.4706 44.3059C18.6537 44.3059 20.4235 45.8176 20.4235 47.6824Z" fill="white"/>
<path d="M34.5059 48.0118C34.5059 50.1495 32.9704 51.553 30.3779 51.553C27.7854 51.553 25.7764 50.1495 25.7764 48.0118C25.7764 45.8741 27.7854 45.1294 30.3779 45.1294C32.9704 45.1294 34.5059 45.8741 34.5059 48.0118Z" fill="white"/>
<path d="M45.7882 60.0353C45.7882 62.4459 43.8341 64.4 41.4235 64.4C39.0129 64.4 37.0588 62.4459 37.0588 60.0353C37.0588 57.6248 39.0129 55.6706 41.4235 55.6706C43.8341 55.6706 45.7882 57.6248 45.7882 60.0353Z" fill="white"/>
</g>
<path d="M26.9963 46.6118C30.6349 46.6118 33.5846 45.4774 33.5846 43.9765L32.761 43.153C32.761 44.4265 30.2169 45.4588 27.0787 45.4588C23.9404 45.4588 21.4787 44.5912 21.4787 43.3177L20.4081 43.8941C20.4081 45.395 23.3577 46.6118 26.9963 46.6118Z" fill="white" stroke="#373743" stroke-width="0.5" stroke-linecap="round" stroke-linejoin="round"/>
<path d="M38.0502 20.2603C36.8717 19.4817 35.5963 18.864 34.2574 18.4235C34.2043 18.4062 34.1467 18.4104 34.0965 18.4349C34.0464 18.4595 34.0075 18.5027 33.988 18.5555C32.7673 21.8123 23.3968 25.705 22.7912 24.8341C21.7952 23.3852 18.6812 23.7071 18.3035 25.639C18.3035 25.639 17.1306 30.224 22.1378 34.0266C22.1626 34.0457 22.1831 34.0699 22.198 34.0977C22.2128 34.1255 22.2216 34.1561 22.2238 34.1876V34.2326C22.2252 34.2634 22.2202 34.2941 22.2091 34.3227C22.1981 34.3514 22.1812 34.3774 22.1596 34.3991C22.138 34.4208 22.1121 34.4377 22.0836 34.4486C22.0552 34.4596 22.0248 34.4645 21.9944 34.4629C21.572 34.4387 20.5952 34.2793 19.1258 33.4325C17.274 32.3603 16.3927 29.7475 16.6015 24.9822C16.7975 20.4954 16.9123 19.1415 18.2238 16.9327C19.3011 15.1183 21.2422 11.7504 29.8573 11.5846C39.0494 11.4075 39.545 18.9612 39.5674 20.101C39.5687 20.1434 39.5576 20.1852 39.5355 20.2213C39.5134 20.2574 39.4812 20.2861 39.4431 20.3038C39.2241 20.4086 38.9836 20.4593 38.7414 20.4518C38.4993 20.4442 38.2623 20.3786 38.0502 20.2603Z" fill="#373743"/>
<path d="M17.4223 16.5124C14.0295 16.5446 20.5171 22.6622 11.3059 27.6529C14.1362 22.7073 12.404 22.3226 10.1569 18.3348C8.64139 14.8945 12.0852 9.96337 15.2566 9.78306C19.0478 9.56895 20.6223 12.8258 20.6223 12.8258C18.4996 14.418 18.2478 15.4241 17.2629 16.741" fill="#373743"/>
<path d="M17.2582 16.7394L18.055 17.3254C19.0836 15.866 20.3241 14.5716 21.7347 13.4858L20.7674 12.6583C19.3025 13.728 18.1017 15.1245 17.2582 16.7394Z" fill="white" stroke="#373743" stroke-width="0.5" stroke-linecap="round" stroke-linejoin="round"/>
<path d="M34.7132 26.2625C34.6578 26.136 34.5104 26.0784 34.3839 26.1338C34.2574 26.1892 34.1998 26.3366 34.2552 26.4631L34.7132 26.2625ZM34.7822 30.5108C34.6561 30.5672 34.5996 30.715 34.656 30.8411C34.7123 30.9671 34.8602 31.0236 34.9863 30.9672L34.7822 30.5108ZM27.0523 22.6358C26.9634 22.7414 26.9769 22.8991 27.0825 22.9881C27.1881 23.077 27.3458 23.0636 27.4347 22.958L27.0523 22.6358ZM30.832 21.2487L30.8741 21.0022L30.8724 21.0019L30.832 21.2487ZM31.2842 21.628C31.4137 21.676 31.5576 21.6101 31.6056 21.4806C31.6537 21.3512 31.5877 21.2073 31.4583 21.1592L31.2842 21.628ZM35.0466 21.5831C34.9448 21.6763 34.9378 21.8345 35.031 21.9363C35.1243 22.0381 35.2824 22.0451 35.3842 21.9519L35.0466 21.5831ZM38.5334 20.9884L38.6385 20.7616L38.6382 20.7615L38.5334 20.9884ZM38.8139 21.4466C38.9242 21.5297 39.0809 21.5078 39.1641 21.3976C39.2472 21.2873 39.2253 21.1306 39.1151 21.0474L38.8139 21.4466ZM34.4842 26.3628C34.2552 26.4631 34.2552 26.4631 34.2553 26.4631C34.2553 26.4631 34.2553 26.4632 34.2553 26.4632C34.2553 26.4633 34.2554 26.4635 34.2555 26.4636C34.2556 26.464 34.2559 26.4646 34.2562 26.4653C34.2569 26.4668 34.2579 26.4691 34.2592 26.4721C34.2618 26.4781 34.2657 26.487 34.2708 26.4987C34.281 26.5221 34.296 26.5564 34.315 26.6003C34.3531 26.688 34.4076 26.8139 34.473 26.966C34.6039 27.2704 34.7782 27.6799 34.9524 28.1006C35.1268 28.5217 35.3003 28.9521 35.4299 29.2991C35.4947 29.4729 35.5476 29.623 35.5838 29.7392C35.602 29.7975 35.6151 29.8444 35.6235 29.88C35.6329 29.9205 35.6326 29.9311 35.6326 29.9237H36.1326C36.1326 29.8702 36.1212 29.8127 36.1102 29.7658C36.0981 29.7141 36.0812 29.6547 36.0611 29.5904C36.0209 29.4614 35.9645 29.3016 35.8983 29.1242C35.7656 28.769 35.5895 28.3322 35.4144 27.9092C35.239 27.4858 35.0638 27.0742 34.9324 26.7686C34.8667 26.6157 34.812 26.4893 34.7736 26.401C34.7544 26.3569 34.7394 26.3223 34.7291 26.2987C34.7239 26.2869 34.72 26.2779 34.7173 26.2718C34.716 26.2687 34.715 26.2664 34.7143 26.2649C34.7139 26.2641 34.7137 26.2635 34.7135 26.2631C34.7134 26.2629 34.7133 26.2627 34.7133 26.2626C34.7133 26.2626 34.7133 26.2625 34.7132 26.2625C34.7132 26.2625 34.7132 26.2625 34.4842 26.3628ZM35.6326 29.9237C35.6326 29.9105 35.6344 29.9452 35.5497 30.0301C35.475 30.1049 35.3679 30.1838 35.2498 30.2584C35.1337 30.3318 35.0162 30.3953 34.9269 30.4407C34.8825 30.4633 34.8456 30.4811 34.8201 30.4932C34.8074 30.4992 34.7976 30.5038 34.7911 30.5067C34.7878 30.5082 34.7854 30.5093 34.7839 30.51C34.7832 30.5104 34.7826 30.5106 34.7823 30.5107C34.7822 30.5108 34.7821 30.5108 34.7821 30.5108C34.7821 30.5108 34.7821 30.5108 34.7821 30.5108C34.7821 30.5108 34.7821 30.5108 34.7821 30.5108C34.7821 30.5108 34.7822 30.5108 34.8842 30.739C34.9863 30.9672 34.9863 30.9672 34.9863 30.9672C34.9864 30.9672 34.9864 30.9672 34.9864 30.9672C34.9865 30.9671 34.9866 30.9671 34.9867 30.967C34.9869 30.9669 34.9872 30.9668 34.9875 30.9667C34.9882 30.9664 34.9891 30.966 34.9903 30.9654C34.9925 30.9644 34.9957 30.963 34.9998 30.9611C35.0079 30.9574 35.0195 30.952 35.0341 30.9451C35.0632 30.9313 35.1044 30.9114 35.1536 30.8863C35.2514 30.8366 35.3835 30.7654 35.5169 30.6811C35.6485 30.598 35.7909 30.4961 35.9035 30.3834C36.0059 30.2808 36.1326 30.1214 36.1326 29.9237H35.6326ZM27.4347 22.958C28.3334 21.8912 29.6235 21.304 30.7915 21.4954L30.8724 21.0019C29.4864 20.7749 28.0323 21.4725 27.0523 22.6358L27.4347 22.958ZM30.7898 21.4951C30.9583 21.5239 31.1239 21.5684 31.2842 21.628L31.4583 21.1592C31.2688 21.0889 31.0733 21.0363 30.8741 21.0022L30.7898 21.4951ZM35.3842 21.9519C36.3338 21.0826 37.5051 20.7886 38.4285 21.2154L38.6382 20.7615C37.4732 20.223 36.0904 20.6275 35.0466 21.5831L35.3842 21.9519ZM38.4282 21.2152C38.5645 21.2784 38.6938 21.356 38.8139 21.4466L39.1151 21.0474C38.9667 20.9355 38.807 20.8397 38.6385 20.7616L38.4282 21.2152Z" fill="#373743"/>
<path d="M31.6697 32.6301C32.1585 33.7733 33.8497 34.0479 34.6204 33.9183" stroke="#373743" stroke-width="0.5" stroke-miterlimit="10" stroke-linecap="round"/>
<path d="M30.7645 27.0514C31.2752 27.0514 31.6891 26.4836 31.6891 25.7831C31.6891 25.0827 31.2752 24.5149 30.7645 24.5149C30.2539 24.5149 29.84 25.0827 29.84 25.7831C29.84 26.4836 30.2539 27.0514 30.7645 27.0514Z" fill="#373743"/>
<path d="M31.3727 25.3252C31.1252 24.3831 29.8875 24.2365 28.9924 25.0205" stroke="#373743" stroke-width="0.5" stroke-linecap="round"/>
<path d="M37.9972 26.5935C38.5078 26.5935 38.9218 26.0257 38.9218 25.3252C38.9218 24.6248 38.5078 24.057 37.9972 24.057C37.4866 24.057 37.0726 24.6248 37.0726 25.3252C37.0726 26.0257 37.4866 26.5935 37.9972 26.5935Z" fill="#373743"/>
<path d="M38.6054 24.8673C38.3578 23.9252 37.1202 23.7786 36.2251 24.5626" stroke="#373743" stroke-width="0.5" stroke-linecap="round"/>
</g>
<defs>
<clipPath id="clip0_1_2396">
<rect width="56" height="56" rx="28" fill="white"/>
</clipPath>
</defs>
</svg>
