<svg width="56" height="56" viewBox="0 0 56 56" fill="none" xmlns="http://www.w3.org/2000/svg">
<g clip-path="url(#clip0_1_2384)">
<rect width="56" height="56" rx="28" fill="#C8EEF1"/>
<path d="M32.096 37.4647C30.9009 37.4284 27.3551 36.2969 26.6502 35.7748L32.096 37.4647Z" fill="#FFE7D0"/>
<path d="M32.5878 43.0416C34.7926 46.1299 41.9217 47.0466 43.1381 47.488C45.1331 48.244 45.4725 50.288 45.502 51.4014C45.5872 54.5736 45.9593 60.0155 44.8462 62.8913" fill="#FFE7D0"/>
<path d="M32.5878 43.0416C31.2501 40.6303 32.096 37.4647 32.096 37.4647C32.096 37.4647 34.6877 37.5882 35.727 37.0562C37.7253 36.1948 40.099 33.044 40.0744 28.5327C40.0178 24.4701 39.1638 20.4586 37.5614 16.7282C36.1155 12.9713 27.1437 9.45974 20.3849 16.0216C20.3849 16.0216 16.7407 19.3684 18.857 24.9306" fill="#FFE7D0"/>
<path d="M8.35557 62.8913C7.3933 59.7931 7.77198 51.6468 7.91132 50.4971C8.05066 49.3475 8.58835 47.0153 11.4358 46.3054C12.6948 45.9875 20.5783 44.7068 22.1782 42.4849" fill="#FFE7D0"/>
<path d="M22.5651 34.0849C22.5651 34.0849 19.9177 32.5746 18.8619 29.4254C17.8062 26.2762 18.857 24.9306 18.857 24.9306C19.7046 23.6607 23.0766 23.3494 23.0766 27.1804" fill="#FFE7D0"/>
<path d="M22.5651 34.0849C22.7668 38.0873 22.8176 39.9237 22.1782 42.4849L22.5651 34.0849Z" fill="#FFE7D0"/>
<path d="M32.5878 43.0416C34.7926 46.1299 41.9217 47.0466 43.1381 47.488C45.1331 48.244 45.4725 50.288 45.502 51.4014C45.5872 54.5736 45.9593 60.0155 44.8462 62.8913H8.35557C7.3933 59.7931 7.77198 51.6468 7.91132 50.4971C8.05066 49.3475 8.58835 47.0153 11.4358 46.3054C12.6948 45.9875 20.5783 44.7068 22.1782 42.4849C22.8176 39.9237 22.7668 38.0873 22.5651 34.0849C22.5651 34.0849 19.9177 32.5746 18.8619 29.4254C17.8062 26.2762 18.857 24.9306 18.857 24.9306C16.7407 19.3684 20.3849 16.0216 20.3849 16.0216C27.1437 9.45974 36.1155 12.9713 37.5614 16.7282C39.1638 20.4586 40.0178 24.4701 40.0744 28.5327C40.099 33.044 37.7253 36.1948 35.727 37.0562C34.6877 37.5882 32.096 37.4647 32.096 37.4647C32.096 37.4647 31.2501 40.6303 32.5878 43.0416Z" fill="#FFE7D0"/>
<path d="M32.096 37.4647C30.9009 37.4284 27.3551 36.2969 26.6502 35.7748M32.096 37.4647C32.096 37.4647 31.2501 40.6303 32.5878 43.0416C34.7926 46.1299 41.9217 47.0466 43.1381 47.488C45.1331 48.244 45.4725 50.288 45.502 51.4014C45.5872 54.5736 45.9593 60.0155 44.8462 62.8912H8.35557C7.3933 59.7931 7.77198 51.6468 7.91132 50.4971C8.05066 49.3475 8.58835 47.0153 11.4358 46.3054C12.6948 45.9875 20.5783 44.7068 22.1782 42.4849C22.8176 39.9237 22.7668 38.0873 22.5651 34.0849C22.5651 34.0849 19.9177 32.5746 18.8619 29.4254C17.8062 26.2762 18.857 24.9306 18.857 24.9306M32.096 37.4647C32.096 37.4647 34.6877 37.5882 35.727 37.0562C37.7253 36.1948 40.099 33.044 40.0744 28.5327C40.0178 24.4701 39.1638 20.4586 37.5614 16.7282C36.1155 12.9713 27.1437 9.45974 20.3849 16.0216C20.3849 16.0216 16.7407 19.3684 18.857 24.9306M18.857 24.9306C19.7046 23.6607 23.0766 23.3494 23.0766 27.1804" stroke="#373743" stroke-width="0.5" stroke-linecap="round" stroke-linejoin="round"/>
<path opacity="0.4" d="M32.0582 37.3379C31.8995 38.4588 31.6536 40.1059 32.0582 41.4235C30.5583 41.0661 26.324 38.1252 26.324 35.7369C28.1766 36.464 30.0979 37.0004 32.0582 37.3379Z" fill="#373743"/>
<path d="M20.7892 25.8588C20.1499 26.0334 19.7138 27.0035 20.222 28.0494" stroke="#373743" stroke-width="0.5" stroke-linecap="round"/>
<path d="M8.21515 61.5736C7.24832 58.4755 7.62879 50.3291 7.76879 49.1795C7.90879 48.0298 8.44903 45.6976 11.31 44.9877C12.5749 44.6698 20.4478 43.4807 22.0554 41.2588" fill="#E49A70"/>
<path d="M8.21515 61.5736C7.24832 58.4755 7.62879 50.3291 7.76879 49.1795C7.90879 48.0298 8.44903 45.6976 11.31 44.9877C12.5749 44.6698 20.4478 43.4807 22.0554 41.2588C22.0554 41.2588 24.7729 42.5764 27.2434 42.4117L32.5966 41.7529C34.8118 44.8411 41.9403 45.7289 43.1624 46.1703C45.1669 46.9263 45.5078 48.9703 45.5374 50.0837C45.6231 53.256 45.997 58.6978 44.8786 61.5736H10.1964H8.21515Z" fill="#E49A70"/>
<path d="M8.21515 61.5736C7.24832 58.4755 7.62879 50.3291 7.76879 49.1795C7.90879 48.0298 8.44903 45.6976 11.31 44.9877C12.5749 44.6698 20.4478 43.4807 22.0554 41.2588C22.0554 41.2588 24.7729 42.5764 27.2434 42.4117L32.5966 41.7529C34.8118 44.8411 41.9403 45.7289 43.1624 46.1703C45.1669 46.9263 45.5078 48.9703 45.5374 50.0837C45.6231 53.256 45.997 58.6978 44.8786 61.5736H10.1964H8.21515Z" stroke="#373743" stroke-width="0.5" stroke-linecap="round" stroke-linejoin="round"/>
<path d="M27.4236 43.4823C28.2193 50.4934 28.2514 54.4242 27.4236 61.4352" stroke="#373743" stroke-width="0.5" stroke-linecap="round"/>
<path d="M31.9375 40.0236C31.9375 41.4483 29.673 42.1861 27.0871 42.1861C24.5012 42.1861 22.2925 41.4483 22.2925 40.0236C17.9245 43.2683 20.1793 45.449 22.5544 45.5527C24.9953 45.6598 27.4741 43.3078 27.4741 43.3078C27.4741 43.3078 29.2464 45.8031 32.3626 45.556C35.6567 45.2941 36.2331 42.4266 32.1006 40.1059" fill="#E5ECF9"/>
<path d="M31.9375 40.0236C31.9375 41.4483 29.673 42.1861 27.0871 42.1861C24.5012 42.1861 22.2925 41.4483 22.2925 40.0236C17.9245 43.2683 20.1793 45.449 22.5544 45.5527C24.9953 45.6598 27.4741 43.3078 27.4741 43.3078C27.4741 43.3078 29.2464 45.8031 32.3626 45.556C35.6567 45.2941 36.2331 42.4266 32.1006 40.1059" stroke="#373743" stroke-width="0.5" stroke-linecap="round" stroke-linejoin="round"/>
<path d="M22.8247 24.5121C23.3618 25.0128 24.1363 24.892 24.6351 24.4155C25.5674 23.5204 25.91 21.801 24.9698 20.79C24.9045 20.7149 24.8564 20.6262 24.8288 20.5302C24.8013 20.4342 24.795 20.3333 24.8104 20.2346C24.8933 19.5407 25.6949 18.7583 26.3849 18.6875C27.4542 18.5748 28.3865 18.9547 29.2726 19.5037C30.2033 20.0865 31.0798 20.7481 32.1156 21.1265C34.7403 22.0924 37.3125 21.8413 39.7651 20.5904C42.2591 19.3202 43.1786 17.2579 42.546 14.5082C42.0965 12.5554 40.8471 11.2175 39.1372 10.2951C38.1013 9.73483 36.9698 9.50623 35.8049 9.42573C34.0041 9.30338 32.2591 9.48047 30.6527 10.4013C30.5982 10.4426 30.5346 10.4698 30.4674 10.4805C30.4001 10.4911 30.3313 10.485 30.267 10.4625C29.0367 10.0005 27.7507 9.9908 26.4678 10.0343C24.9444 10.0852 23.4308 10.3011 21.953 10.6782C19.6818 11.2283 17.5897 12.3618 15.8797 13.9689C14.1968 15.5659 13.0111 17.4833 12.184 19.6582C10.9745 22.8587 11.0844 26.0173 12.3625 29.1566C13.0223 30.7778 13.9562 32.2525 14.7928 33.777C15.0526 34.2503 15.4303 34.6738 15.5482 35.2066C15.6887 35.9249 15.7059 36.6622 15.5992 37.3864C15.3729 39.0366 14.753 40.545 13.9833 42.0036C13.035 43.7987 11.9673 45.5277 11.0813 47.3565C10.0247 49.5476 9.28523 51.8014 9.37129 54.2549C9.3423 55.0542 9.40002 55.8542 9.5434 56.6408C9.91631 58.9075 11.255 60.6011 12.8231 62.1225C13.859 63.1255 15.1434 63.7099 16.5634 63.9691C17.9498 64.2234 19.3363 64.4778 20.7562 64.291C22.2319 64.1011 23.3698 63.3943 24.0391 62.0291C24.343 61.4075 24.6116 60.769 24.8439 60.1166C25.5945 58.0237 25.3459 56.0645 23.902 54.329C23.2343 53.524 22.5347 52.7432 21.9801 51.8481C21.5227 51.1124 21.1546 50.3268 21.2295 49.443C21.2767 48.5802 21.583 47.7524 22.1076 47.07C23.6821 45.122 24.5491 43.2239 24.71 40.7511C24.8072 39.2426 25.0654 37.388 24.3769 36.0583C23.9897 35.3097 23.3889 34.6995 22.5474 34.0652C21.706 33.4309 20.3913 32.1333 19.9339 31.4234C18.9538 29.7797 18.8072 29.242 18.5156 27.2618C18.3817 26.357 18.6223 24.6972 19.7076 24.1193C20.7753 23.5832 21.9307 23.6572 22.8247 24.5121Z" fill="#373743"/>
<path d="M32.8948 25.5508C32.8948 25.6889 33.0068 25.8008 33.1448 25.8008C33.2829 25.8008 33.3948 25.6889 33.3948 25.5508H32.8948ZM35.4308 25.279C35.4308 25.4171 35.5428 25.529 35.6808 25.529C35.8189 25.529 35.9308 25.4171 35.9308 25.279H35.4308ZM28.0878 25.6558C28.2195 25.6974 28.3599 25.6243 28.4015 25.4926C28.443 25.3609 28.3699 25.2205 28.2383 25.179L28.0878 25.6558ZM19.3371 24.1277L19.4445 24.3537L19.4525 24.3495L19.3371 24.1277ZM17.7798 26.7544C17.8051 26.8901 17.9356 26.9797 18.0713 26.9545C18.2071 26.9292 18.2966 26.7987 18.2714 26.663L17.7798 26.7544ZM32.8949 25.4174C32.8949 26.9057 31.859 28.0481 30.6548 28.0481V28.5481C32.201 28.5481 33.3949 27.111 33.3949 25.4174H32.8949ZM30.6548 28.0481C29.4505 28.0481 28.4147 26.9057 28.4147 25.4174H27.9147C27.9147 27.111 29.1085 28.5481 30.6548 28.5481V28.0481ZM28.4147 25.4174C28.4147 23.9291 29.4505 22.7867 30.6548 22.7867V22.2867C29.1085 22.2867 27.9147 23.7238 27.9147 25.4174H28.4147ZM30.6548 22.7867C31.859 22.7867 32.8949 23.9291 32.8949 25.4174H33.3949C33.3949 23.7238 32.201 22.2867 30.6548 22.2867V22.7867ZM40.3881 24.8607C40.3881 26.349 39.3522 27.4914 38.148 27.4914V27.9914C39.6942 27.9914 40.8881 26.5543 40.8881 24.8607H40.3881ZM38.148 27.4914C36.9438 27.4914 35.9079 26.349 35.9079 24.8607H35.4079C35.4079 26.5543 36.6017 27.9914 38.148 27.9914V27.4914ZM35.9079 24.8607C35.9079 23.3724 36.9438 22.23 38.148 22.23V21.73C36.6017 21.73 35.4079 23.1671 35.4079 24.8607H35.9079ZM38.148 22.23C39.3522 22.23 40.3881 23.3724 40.3881 24.8607H40.8881C40.8881 23.1671 39.6942 21.73 38.148 21.73V22.23ZM33.3948 25.5508C33.3948 25.3704 33.4886 25.2226 33.6753 25.1039C33.8675 24.9817 34.14 24.9056 34.428 24.8881C34.7163 24.8706 34.9903 24.9136 35.1815 25.0001C35.3745 25.0875 35.4308 25.189 35.4308 25.279H35.9308C35.9308 24.9104 35.6701 24.6724 35.3877 24.5446C35.1034 24.4159 34.7434 24.368 34.3977 24.389C34.0517 24.41 33.6902 24.5018 33.4069 24.682C33.1181 24.8657 32.8948 25.1548 32.8948 25.5508H33.3948ZM28.163 25.4174C28.2383 25.179 28.2382 25.179 28.2381 25.1789C28.2381 25.1789 28.238 25.1789 28.2378 25.1788C28.2376 25.1788 28.2372 25.1787 28.2368 25.1785C28.2359 25.1782 28.2345 25.1778 28.2328 25.1773C28.2293 25.1762 28.2241 25.1745 28.2173 25.1724C28.2036 25.1682 28.1835 25.1619 28.1573 25.1538C28.1047 25.1376 28.0277 25.114 27.9291 25.0844C27.732 25.0251 27.4487 24.9416 27.1032 24.8444C26.4126 24.65 25.4722 24.4002 24.4747 24.1795C23.4785 23.9591 22.4189 23.7662 21.4918 23.6876C21.0282 23.6482 20.5921 23.637 20.2104 23.6667C19.8323 23.6962 19.4883 23.7672 19.2217 23.906L19.4525 24.3495C19.6329 24.2556 19.9 24.1924 20.2492 24.1652C20.5947 24.1383 21.0018 24.1478 21.4495 24.1858C22.3449 24.2617 23.38 24.4494 24.3667 24.6677C25.3521 24.8857 26.2829 25.1329 26.9677 25.3257C27.31 25.422 27.5905 25.5047 27.7852 25.5632C27.8825 25.5925 27.9584 25.6157 28.0099 25.6316C28.0356 25.6395 28.0552 25.6456 28.0683 25.6497C28.0749 25.6517 28.0798 25.6533 28.0831 25.6543C28.0847 25.6548 28.0859 25.6552 28.0867 25.6555C28.0871 25.6556 28.0874 25.6557 28.0876 25.6557C28.0877 25.6558 28.0877 25.6558 28.0878 25.6558C28.0878 25.6558 28.0878 25.6558 28.163 25.4174ZM19.2297 23.902C18.7081 24.1501 18.2831 24.5645 18.0209 25.0805L18.4667 25.307C18.679 24.8892 19.0229 24.554 19.4444 24.3535L19.2297 23.902ZM18.0209 25.0805C17.7587 25.5965 17.674 26.185 17.7798 26.7544L18.2714 26.663C18.1857 26.2017 18.2544 25.7249 18.4667 25.307L18.0209 25.0805Z" fill="#373743"/>
<path d="M34.7132 26.2625C34.6578 26.136 34.5104 26.0784 34.3839 26.1338C34.2574 26.1892 34.1998 26.3366 34.2552 26.4631L34.7132 26.2625ZM34.7822 30.5108C34.6561 30.5672 34.5996 30.715 34.656 30.8411C34.7123 30.9671 34.8602 31.0236 34.9863 30.9672L34.7822 30.5108ZM27.0523 22.6358C26.9634 22.7414 26.9769 22.8991 27.0825 22.9881C27.1881 23.077 27.3458 23.0636 27.4347 22.958L27.0523 22.6358ZM30.832 21.2487L30.8741 21.0022L30.8724 21.0019L30.832 21.2487ZM31.2842 21.628C31.4137 21.676 31.5576 21.6101 31.6056 21.4806C31.6537 21.3512 31.5877 21.2073 31.4583 21.1592L31.2842 21.628ZM35.0466 21.5831C34.9448 21.6763 34.9378 21.8345 35.031 21.9363C35.1243 22.0381 35.2824 22.0451 35.3842 21.9519L35.0466 21.5831ZM38.5334 20.9884L38.6385 20.7616L38.6382 20.7615L38.5334 20.9884ZM38.8139 21.4466C38.9242 21.5297 39.0809 21.5078 39.1641 21.3976C39.2472 21.2873 39.2253 21.1306 39.1151 21.0474L38.8139 21.4466ZM34.4842 26.3628C34.2552 26.4631 34.2552 26.4631 34.2553 26.4631C34.2553 26.4631 34.2553 26.4632 34.2553 26.4632C34.2553 26.4633 34.2554 26.4635 34.2555 26.4636C34.2556 26.464 34.2559 26.4646 34.2562 26.4653C34.2569 26.4668 34.2579 26.4691 34.2592 26.4721C34.2618 26.4781 34.2657 26.487 34.2708 26.4987C34.281 26.5221 34.296 26.5564 34.315 26.6003C34.3531 26.688 34.4076 26.8139 34.473 26.966C34.6039 27.2704 34.7782 27.6799 34.9524 28.1006C35.1268 28.5217 35.3003 28.9521 35.4299 29.2991C35.4947 29.4729 35.5476 29.623 35.5838 29.7392C35.602 29.7975 35.6151 29.8444 35.6235 29.88C35.6329 29.9205 35.6326 29.9311 35.6326 29.9237H36.1326C36.1326 29.8702 36.1212 29.8127 36.1102 29.7658C36.0981 29.7141 36.0812 29.6547 36.0611 29.5904C36.0209 29.4614 35.9645 29.3016 35.8983 29.1242C35.7656 28.769 35.5895 28.3322 35.4144 27.9092C35.239 27.4858 35.0638 27.0742 34.9324 26.7686C34.8667 26.6157 34.812 26.4893 34.7736 26.401C34.7544 26.3569 34.7394 26.3223 34.7291 26.2987C34.7239 26.2869 34.72 26.2779 34.7173 26.2718C34.716 26.2687 34.715 26.2664 34.7143 26.2649C34.7139 26.2641 34.7137 26.2635 34.7135 26.2631C34.7134 26.2629 34.7133 26.2627 34.7133 26.2626C34.7133 26.2626 34.7133 26.2625 34.7132 26.2625C34.7132 26.2625 34.7132 26.2625 34.4842 26.3628ZM35.6326 29.9237C35.6326 29.9105 35.6344 29.9452 35.5497 30.0301C35.475 30.1049 35.3679 30.1838 35.2498 30.2584C35.1337 30.3318 35.0162 30.3953 34.9269 30.4407C34.8825 30.4633 34.8456 30.4811 34.8201 30.4932C34.8074 30.4992 34.7976 30.5038 34.7911 30.5067C34.7878 30.5082 34.7854 30.5093 34.7839 30.51C34.7832 30.5104 34.7826 30.5106 34.7823 30.5107C34.7822 30.5108 34.7821 30.5108 34.7821 30.5108C34.7821 30.5108 34.7821 30.5108 34.7821 30.5108C34.7821 30.5108 34.7821 30.5108 34.7821 30.5108C34.7821 30.5108 34.7822 30.5108 34.8842 30.739C34.9863 30.9672 34.9863 30.9672 34.9863 30.9672C34.9864 30.9672 34.9864 30.9672 34.9864 30.9672C34.9865 30.9671 34.9866 30.9671 34.9867 30.967C34.9869 30.9669 34.9872 30.9668 34.9875 30.9667C34.9882 30.9664 34.9891 30.966 34.9903 30.9654C34.9925 30.9644 34.9957 30.963 34.9998 30.9611C35.0079 30.9574 35.0195 30.952 35.0341 30.9451C35.0632 30.9313 35.1044 30.9114 35.1536 30.8863C35.2514 30.8366 35.3835 30.7654 35.5169 30.6811C35.6485 30.598 35.7909 30.4961 35.9035 30.3834C36.0059 30.2808 36.1326 30.1214 36.1326 29.9237H35.6326ZM27.4347 22.958C28.3334 21.8912 29.6235 21.304 30.7915 21.4954L30.8724 21.0019C29.4864 20.7749 28.0323 21.4725 27.0523 22.6358L27.4347 22.958ZM30.7898 21.4951C30.9583 21.5239 31.1239 21.5684 31.2842 21.628L31.4583 21.1592C31.2688 21.0889 31.0733 21.0363 30.8741 21.0022L30.7898 21.4951ZM35.3842 21.9519C36.3338 21.0826 37.5051 20.7886 38.4285 21.2154L38.6382 20.7615C37.4732 20.223 36.0904 20.6275 35.0466 21.5831L35.3842 21.9519ZM38.4282 21.2152C38.5645 21.2784 38.6938 21.356 38.8139 21.4466L39.1151 21.0474C38.9667 20.9355 38.807 20.8397 38.6385 20.7616L38.4282 21.2152Z" fill="#373743"/>
<path d="M31.6697 32.6301C32.1585 33.7733 33.8497 34.0479 34.6204 33.9183" stroke="#373743" stroke-width="0.5" stroke-miterlimit="10" stroke-linecap="round"/>
<path d="M30.7645 27.0514C31.2752 27.0514 31.6891 26.4836 31.6891 25.7831C31.6891 25.0827 31.2752 24.5149 30.7645 24.5149C30.2539 24.5149 29.84 25.0827 29.84 25.7831C29.84 26.4836 30.2539 27.0514 30.7645 27.0514Z" fill="#373743"/>
<path d="M31.3727 25.3252C31.1252 24.3831 29.8875 24.2365 28.9924 25.0205" stroke="#373743" stroke-width="0.5" stroke-linecap="round"/>
<path d="M37.9972 26.5935C38.5078 26.5935 38.9218 26.0257 38.9218 25.3252C38.9218 24.6248 38.5078 24.057 37.9972 24.057C37.4866 24.057 37.0726 24.6248 37.0726 25.3252C37.0726 26.0257 37.4866 26.5935 37.9972 26.5935Z" fill="#373743"/>
<path d="M38.6054 24.8673C38.3578 23.9252 37.1202 23.7786 36.2251 24.5626" stroke="#373743" stroke-width="0.5" stroke-linecap="round"/>
</g>
<defs>
<clipPath id="clip0_1_2384">
<rect width="56" height="56" rx="28" fill="white"/>
</clipPath>
</defs>
</svg>
