<svg width="56" height="56" viewBox="0 0 56 56" fill="none" xmlns="http://www.w3.org/2000/svg">
<g clip-path="url(#clip0_1_2378)">
<rect width="56" height="56" rx="28" fill="#FFF7EF"/>
<path d="M32.096 37.4647C30.9009 37.4284 27.3551 36.2969 26.6502 35.7748L32.096 37.4647Z" fill="#FFE7D0"/>
<path d="M32.5878 43.0416C34.7926 46.1299 41.9217 47.0466 43.1381 47.488C45.1331 48.244 45.4725 50.288 45.502 51.4014C45.5872 54.5736 45.9593 60.0155 44.8462 62.8913" fill="#FFE7D0"/>
<path d="M32.5878 43.0416C31.2501 40.6303 32.096 37.4647 32.096 37.4647C32.096 37.4647 34.6877 37.5882 35.727 37.0562C37.7253 36.1948 40.099 33.044 40.0744 28.5327C40.0178 24.4701 39.1638 20.4586 37.5614 16.7282C36.1155 12.9713 27.1437 9.45974 20.3849 16.0216C20.3849 16.0216 16.7407 19.3684 18.857 24.9306" fill="#FFE7D0"/>
<path d="M8.35557 62.8913C7.3933 59.7931 7.77198 51.6468 7.91132 50.4971C8.05066 49.3475 8.58835 47.0153 11.4358 46.3054C12.6948 45.9875 20.5783 44.7068 22.1782 42.4849" fill="#FFE7D0"/>
<path d="M22.5651 34.0849C22.5651 34.0849 19.9177 32.5746 18.8619 29.4254C17.8062 26.2762 18.857 24.9306 18.857 24.9306C19.7046 23.6607 23.0766 23.3494 23.0766 27.1804" fill="#FFE7D0"/>
<path d="M22.5651 34.0849C22.7668 38.0873 22.8176 39.9237 22.1782 42.4849L22.5651 34.0849Z" fill="#FFE7D0"/>
<path d="M32.5878 43.0416C34.7926 46.1299 41.9217 47.0466 43.1381 47.488C45.1331 48.244 45.4725 50.288 45.502 51.4014C45.5872 54.5736 45.9593 60.0155 44.8462 62.8913H8.35557C7.3933 59.7931 7.77198 51.6468 7.91132 50.4971C8.05066 49.3475 8.58835 47.0153 11.4358 46.3054C12.6948 45.9875 20.5783 44.7068 22.1782 42.4849C22.8176 39.9237 22.7668 38.0873 22.5651 34.0849C22.5651 34.0849 19.9177 32.5746 18.8619 29.4254C17.8062 26.2762 18.857 24.9306 18.857 24.9306C16.7407 19.3684 20.3849 16.0216 20.3849 16.0216C27.1437 9.45974 36.1155 12.9713 37.5614 16.7282C39.1638 20.4586 40.0178 24.4701 40.0744 28.5327C40.099 33.044 37.7253 36.1948 35.727 37.0562C34.6877 37.5882 32.096 37.4647 32.096 37.4647C32.096 37.4647 31.2501 40.6303 32.5878 43.0416Z" fill="#FFE7D0"/>
<path d="M32.096 37.4647C30.9009 37.4284 27.3551 36.2969 26.6502 35.7748M32.096 37.4647C32.096 37.4647 31.2501 40.6303 32.5878 43.0416C34.7926 46.1299 41.9217 47.0466 43.1381 47.488C45.1331 48.244 45.4725 50.288 45.502 51.4014C45.5872 54.5736 45.9593 60.0155 44.8462 62.8913H8.35557C7.3933 59.7931 7.77198 51.6468 7.91132 50.4971C8.05066 49.3475 8.58835 47.0153 11.4358 46.3054C12.6948 45.9875 20.5783 44.7068 22.1782 42.4849C22.8176 39.9237 22.7668 38.0873 22.5651 34.0849C22.5651 34.0849 19.9177 32.5746 18.8619 29.4254C17.8062 26.2762 18.857 24.9306 18.857 24.9306M32.096 37.4647C32.096 37.4647 34.6877 37.5882 35.727 37.0562C37.7253 36.1948 40.099 33.044 40.0744 28.5327C40.0178 24.4701 39.1638 20.4586 37.5614 16.7282C36.1155 12.9713 27.1437 9.45974 20.3849 16.0216C20.3849 16.0216 16.7407 19.3684 18.857 24.9306M18.857 24.9306C19.7046 23.6607 23.0766 23.3494 23.0766 27.1804" stroke="#373743" stroke-width="0.5" stroke-linecap="round" stroke-linejoin="round"/>
<path opacity="0.4" d="M32.0582 37.3379C31.8995 38.4588 31.6536 40.1059 32.0582 41.4235C30.5583 41.0661 26.324 38.1252 26.324 35.7369C28.1766 36.464 30.0979 37.0004 32.0582 37.3379Z" fill="#373743"/>
<path d="M20.7892 25.8588C20.1499 26.0334 19.7138 27.0035 20.222 28.0494" stroke="#373743" stroke-width="0.5" stroke-linecap="round"/>
<path d="M8.37982 62.8089C7.413 59.7108 7.79346 51.5645 7.93346 50.4148C8.07346 49.2652 8.6137 46.9329 11.4746 46.2231C12.7396 45.9052 17.9375 45.1294 20.4081 43.8941" fill="#62C283"/>
<path d="M8.37982 62.8089C7.413 59.7108 7.79346 51.5645 7.93346 50.4148C8.07346 49.2652 8.6137 46.9329 11.4746 46.2231C12.7396 45.9052 17.9375 45.1294 20.4081 43.8941L21.4787 43.3177C21.4787 44.5912 23.9404 45.4588 27.0787 45.4588C30.217 45.4588 32.7611 44.4265 32.7611 43.153L33.5022 43.8941C36.3022 46.2824 42.1049 46.9642 43.3271 47.4057C45.3315 48.1617 45.6725 50.2056 45.7021 51.3191C45.7878 54.4913 46.1616 59.9332 45.0433 62.8089H8.37982Z" fill="#62C283"/>
<path d="M8.37982 62.8089C7.413 59.7108 7.79346 51.5645 7.93346 50.4148C8.07346 49.2652 8.6137 46.9329 11.4746 46.2231C12.7396 45.9052 17.9375 45.1294 20.4081 43.8941L21.4787 43.3177C21.4787 44.5912 23.9404 45.4588 27.0787 45.4588C30.217 45.4588 32.7611 44.4265 32.7611 43.153L33.5022 43.8941C36.3022 46.2824 42.1049 46.9642 43.3271 47.4057C45.3315 48.1617 45.6725 50.2056 45.7021 51.3191C45.7878 54.4913 46.1616 59.9332 45.0433 62.8089H8.37982Z" stroke="#373743" stroke-width="0.5" stroke-linecap="round" stroke-linejoin="round"/>
<path d="M27.6288 49.5386C27.9735 49.5386 28.253 49.2592 28.253 48.9144C28.253 48.5696 27.9735 48.2902 27.6288 48.2902C27.284 48.2902 27.0045 48.5696 27.0045 48.9144C27.0045 49.2592 27.284 49.5386 27.6288 49.5386Z" fill="#373743"/>
<path d="M27.6288 52.3337C27.9735 52.3337 28.253 52.0542 28.253 51.7095C28.253 51.3647 27.9735 51.0852 27.6288 51.0852C27.284 51.0852 27.0045 51.3647 27.0045 51.7095C27.0045 52.0542 27.284 52.3337 27.6288 52.3337Z" fill="#373743"/>
<path d="M27.6288 55.1337C27.9735 55.1337 28.253 54.8542 28.253 54.5095C28.253 54.1647 27.9735 53.8852 27.6288 53.8852C27.284 53.8852 27.0045 54.1647 27.0045 54.5095C27.0045 54.8542 27.284 55.1337 27.6288 55.1337Z" fill="#373743"/>
<path d="M26.9963 46.6118C30.6349 46.6118 33.5846 45.4774 33.5846 43.9765L32.761 43.153C32.761 44.4265 30.2169 45.4588 27.0787 45.4588C23.9404 45.4588 21.4787 44.5912 21.4787 43.3177L20.4081 43.8941C20.4081 45.395 23.3577 46.6118 26.9963 46.6118Z" fill="white" stroke="#373743" stroke-width="0.5" stroke-linecap="round" stroke-linejoin="round"/>
<path d="M20.2257 23.9639C21.7967 23.7788 22.8506 24.4147 23.2737 25.4129C23.6645 26.3435 23.5218 28.0517 25.0475 27.1083C26.4321 26.2534 25.3166 23.497 24.7572 22.1382C27.9804 21.5135 28.2528 19.4624 28.2528 19.4624C29.7249 19.955 32.679 19.0551 32.8362 18.1985C34.3708 18.7702 36.5286 18.7731 38.0651 18.2066C38.5904 18.9552 38.3765 19.4624 38.8108 20.2493C41.5379 19.4443 43.0797 14.4698 38.7346 12.3365C39.2323 10.0117 35.6865 8.33568 34.0522 10.0503C33.7069 7.38256 29.1883 7.34553 28.5641 9.33066C27.1422 7.85912 22.5652 8.31314 22.2718 10.9197C20.2451 9.97466 17.4419 12.6086 17.9364 14.927C15.5887 15.286 15.2677 16.2971 15.853 18.4207C13.7129 20.4219 14.0517 22.7516 16.0151 24.1861C15.1461 25.8589 17.3364 28.1978 18.6383 28.8627C17.8277 25.5623 18.7551 24.2666 20.2257 23.9639Z" fill="#373743"/>
<path d="M34.7132 26.2625C34.6578 26.136 34.5104 26.0784 34.3839 26.1338C34.2574 26.1892 34.1998 26.3366 34.2552 26.4631L34.7132 26.2625ZM34.7822 30.5108C34.6561 30.5672 34.5996 30.715 34.656 30.8411C34.7123 30.9671 34.8602 31.0236 34.9863 30.9672L34.7822 30.5108ZM27.0523 22.6358C26.9634 22.7414 26.9769 22.8991 27.0825 22.9881C27.1881 23.077 27.3458 23.0636 27.4347 22.958L27.0523 22.6358ZM30.832 21.2487L30.8741 21.0022L30.8724 21.0019L30.832 21.2487ZM31.2842 21.628C31.4137 21.676 31.5576 21.6101 31.6056 21.4806C31.6537 21.3512 31.5877 21.2073 31.4583 21.1592L31.2842 21.628ZM35.0466 21.5831C34.9448 21.6763 34.9378 21.8345 35.031 21.9363C35.1243 22.0381 35.2824 22.0451 35.3842 21.9519L35.0466 21.5831ZM38.5334 20.9884L38.6385 20.7616L38.6382 20.7615L38.5334 20.9884ZM38.8139 21.4466C38.9242 21.5297 39.0809 21.5078 39.1641 21.3976C39.2472 21.2873 39.2253 21.1306 39.115 21.0474L38.8139 21.4466ZM34.4842 26.3628C34.2552 26.4631 34.2552 26.4631 34.2552 26.4631C34.2553 26.4631 34.2553 26.4632 34.2553 26.4632C34.2553 26.4633 34.2554 26.4635 34.2555 26.4636C34.2556 26.464 34.2559 26.4646 34.2562 26.4653C34.2569 26.4668 34.2579 26.4691 34.2592 26.4721C34.2618 26.4781 34.2657 26.487 34.2708 26.4987C34.281 26.5221 34.296 26.5564 34.315 26.6003C34.3531 26.688 34.4076 26.8139 34.473 26.966C34.6039 27.2704 34.7782 27.6799 34.9524 28.1006C35.1268 28.5217 35.3003 28.9521 35.4299 29.2991C35.4947 29.4729 35.5475 29.623 35.5838 29.7392C35.602 29.7975 35.6151 29.8444 35.6235 29.88C35.6329 29.9205 35.6325 29.9311 35.6325 29.9237H36.1325C36.1325 29.8702 36.1212 29.8127 36.1102 29.7658C36.0981 29.7141 36.0812 29.6547 36.0611 29.5904C36.0209 29.4614 35.9645 29.3016 35.8983 29.1242C35.7656 28.769 35.5895 28.3322 35.4144 27.9092C35.239 27.4858 35.0638 27.0742 34.9324 26.7686C34.8667 26.6157 34.812 26.4893 34.7736 26.401C34.7544 26.3569 34.7394 26.3223 34.7291 26.2987C34.7239 26.2869 34.72 26.2779 34.7173 26.2718C34.716 26.2687 34.715 26.2664 34.7143 26.2649C34.7139 26.2641 34.7137 26.2635 34.7135 26.2631C34.7134 26.2629 34.7133 26.2627 34.7133 26.2626C34.7133 26.2626 34.7133 26.2625 34.7132 26.2625C34.7132 26.2625 34.7132 26.2625 34.4842 26.3628ZM35.6325 29.9237C35.6325 29.9105 35.6344 29.9452 35.5497 30.0301C35.475 30.1049 35.3679 30.1838 35.2498 30.2584C35.1337 30.3318 35.0162 30.3953 34.9269 30.4407C34.8825 30.4633 34.8456 30.4811 34.8201 30.4932C34.8074 30.4992 34.7976 30.5038 34.7911 30.5067C34.7878 30.5082 34.7854 30.5093 34.7839 30.51C34.7832 30.5104 34.7826 30.5106 34.7823 30.5107C34.7822 30.5108 34.7821 30.5108 34.7821 30.5108C34.7821 30.5108 34.7821 30.5108 34.7821 30.5108C34.7821 30.5108 34.7821 30.5108 34.7821 30.5108C34.7821 30.5108 34.7822 30.5108 34.8842 30.739C34.9863 30.9672 34.9863 30.9672 34.9863 30.9672C34.9864 30.9672 34.9864 30.9672 34.9864 30.9672C34.9865 30.9671 34.9866 30.9671 34.9867 30.967C34.9869 30.9669 34.9872 30.9668 34.9875 30.9667C34.9882 30.9664 34.9891 30.966 34.9903 30.9654C34.9925 30.9644 34.9957 30.963 34.9998 30.9611C35.0079 30.9574 35.0195 30.952 35.0341 30.9451C35.0632 30.9313 35.1044 30.9114 35.1536 30.8863C35.2514 30.8366 35.3835 30.7654 35.5169 30.6811C35.6485 30.598 35.7909 30.4961 35.9035 30.3834C36.0059 30.2808 36.1325 30.1214 36.1325 29.9237H35.6325ZM27.4347 22.958C28.3334 21.8912 29.6235 21.304 30.7915 21.4954L30.8724 21.0019C29.4864 20.7749 28.0323 21.4725 27.0523 22.6358L27.4347 22.958ZM30.7898 21.4951C30.9583 21.5239 31.1239 21.5684 31.2842 21.628L31.4583 21.1592C31.2688 21.0889 31.0733 21.0363 30.8741 21.0022L30.7898 21.4951ZM35.3842 21.9519C36.3338 21.0826 37.5051 20.7886 38.4285 21.2154L38.6382 20.7615C37.4732 20.223 36.0904 20.6275 35.0466 21.5831L35.3842 21.9519ZM38.4282 21.2152C38.5645 21.2784 38.6938 21.356 38.8139 21.4466L39.115 21.0474C38.9667 20.9355 38.807 20.8397 38.6385 20.7616L38.4282 21.2152Z" fill="#373743"/>
<path d="M31.6697 32.6301C32.1585 33.7733 33.8497 34.0479 34.6204 33.9183" stroke="#373743" stroke-width="0.5" stroke-miterlimit="10" stroke-linecap="round"/>
<path d="M30.7645 27.0514C31.2752 27.0514 31.6891 26.4836 31.6891 25.7831C31.6891 25.0827 31.2752 24.5149 30.7645 24.5149C30.2539 24.5149 29.84 25.0827 29.84 25.7831C29.84 26.4836 30.2539 27.0514 30.7645 27.0514Z" fill="#373743"/>
<path d="M31.3727 25.3252C31.1252 24.3831 29.8875 24.2365 28.9924 25.0205" stroke="#373743" stroke-width="0.5" stroke-linecap="round"/>
<path d="M37.9972 26.5935C38.5078 26.5935 38.9218 26.0257 38.9218 25.3252C38.9218 24.6248 38.5078 24.057 37.9972 24.057C37.4866 24.057 37.0726 24.6248 37.0726 25.3252C37.0726 26.0257 37.4866 26.5935 37.9972 26.5935Z" fill="#373743"/>
<path d="M38.6054 24.8673C38.3578 23.9252 37.1202 23.7786 36.2251 24.5626" stroke="#373743" stroke-width="0.5" stroke-linecap="round"/>
</g>
<defs>
<clipPath id="clip0_1_2378">
<rect width="56" height="56" rx="28" fill="white"/>
</clipPath>
</defs>
</svg>
