<svg width="58" height="56" viewBox="0 0 58 56" fill="none" xmlns="http://www.w3.org/2000/svg">
<g clip-path="url(#clip0_1_1979)">
<rect width="56" height="56" rx="28" fill="#373743"/>
<path d="M32.096 37.4647C30.9009 37.4284 27.3551 36.2969 26.6502 35.7748L32.096 37.4647Z" fill="#FFE7D0"/>
<path d="M32.5878 43.0416C34.7926 46.1299 41.9217 47.0466 43.1381 47.488C45.1331 48.244 45.4725 50.288 45.502 51.4014C45.5872 54.5736 45.9593 60.0155 44.8462 62.8913" fill="#FFE7D0"/>
<path d="M32.5878 43.0416C31.2501 40.6303 32.096 37.4647 32.096 37.4647C32.096 37.4647 34.6877 37.5882 35.727 37.0562C37.7253 36.1948 40.099 33.044 40.0744 28.5327C40.0178 24.4701 39.1638 20.4586 37.5614 16.7282C36.1155 12.9713 27.1437 9.45974 20.3849 16.0216C20.3849 16.0216 16.7407 19.3684 18.857 24.9306" fill="#FFE7D0"/>
<path d="M8.35557 62.8913C7.3933 59.7931 7.77198 51.6468 7.91132 50.4971C8.05066 49.3475 8.58835 47.0153 11.4358 46.3054C12.6948 45.9875 20.5783 44.7068 22.1782 42.4849" fill="#FFE7D0"/>
<path d="M22.5651 34.0849C22.5651 34.0849 19.9177 32.5746 18.8619 29.4254C17.8062 26.2762 18.857 24.9306 18.857 24.9306C19.7046 23.6607 23.0766 23.3494 23.0766 27.1804" fill="#FFE7D0"/>
<path d="M22.5651 34.0849C22.7668 38.0873 22.8176 39.9237 22.1782 42.4849L22.5651 34.0849Z" fill="#FFE7D0"/>
<path d="M32.5878 43.0416C34.7926 46.1299 41.9217 47.0466 43.1381 47.488C45.1331 48.244 45.4725 50.288 45.502 51.4014C45.5872 54.5736 45.9593 60.0155 44.8462 62.8913H8.35557C7.3933 59.7931 7.77198 51.6468 7.91132 50.4971C8.05066 49.3475 8.58835 47.0153 11.4358 46.3054C12.6948 45.9875 20.5783 44.7068 22.1782 42.4849C22.8176 39.9237 22.7668 38.0873 22.5651 34.0849C22.5651 34.0849 19.9177 32.5746 18.8619 29.4254C17.8062 26.2762 18.857 24.9306 18.857 24.9306C16.7407 19.3684 20.3849 16.0216 20.3849 16.0216C27.1437 9.45974 36.1155 12.9713 37.5614 16.7282C39.1638 20.4586 40.0178 24.4701 40.0744 28.5327C40.099 33.044 37.7253 36.1948 35.727 37.0562C34.6877 37.5882 32.096 37.4647 32.096 37.4647C32.096 37.4647 31.2501 40.6303 32.5878 43.0416Z" fill="#FFE7D0"/>
<path d="M32.096 37.4647C30.9009 37.4284 27.3551 36.2969 26.6502 35.7748M32.096 37.4647C32.096 37.4647 31.2501 40.6303 32.5878 43.0416C34.7926 46.1299 41.9217 47.0466 43.1381 47.488C45.1331 48.244 45.4725 50.288 45.502 51.4014C45.5872 54.5736 45.9593 60.0155 44.8462 62.8912H8.35557C7.3933 59.7931 7.77198 51.6468 7.91132 50.4971C8.05066 49.3475 8.58835 47.0153 11.4358 46.3054C12.6948 45.9875 20.5783 44.7068 22.1782 42.4849C22.8176 39.9237 22.7668 38.0873 22.5651 34.0849C22.5651 34.0849 19.9177 32.5746 18.8619 29.4254C17.8062 26.2762 18.857 24.9306 18.857 24.9306M32.096 37.4647C32.096 37.4647 34.6877 37.5882 35.727 37.0562C37.7253 36.1948 40.099 33.044 40.0744 28.5327C40.0178 24.4701 39.1638 20.4586 37.5614 16.7282C36.1155 12.9713 27.1437 9.45974 20.3849 16.0216C20.3849 16.0216 16.7407 19.3684 18.857 24.9306M18.857 24.9306C19.7046 23.6607 23.0766 23.3494 23.0766 27.1804" stroke="#373743" stroke-width="0.5" stroke-linecap="round" stroke-linejoin="round"/>
<path opacity="0.4" d="M32.0582 37.3379C31.8995 38.4588 31.6536 40.1059 32.0582 41.4235C30.5583 41.0661 26.324 38.1252 26.324 35.7369C28.1766 36.464 30.0979 37.0004 32.0582 37.3379Z" fill="#373743"/>
<path d="M20.7892 25.8588C20.1499 26.0334 19.7138 27.0035 20.222 28.0494" stroke="#373743" stroke-width="0.5" stroke-linecap="round"/>
<path d="M7.76879 49.0149C7.62879 50.1645 7.24832 58.3109 8.21515 61.409H44.8786C45.997 58.5332 45.6231 53.0913 45.5374 49.9191C45.5078 48.8057 45.1669 46.7617 43.1624 46.0057C42.0433 45.6015 36.3177 44.8824 33.353 42.4942L27.5059 45.2942L21.3295 41.8353C18.6652 43.4912 12.4005 44.549 11.31 44.8231C8.44903 45.533 7.90879 47.8652 7.76879 49.0149Z" fill="#E76158" stroke="#373743" stroke-width="0.5" stroke-linecap="round" stroke-linejoin="round"/>
<path d="M25.06 45.1031C22.26 44.3339 21.3986 43.0673 20.7299 42.0923C20.9588 41.0777 21.0824 39.6941 22.3177 39.1177C20.1765 40.2706 22.316 41.0596 26.2212 41.8683L25.06 45.1031Z" fill="#373743"/>
<path d="M30.375 44.6946C33.175 43.9254 33.0252 43.4758 33.4106 42.9685C33.4106 41.7579 33.3216 40.1422 32.1028 39.6629C33.903 40.5918 32.8654 41.4087 29.0409 41.8683L30.375 44.6946Z" fill="#373743"/>
<path d="M25.06 45.1031C22.26 44.3339 21.3986 43.0673 20.7299 42.0923C20.9588 41.0777 21.0824 39.6941 22.3177 39.1177C20.1765 40.2706 22.316 41.0596 26.2212 41.8683L25.06 45.1031Z" stroke="#373743" stroke-width="0.5" stroke-linecap="round" stroke-linejoin="round"/>
<path d="M30.375 44.6946C33.175 43.9254 33.0252 43.4758 33.4106 42.9685C33.4106 41.7579 33.3216 40.1422 32.1028 39.6629C33.903 40.5918 32.8654 41.4087 29.0409 41.8683L30.375 44.6946Z" stroke="#373743" stroke-width="0.5" stroke-linecap="round" stroke-linejoin="round"/>
<path d="M22.8119 40.7647L22.5648 39.0353C22.1502 39.0667 21.4119 39.5717 21.4119 40.0235C21.4119 40.4753 22.4249 40.7333 22.8119 40.7647Z" fill="#373743"/>
<path d="M31.5413 41.2588L31.8707 39.6941C32.2853 39.7255 32.9413 39.9835 32.9413 40.4353C32.9413 40.887 31.9282 41.2274 31.5413 41.2588Z" fill="#373743"/>
<g opacity="0.2">
<path d="M28.7413 41.8353L30.1412 44.1281L28.8467 44.6798L28.0692 44.9944L28.7413 41.8353Z" fill="#373743"/>
<path d="M26.5177 41.8353L27.1766 44.9647L25.905 44.3718L25.3038 44.0424L26.5177 41.8353Z" fill="#373743"/>
</g>
<path d="M38.2559 19.0058C36.6193 19.9427 30.3483 20.5754 28.4551 20.3597C27.569 20.2583 25.8559 20.0924 24.82 19.9765C24.7882 19.9778 24.7575 19.9887 24.7319 20.0078C24.7062 20.0269 24.6869 20.0533 24.6762 20.0836C24.6656 20.1139 24.6642 20.1468 24.6722 20.1779C24.6802 20.209 24.6973 20.237 24.7212 20.2583C29.1467 23.2092 23.4558 30.0271 23.1594 26.2455C22.5825 23.1351 19.8909 24.2621 19.5722 24.4569C19.1882 24.6995 18.8665 25.0305 18.6335 25.4228C18.3451 25.8881 18.1937 28.3754 19.6726 30.9222C19.6897 30.9545 19.6953 30.9917 19.6887 31.0277C19.682 31.0637 19.6634 31.0964 19.6359 31.1202L19.1036 31.542C19.0866 31.5545 19.0673 31.5634 19.0468 31.5682C19.0264 31.5731 19.0052 31.5739 18.9844 31.5704C18.9637 31.567 18.9439 31.5594 18.926 31.5482C18.9082 31.537 18.8927 31.5223 18.8805 31.505C11.7522 20.5175 16.8694 18.2829 17.6343 18.0221C17.6611 18.0116 17.6846 17.9939 17.7023 17.9709C17.72 17.948 17.7312 17.9206 17.7347 17.8917C18.0359 14.8152 19.9435 11.2686 24.2399 10.5908C26.5475 10.2028 28.871 10.6182 30.2559 11.1704H30.267C31.9547 11.721 33.2392 10.7502 34.7467 9.28681C34.7675 9.26675 34.792 9.2512 34.8189 9.2411C34.8458 9.231 34.8745 9.22656 34.9032 9.22807C34.9318 9.22958 34.9599 9.237 34.9856 9.24987C35.0113 9.26274 35.0342 9.28079 35.0527 9.30291C35.7045 10.0869 35.671 10.6439 35.4432 11.1253C35.4334 11.1527 35.4311 11.1823 35.4367 11.2109C35.4422 11.2395 35.4554 11.266 35.4747 11.2876C35.494 11.3093 35.5187 11.3252 35.5463 11.3338C35.5739 11.3423 35.6032 11.3432 35.6312 11.3362C37.0001 10.8307 39.9993 11.4312 41.1436 10.6182C41.1654 10.6048 41.1901 10.5968 41.2155 10.595C41.241 10.5932 41.2665 10.5976 41.29 10.6079C41.3134 10.6182 41.334 10.6339 41.3502 10.654C41.3663 10.674 41.3774 10.6976 41.3826 10.7228C41.8623 14.4723 40.5141 17.75 38.2559 19.0058Z" fill="#373743"/>
<path d="M32.8949 25.5508C32.8949 25.6889 33.0068 25.8008 33.1449 25.8008C33.2829 25.8008 33.3949 25.6889 33.3949 25.5508H32.8949ZM35.4308 25.279C35.4308 25.4171 35.5428 25.529 35.6808 25.529C35.8189 25.529 35.9308 25.4171 35.9308 25.279H35.4308ZM28.0878 25.6558C28.2195 25.6974 28.3599 25.6243 28.4015 25.4926C28.443 25.3609 28.3699 25.2205 28.2383 25.179L28.0878 25.6558ZM19.3371 24.1277L19.4445 24.3537L19.4525 24.3495L19.3371 24.1277ZM17.7798 26.7544C17.8051 26.8901 17.9356 26.9797 18.0713 26.9545C18.2071 26.9292 18.2966 26.7987 18.2714 26.663L17.7798 26.7544ZM32.8949 25.4174C32.8949 26.9057 31.859 28.0481 30.6548 28.0481V28.5481C32.201 28.5481 33.3949 27.111 33.3949 25.4174H32.8949ZM30.6548 28.0481C29.4505 28.0481 28.4147 26.9057 28.4147 25.4174H27.9147C27.9147 27.111 29.1085 28.5481 30.6548 28.5481V28.0481ZM28.4147 25.4174C28.4147 23.9291 29.4505 22.7867 30.6548 22.7867V22.2867C29.1085 22.2867 27.9147 23.7238 27.9147 25.4174H28.4147ZM30.6548 22.7867C31.859 22.7867 32.8949 23.9291 32.8949 25.4174H33.3949C33.3949 23.7238 32.201 22.2867 30.6548 22.2867V22.7867ZM40.3881 24.8607C40.3881 26.349 39.3522 27.4914 38.148 27.4914V27.9914C39.6943 27.9914 40.8881 26.5543 40.8881 24.8607H40.3881ZM38.148 27.4914C36.9438 27.4914 35.9079 26.349 35.9079 24.8607H35.4079C35.4079 26.5543 36.6017 27.9914 38.148 27.9914V27.4914ZM35.9079 24.8607C35.9079 23.3724 36.9438 22.23 38.148 22.23V21.73C36.6017 21.73 35.4079 23.1671 35.4079 24.8607H35.9079ZM38.148 22.23C39.3522 22.23 40.3881 23.3724 40.3881 24.8607H40.8881C40.8881 23.1671 39.6943 21.73 38.148 21.73V22.23ZM33.3949 25.5508C33.3949 25.3704 33.4886 25.2226 33.6753 25.1039C33.8675 24.9817 34.14 24.9056 34.428 24.8881C34.7163 24.8706 34.9903 24.9136 35.1815 25.0001C35.3745 25.0875 35.4308 25.189 35.4308 25.279H35.9308C35.9308 24.9104 35.6701 24.6724 35.3877 24.5446C35.1034 24.4159 34.7434 24.368 34.3977 24.389C34.0517 24.41 33.6902 24.5018 33.4069 24.682C33.1181 24.8657 32.8949 25.1548 32.8949 25.5508H33.3949ZM28.163 25.4174C28.2383 25.179 28.2382 25.179 28.2381 25.1789C28.2381 25.1789 28.238 25.1789 28.2378 25.1788C28.2376 25.1788 28.2372 25.1787 28.2368 25.1785C28.2359 25.1782 28.2345 25.1778 28.2328 25.1773C28.2293 25.1762 28.2241 25.1745 28.2173 25.1724C28.2036 25.1682 28.1835 25.1619 28.1573 25.1538C28.1047 25.1376 28.0277 25.114 27.9291 25.0844C27.732 25.0251 27.4487 24.9416 27.1032 24.8444C26.4126 24.65 25.4722 24.4002 24.4747 24.1795C23.4785 23.9591 22.4189 23.7662 21.4918 23.6876C21.0282 23.6482 20.5921 23.637 20.2104 23.6667C19.8323 23.6962 19.4883 23.7672 19.2217 23.906L19.4525 24.3495C19.6329 24.2556 19.9 24.1924 20.2492 24.1652C20.5947 24.1383 21.0018 24.1478 21.4495 24.1858C22.3449 24.2617 23.38 24.4494 24.3667 24.6677C25.3521 24.8857 26.2829 25.1329 26.9677 25.3257C27.31 25.422 27.5905 25.5047 27.7852 25.5632C27.8825 25.5925 27.9584 25.6157 28.0099 25.6316C28.0356 25.6395 28.0552 25.6456 28.0683 25.6497C28.0749 25.6517 28.0798 25.6533 28.0831 25.6543C28.0847 25.6548 28.0859 25.6552 28.0867 25.6555C28.0871 25.6556 28.0874 25.6557 28.0876 25.6557C28.0877 25.6558 28.0877 25.6558 28.0878 25.6558C28.0878 25.6558 28.0878 25.6558 28.163 25.4174ZM19.2297 23.902C18.7081 24.1501 18.2831 24.5645 18.0209 25.0805L18.4667 25.307C18.679 24.8892 19.0229 24.554 19.4444 24.3535L19.2297 23.902ZM18.0209 25.0805C17.7587 25.5965 17.674 26.185 17.7798 26.7544L18.2714 26.663C18.1857 26.2017 18.2544 25.7249 18.4667 25.307L18.0209 25.0805Z" fill="#373743"/>
<path d="M34.7132 26.2625C34.6578 26.136 34.5104 26.0784 34.3839 26.1338C34.2574 26.1892 34.1998 26.3366 34.2552 26.4631L34.7132 26.2625ZM34.7822 30.5108C34.6561 30.5672 34.5996 30.715 34.656 30.8411C34.7123 30.9671 34.8602 31.0236 34.9863 30.9672L34.7822 30.5108ZM27.0523 22.6358C26.9634 22.7414 26.9769 22.8991 27.0825 22.9881C27.1881 23.077 27.3458 23.0636 27.4347 22.958L27.0523 22.6358ZM30.832 21.2487L30.8741 21.0022L30.8724 21.0019L30.832 21.2487ZM31.2842 21.628C31.4137 21.676 31.5576 21.6101 31.6056 21.4806C31.6537 21.3512 31.5877 21.2073 31.4583 21.1592L31.2842 21.628ZM35.0466 21.5831C34.9448 21.6763 34.9378 21.8345 35.031 21.9363C35.1243 22.0381 35.2824 22.0451 35.3842 21.9519L35.0466 21.5831ZM38.5334 20.9884L38.6385 20.7616L38.6382 20.7615L38.5334 20.9884ZM38.8139 21.4466C38.9242 21.5297 39.0809 21.5078 39.1641 21.3976C39.2472 21.2873 39.2253 21.1306 39.1151 21.0474L38.8139 21.4466ZM34.4842 26.3628C34.2552 26.4631 34.2552 26.4631 34.2553 26.4631C34.2553 26.4631 34.2553 26.4632 34.2553 26.4632C34.2553 26.4633 34.2554 26.4635 34.2555 26.4636C34.2556 26.464 34.2559 26.4646 34.2562 26.4653C34.2569 26.4668 34.2579 26.4691 34.2592 26.4721C34.2618 26.4781 34.2657 26.487 34.2708 26.4987C34.281 26.5221 34.296 26.5564 34.315 26.6003C34.3531 26.688 34.4076 26.8139 34.473 26.966C34.6039 27.2704 34.7782 27.6799 34.9524 28.1006C35.1268 28.5217 35.3003 28.9521 35.4299 29.2991C35.4947 29.4729 35.5476 29.623 35.5838 29.7392C35.602 29.7975 35.6151 29.8444 35.6235 29.88C35.6329 29.9205 35.6326 29.9311 35.6326 29.9237H36.1326C36.1326 29.8702 36.1212 29.8127 36.1102 29.7658C36.0981 29.7141 36.0812 29.6547 36.0611 29.5904C36.0209 29.4614 35.9645 29.3016 35.8983 29.1242C35.7656 28.769 35.5895 28.3322 35.4144 27.9092C35.239 27.4858 35.0638 27.0742 34.9324 26.7686C34.8667 26.6157 34.812 26.4893 34.7736 26.401C34.7544 26.3569 34.7394 26.3223 34.7291 26.2987C34.7239 26.2869 34.72 26.2779 34.7173 26.2718C34.716 26.2687 34.715 26.2664 34.7143 26.2649C34.7139 26.2641 34.7137 26.2635 34.7135 26.2631C34.7134 26.2629 34.7133 26.2627 34.7133 26.2626C34.7133 26.2626 34.7133 26.2625 34.7132 26.2625C34.7132 26.2625 34.7132 26.2625 34.4842 26.3628ZM35.6326 29.9237C35.6326 29.9105 35.6344 29.9452 35.5497 30.0301C35.475 30.1049 35.3679 30.1838 35.2498 30.2584C35.1337 30.3318 35.0162 30.3953 34.9269 30.4407C34.8825 30.4633 34.8456 30.4811 34.8201 30.4932C34.8074 30.4992 34.7976 30.5038 34.7911 30.5067C34.7878 30.5082 34.7854 30.5093 34.7839 30.51C34.7832 30.5104 34.7826 30.5106 34.7823 30.5107C34.7822 30.5108 34.7821 30.5108 34.7821 30.5108C34.7821 30.5108 34.7821 30.5108 34.7821 30.5108C34.7821 30.5108 34.7821 30.5108 34.7821 30.5108C34.7821 30.5108 34.7822 30.5108 34.8842 30.739C34.9863 30.9672 34.9863 30.9672 34.9863 30.9672C34.9864 30.9672 34.9864 30.9672 34.9864 30.9672C34.9865 30.9671 34.9866 30.9671 34.9867 30.967C34.9869 30.9669 34.9872 30.9668 34.9875 30.9667C34.9882 30.9664 34.9891 30.966 34.9903 30.9654C34.9925 30.9644 34.9957 30.963 34.9998 30.9611C35.0079 30.9574 35.0195 30.952 35.0341 30.9451C35.0632 30.9313 35.1044 30.9114 35.1536 30.8863C35.2514 30.8366 35.3835 30.7654 35.5169 30.6811C35.6485 30.598 35.7909 30.4961 35.9035 30.3834C36.0059 30.2808 36.1326 30.1214 36.1326 29.9237H35.6326ZM27.4347 22.958C28.3334 21.8912 29.6235 21.304 30.7915 21.4954L30.8724 21.0019C29.4864 20.7749 28.0323 21.4725 27.0523 22.6358L27.4347 22.958ZM30.7898 21.4951C30.9583 21.5239 31.1239 21.5684 31.2842 21.628L31.4583 21.1592C31.2688 21.0889 31.0733 21.0363 30.8741 21.0022L30.7898 21.4951ZM35.3842 21.9519C36.3338 21.0826 37.5051 20.7886 38.4285 21.2154L38.6382 20.7615C37.4732 20.223 36.0904 20.6275 35.0466 21.5831L35.3842 21.9519ZM38.4282 21.2152C38.5645 21.2784 38.6938 21.356 38.8139 21.4466L39.1151 21.0474C38.9667 20.9355 38.807 20.8397 38.6385 20.7616L38.4282 21.2152Z" fill="#373743"/>
<path d="M31.6697 32.6301C32.1585 33.7733 33.8497 34.0479 34.6204 33.9183" stroke="#373743" stroke-width="0.5" stroke-miterlimit="10" stroke-linecap="round"/>
<path d="M30.7645 27.0514C31.2752 27.0514 31.6891 26.4836 31.6891 25.7831C31.6891 25.0827 31.2752 24.5149 30.7645 24.5149C30.2539 24.5149 29.84 25.0827 29.84 25.7831C29.84 26.4836 30.2539 27.0514 30.7645 27.0514Z" fill="#373743"/>
<path d="M31.3727 25.3252C31.1252 24.3831 29.8875 24.2365 28.9924 25.0205" stroke="#373743" stroke-width="0.5" stroke-linecap="round"/>
<path d="M37.9972 26.5935C38.5078 26.5935 38.9218 26.0257 38.9218 25.3252C38.9218 24.6248 38.5078 24.057 37.9972 24.057C37.4866 24.057 37.0726 24.6248 37.0726 25.3252C37.0726 26.0257 37.4866 26.5935 37.9972 26.5935Z" fill="#373743"/>
<path d="M38.6054 24.8673C38.3578 23.9252 37.1202 23.7786 36.2251 24.5626" stroke="#373743" stroke-width="0.5" stroke-linecap="round"/>
</g>
<g filter="url(#filter0_d_1_1979)">
<ellipse cx="48" cy="8" rx="4" ry="4" fill="#F15223"/>
<path d="M48 13C50.7614 13 53 10.7614 53 8C53 5.23858 50.7614 3 48 3C45.2386 3 43 5.23858 43 8C43 10.7614 45.2386 13 48 13Z" stroke="#373743" stroke-width="2"/>
</g>
<defs>
<filter id="filter0_d_1_1979" x="38" y="2" width="20" height="20" filterUnits="userSpaceOnUse" color-interpolation-filters="sRGB">
<feFlood flood-opacity="0" result="BackgroundImageFix"/>
<feColorMatrix in="SourceAlpha" type="matrix" values="0 0 0 0 0 0 0 0 0 0 0 0 0 0 0 0 0 0 127 0" result="hardAlpha"/>
<feOffset dy="4"/>
<feGaussianBlur stdDeviation="2"/>
<feComposite in2="hardAlpha" operator="out"/>
<feColorMatrix type="matrix" values="0 0 0 0 0.172222 0 0 0 0 0.172222 0 0 0 0 0.266667 0 0 0 0.08 0"/>
<feBlend mode="normal" in2="BackgroundImageFix" result="effect1_dropShadow_1_1979"/>
<feBlend mode="normal" in="SourceGraphic" in2="effect1_dropShadow_1_1979" result="shape"/>
</filter>
<clipPath id="clip0_1_1979">
<rect width="56" height="56" rx="28" fill="white"/>
</clipPath>
</defs>
</svg>
