<svg width="180" height="90" viewBox="0 0 262 122" fill="none" xmlns="http://www.w3.org/2000/svg">
<path d="M7.99284 73.9319L0 119.885H25.3094C35.2806 119.885 45.0094 116.605 52.8033 110.384C60.1958 104.482 67.6027 96.0984 75.0241 84.4419C76.6914 81.8235 78.1308 79.0748 79.5341 76.308C84.7457 66.0439 97.5668 70.1055 97.2666 78.1236C97.2558 78.4383 97.2341 78.7529 97.2341 79.0676V106.156C97.2341 111.404 99.8345 116.395 104.308 119.144C110.981 123.249 118.54 120.753 127.137 110.565L131.325 104.721C137.705 95.8163 143.857 86.753 150.056 77.7222C156.967 67.657 164.113 68.7239 168.291 78.6842C169.195 80.8434 169.77 83.1291 170.114 85.4438C172.627 102.352 181.434 113.65 197.864 118.164C202.222 119.361 206.732 119.893 211.249 119.893H249.749L261.073 73.9391H205.799C190.566 73.8596 180.045 67.7727 173.886 56.1234C170.62 49.9462 169.159 42.9732 169.394 35.9894L170.226 11.501C170.378 7.04165 166.801 3.3418 162.338 3.3418C159.553 3.3418 156.974 4.81016 155.553 7.20077L130.54 49.2879C120.612 65.6497 109.01 67.3966 102.164 57.552C99.8019 54.1596 98.5759 50.1017 98.4674 45.9678L97.4113 6.38341C97.3173 2.83185 94.4095 0 90.8579 0C88.2756 0 85.9392 1.519 84.8759 3.87345C74.1525 27.606 60.5177 47.3675 45.3024 64.9662C40.0112 71.0856 32.2462 74.4925 24.1593 74.3044L7.99284 73.9319Z" fill="white"/>
</svg>
