<svg width="20" height="20" viewBox="0 0 20 20" fill="none" xmlns="http://www.w3.org/2000/svg">
<g id="Icon / edit">
<path id="primary" d="M17.5 10C17.5 11.4834 17.0601 12.9334 16.236 14.1668C15.4119 15.4001 14.2406 16.3614 12.8701 16.9291C11.4997 17.4968 9.99168 17.6453 8.53683 17.3559C7.08197 17.0665 5.7456 16.3522 4.6967 15.3033C3.64781 14.2544 2.9335 12.918 2.64411 11.4632C2.35472 10.0083 2.50325 8.50032 3.07091 7.12987C3.63856 5.75943 4.59986 4.58809 5.83323 3.76398C7.0666 2.93987 8.51664 2.5 10 2.5" stroke="white" stroke-width="1.5" stroke-linecap="round" stroke-linejoin="round"/>
<path id="primary_2" d="M11.4833 10.875L9.16663 10.8333V8.51668L13.8916 3.75001C14.0464 3.59505 14.2302 3.47212 14.4326 3.38825C14.6349 3.30437 14.8518 3.2612 15.0708 3.2612C15.2898 3.2612 15.5067 3.30437 15.709 3.38825C15.9114 3.47212 16.0952 3.59505 16.25 3.75001C16.4049 3.9048 16.5279 4.08861 16.6117 4.29094C16.6956 4.49327 16.7388 4.71015 16.7388 4.92918C16.7388 5.1482 16.6956 5.36508 16.6117 5.56741C16.5279 5.76974 16.4049 5.95356 16.25 6.10834L11.4833 10.875Z" stroke="white" stroke-width="1.5" stroke-linecap="round" stroke-linejoin="round"/>
</g>
</svg>
