<svg width="24" height="24" viewBox="0 0 24 24" fill="none" xmlns="http://www.w3.org/2000/svg">
<g id="Icon / edit-user">
<path id="primary" d="M13 13H16C17.3261 13 18.5979 13.5268 19.5355 14.4645C20.4732 15.4021 21 16.6739 21 18V19C21 19 19.45 20.63 15 21" stroke="#373743" stroke-width="1.5" stroke-linecap="round" stroke-linejoin="round"/>
<path id="primary_2" d="M13 3C13.9889 3 14.9556 3.29324 15.7779 3.84265C16.6001 4.39206 17.241 5.17295 17.6194 6.08658C17.9978 7.00021 18.0969 8.00555 17.9039 8.97545C17.711 9.94536 17.2348 10.8363 16.5355 11.5355C15.8363 12.2348 14.9454 12.711 13.9755 12.9039C13.0056 13.0969 12.0002 12.9978 11.0866 12.6194C10.173 12.241 9.39207 11.6001 8.84266 10.7779C8.29325 9.95561 8.00001 8.98891 8.00001 8C8.00001 6.67392 8.52679 5.40215 9.46447 4.46447C10.4022 3.52678 11.6739 3 13 3V3ZM3.29001 16.09L8.20001 21H11V18.2L6.09001 13.29C5.90308 13.1068 5.65176 13.0041 5.39001 13.0041C5.12825 13.0041 4.87694 13.1068 4.69001 13.29L3.29001 14.69C3.10678 14.8769 3.00415 15.1282 3.00415 15.39C3.00415 15.6518 3.10678 15.9031 3.29001 16.09V16.09Z" stroke="#373743" stroke-width="1.5" stroke-linecap="round" stroke-linejoin="round"/>
</g>
</svg>
