<svg width="40" height="40" viewBox="0 0 40 40" fill="none" xmlns="http://www.w3.org/2000/svg">
<rect x="2" y="2" width="36" height="36" rx="18" fill="#E80110"/>
<path d="M27.5 20C27.5 21.4834 27.0601 22.9334 26.236 24.1668C25.4119 25.4001 24.2406 26.3614 22.8701 26.9291C21.4997 27.4968 19.9917 27.6453 18.5368 27.3559C17.082 27.0665 15.7456 26.3522 14.6967 25.3033C13.6478 24.2544 12.9335 22.918 12.6441 21.4632C12.3547 20.0083 12.5032 18.5003 13.0709 17.1299C13.6386 15.7594 14.5999 14.5881 15.8332 13.764C17.0666 12.9399 18.5166 12.5 20 12.5" stroke="white" stroke-width="1.5" stroke-linecap="round" stroke-linejoin="round"/>
<path d="M21.4833 20.875L19.1666 20.8334V18.5167L23.8916 13.75C24.0464 13.5951 24.2302 13.4721 24.4326 13.3883C24.6349 13.3044 24.8518 13.2612 25.0708 13.2612C25.2898 13.2612 25.5067 13.3044 25.709 13.3883C25.9114 13.4721 26.0952 13.5951 26.25 13.75C26.4049 13.9048 26.5279 14.0886 26.6117 14.291C26.6956 14.4933 26.7388 14.7102 26.7388 14.9292C26.7388 15.1482 26.6956 15.3651 26.6117 15.5674C26.5279 15.7698 26.4049 15.9536 26.25 16.1084L21.4833 20.875Z" stroke="white" stroke-width="1.5" stroke-linecap="round" stroke-linejoin="round"/>
<rect x="2" y="2" width="36" height="36" rx="18" stroke="white" stroke-width="4"/>
</svg>
