<svg width="24" height="24" viewBox="0 0 24 24" fill="none" xmlns="http://www.w3.org/2000/svg">
<g id="Icon / solid / email">
<path id="Subtract" fill-rule="evenodd" clip-rule="evenodd" d="M3.97101 8.13809L10.971 3.93809C11.6044 3.55807 12.3956 3.55807 13.029 3.93809L20.029 8.13809C20.1253 8.19586 20.2156 8.26102 20.2994 8.33261C20.289 8.34053 20.2786 8.34852 20.2681 8.35659L13.5199 13.5282C12.7868 14.0901 12.5578 14.2515 12.3337 14.3135C12.1139 14.3744 11.8861 14.3744 11.6663 14.3135C11.4422 14.2515 11.2132 14.0901 10.4801 13.5282L3.73193 8.35659C3.7214 8.34852 3.71097 8.34053 3.70064 8.33261C3.78442 8.26102 3.87473 8.19586 3.97101 8.13809ZM3.03046 9.50514C3.01036 9.61892 3 9.73528 3 9.85308V18.4207C3 18.5706 3.01649 18.7167 3.04776 18.8571L8.1472 13.4265L3.03046 9.50514ZM3.78572 20.01C4.12239 20.2676 4.54332 20.4207 5 20.4207H19C19.4567 20.4207 19.8776 20.2676 20.2143 20.01L14.7941 14.2378L14.2811 14.631L14.1847 14.705L14.1847 14.705C13.5917 15.1601 13.1533 15.4966 12.6624 15.6324C12.2271 15.7529 11.7729 15.7529 11.3376 15.6324C10.8467 15.4966 10.4083 15.1601 9.81535 14.705L9.81534 14.705L9.71886 14.631L9.20586 14.2378L3.78572 20.01ZM20.9522 18.8571C20.9835 18.7167 21 18.5706 21 18.4207V9.85308C21 9.73528 20.9896 9.61893 20.9695 9.50515L15.8528 13.4265L20.9522 18.8571Z" fill="#E80110"/>
</g>
</svg>
