<svg width="20" height="20" viewBox="0 0 20 20" fill="none" xmlns="http://www.w3.org/2000/svg">
<g id="Icon / eye-slash">
<path id="Vector" d="M4.02451 7.20223C3.32742 8.02014 2.80834 8.97275 2.5 10C3.46269 13.2133 6.45658 15.5556 10.0004 15.5556C10.7403 15.5556 11.4556 15.4533 12.1336 15.263M5.69954 5.72445C6.97565 4.88727 8.47144 4.4421 10.0004 4.44445C13.5442 4.44445 16.5373 6.78668 17.5 9.99853C16.9724 11.7536 15.8399 13.2678 14.3012 14.2756M5.69954 5.72445L3.2943 3.33334M5.69954 5.72445L8.41923 8.42816M14.3012 14.2756L16.7064 16.6667M14.3012 14.2756L11.5815 11.5719M11.5815 11.5719C11.7891 11.3655 11.9538 11.1205 12.0661 10.8509C12.1785 10.5812 12.2363 10.2922 12.2363 10.0004C12.2363 9.70853 12.1785 9.41954 12.0661 9.1499C11.9538 8.88027 11.7891 8.63527 11.5815 8.4289C11.3739 8.22253 11.1275 8.05883 10.8563 7.94714C10.585 7.83545 10.2943 7.77797 10.0007 7.77797C9.70717 7.77797 9.41647 7.83545 9.14524 7.94714C8.87401 8.05883 8.62756 8.22253 8.41997 8.4289M11.5808 11.5711L8.42072 8.42964" stroke="#373743" stroke-width="1.5" stroke-linecap="round" stroke-linejoin="round"/>
</g>
</svg>
