<svg width="21" height="18" viewBox="0 0 21 18" fill="none" xmlns="http://www.w3.org/2000/svg">
<path d="M17.9026 2.38797C17.4627 1.94794 16.9405 1.59888 16.3658 1.36073C15.791 1.12258 15.175 1 14.5528 1C13.9307 1 13.3146 1.12258 12.7399 1.36073C12.1651 1.59888 11.6429 1.94794 11.2031 2.38797L10.2903 3.30075L9.37751 2.38797C8.48911 1.49956 7.28417 1.00046 6.02777 1.00046C4.77138 1.00046 3.56644 1.49956 2.67804 2.38797C1.78963 3.27637 1.29053 4.48131 1.29053 5.73771C1.29053 6.9941 1.78963 8.19904 2.67804 9.08745L3.59082 10.0002L10.2903 16.6997L16.9898 10.0002L17.9026 9.08745C18.3426 8.64763 18.6916 8.12542 18.9298 7.55066C19.1679 6.9759 19.2905 6.35985 19.2905 5.73771C19.2905 5.11556 19.1679 4.49951 18.9298 3.92475C18.6916 3.34999 18.3426 2.82779 17.9026 2.38797Z" fill="#E80110" stroke="#E80110" stroke-width="2" stroke-linecap="round" stroke-linejoin="round"/>
</svg>
