<svg width="30" height="24" viewBox="0 0 30 24" fill="none" xmlns="http://www.w3.org/2000/svg">
<rect x="11.3143" y="11.7144" width="8.15203" height="0.571429" rx="0.285714" fill="white" stroke="#E80110" stroke-width="0.571429"/>
<path fill-rule="evenodd" clip-rule="evenodd" d="M4.73059 3.14036C5.87255 2.16791 7.52214 1.677 9.57127 1.677H20.5276C22.5711 1.677 24.2232 2.168 25.3692 3.13994C26.5233 4.1186 27.1215 5.54868 27.1215 7.33011V16.6701C27.1215 18.4415 26.5263 19.8712 25.3758 20.8522C24.2328 21.8269 22.5836 22.3232 20.5393 22.3232H9.57127C7.52137 22.3232 5.87191 21.827 4.73026 20.8521C3.58106 19.8708 2.98907 18.441 2.98907 16.6701V7.33011C2.98907 5.54972 3.58078 4.1195 4.73059 3.14036ZM5.14956 3.63237C4.17093 4.46573 3.6353 5.70051 3.6353 7.33011V16.6701C3.6353 18.2893 4.17066 19.5245 5.1499 20.3606C6.13669 21.2033 7.61677 21.677 9.57127 21.677H20.5393C22.4878 21.677 23.9681 21.2034 24.9565 20.3605C25.9374 19.5241 26.4753 18.2888 26.4753 16.6701V7.33011C26.4753 5.70155 25.9345 4.46663 24.9513 3.63279C23.9601 2.79223 22.4768 2.32323 20.5276 2.32323H9.57127C7.61599 2.32323 6.13604 2.79232 5.14956 3.63237Z" fill="#969AA8"/>
</svg>
