<svg width="96" height="55" viewBox="0 0 96 55" fill="none" xmlns="http://www.w3.org/2000/svg">
<path d="M2.93907 22.9115L0 37.1525H9.30663C12.9732 37.1525 16.5506 36.1359 19.4165 34.2081C22.1348 32.379 24.8584 29.7809 27.5874 26.1686C28.2005 25.3571 28.7298 24.5053 29.2458 23.6479C31.1622 20.467 35.8767 21.7257 35.7663 24.2105C35.7623 24.308 35.7543 24.4056 35.7543 24.5031V32.8979C35.7543 34.5242 36.7105 36.0709 38.3556 36.9227C40.8092 38.1948 43.5887 37.4215 46.7499 34.2642L48.2899 32.4529C50.6359 29.6935 52.898 26.8848 55.1775 24.0861C57.7189 20.9669 60.3468 21.2976 61.8828 24.3843C62.2153 25.0534 62.4267 25.7617 62.5531 26.479C63.4774 31.7188 66.7157 35.2202 72.7574 36.619C74.3599 36.99 76.0183 37.1547 77.6793 37.1547H91.8361L96 22.9138H75.6752C70.0736 22.8891 66.205 21.0028 63.9402 17.3927C62.7393 15.4783 62.202 13.3174 62.2884 11.1531L62.5943 3.56416C62.6502 2.18221 61.3349 1.03562 59.6938 1.03562C58.6698 1.03562 57.7215 1.49067 57.1989 2.23152L48.0013 15.2743C44.3508 20.3449 40.0844 20.8862 37.567 17.8354C36.6985 16.7841 36.2477 15.5265 36.2078 14.2454L35.8195 1.97822C35.7849 0.877591 34.7157 0 33.4097 0C32.4602 0 31.601 0.470738 31.21 1.20038C27.2669 8.55511 22.2532 14.6792 16.6583 20.133C14.7127 22.0294 11.8574 23.0852 8.88372 23.027L2.93907 22.9115Z" fill="white"/>
<path d="M12.2563 51.2309C12.4212 50.5484 12.5795 49.8848 12.7418 49.2213C13.0157 48.0994 13.2923 46.9786 13.5676 45.8567C13.5729 45.8354 13.5756 45.813 13.5809 45.7905C13.7312 45.0945 13.3322 44.6944 12.4957 44.7034C11.747 44.7112 11.1898 45.0912 11.0342 45.7166C10.6857 47.1209 10.3413 48.5253 10.0048 49.9319C9.89444 50.3948 9.60585 50.7546 9.16832 51.0281C8.99543 51.1357 8.76935 51.2376 8.56188 51.2444C7.79852 51.2702 7.03383 51.2545 6.23057 51.2545C6.25451 51.1177 6.26914 51.0012 6.29707 50.8868C6.70136 49.2314 7.10565 47.576 7.51127 45.9205C7.54318 45.7894 7.57909 45.6594 7.59904 45.5271C7.66021 45.1169 7.40221 44.793 6.92478 44.7123C6.37021 44.6193 5.84889 44.7056 5.37146 44.9679C5.1108 45.1113 4.9818 45.3187 4.92195 45.5709C4.66129 46.6603 4.39265 47.7497 4.12933 48.8391C4.04555 49.1877 3.98836 49.5419 3.88064 49.8848C3.80351 50.1292 3.69047 50.3735 3.54285 50.5921C3.24096 51.0382 2.79811 51.2915 2.15045 51.2634C1.58391 51.2388 1.01471 51.2578 0.446848 51.2578C0.316518 51.2578 0.187518 51.2578 0.0146312 51.2578C0.101075 50.8969 0.178206 50.573 0.25667 50.2502C0.706175 48.3986 1.16632 46.5482 1.59721 44.6933C1.69961 44.2494 1.94963 43.9659 2.45898 43.8358C3.27953 43.6274 4.09476 43.4021 4.91929 43.2071C5.34619 43.1062 5.54966 43.2732 5.51509 43.6431C5.50179 43.7865 5.46854 43.9311 5.47652 44.0746C5.49913 44.4501 5.72521 44.5733 6.13349 44.4355C6.27978 44.3862 6.41144 44.3077 6.5564 44.2528C7.34768 43.949 8.13632 43.6375 8.93692 43.3517C9.36647 43.1981 9.82928 43.1578 10.2974 43.1779C10.9052 43.2048 11.2164 43.4492 11.2882 43.9502C11.2895 43.9614 11.2908 43.9726 11.2922 43.9838C11.3174 44.589 11.7058 44.5487 12.1313 44.3806C12.4891 44.2382 12.8309 44.069 13.1793 43.9098C13.5397 43.7462 13.8934 43.5736 14.2592 43.4189C14.964 43.1208 15.7088 43.0939 16.4601 43.2452C17.2142 43.3965 17.5786 43.8101 17.5214 44.4613C17.4895 44.8143 17.3831 45.1618 17.2993 45.5103C16.9323 47.0133 16.5652 48.5163 16.1915 50.0182C15.9654 50.9238 15.5066 51.2421 14.4121 51.2556C13.7511 51.2634 13.0915 51.2578 12.4306 51.2567C12.388 51.2556 12.3494 51.2444 12.2563 51.2309Z" fill="white"/>
<path d="M76.0303 43.0591C76.8149 43.1409 77.5995 43.2228 78.3842 43.3079C78.4879 43.3191 78.5903 43.3472 78.6887 43.3763C79.1396 43.5119 79.3231 43.735 79.2805 44.1396C79.2539 44.394 79.1901 44.6451 79.1316 44.8961C78.7393 46.611 78.3456 48.3247 77.9466 50.0384C77.8855 50.2995 77.8097 50.5596 77.7259 50.8173C77.3681 51.918 76.6074 52.7687 75.4704 53.3862C74.7669 53.7684 74.0088 54.0542 73.2228 54.2885C72.3026 54.5631 71.3876 54.8534 70.4114 54.9621C69.7345 55.0372 69.0643 55.0114 68.4246 54.7872C67.6732 54.525 67.1372 54.0901 66.9776 53.393C66.8606 52.8864 67.1545 52.5568 67.757 52.4661C68.5363 52.3484 69.3129 52.2195 70.0909 52.0962C70.2213 52.076 70.3503 52.0525 70.4806 52.039C70.7958 52.0065 70.8982 52.0783 70.8969 52.3394C70.8955 52.4616 70.8689 52.5826 70.8583 52.7048C70.8277 53.0601 70.9035 53.3941 71.1721 53.6788C71.4887 54.0128 71.9515 54.0901 72.3651 53.8458C72.5872 53.7146 72.7946 53.5409 72.9396 53.3492C73.4915 52.6129 73.7681 51.7913 73.8904 50.9317C73.9037 50.8353 73.8811 50.731 73.8506 50.6358C73.7854 50.4374 73.659 50.3589 73.4117 50.3825C73.2574 50.397 73.0992 50.4363 72.9609 50.4957C72.7148 50.601 72.4808 50.7277 72.244 50.8487C71.599 51.1771 70.9088 51.3228 70.1588 51.2096C68.9246 51.0247 68.116 50.2973 67.9684 49.2505C67.8208 48.2036 68.1081 47.233 68.7517 46.3442C69.8582 44.8154 71.5033 43.8829 73.5154 43.3853C74.3333 43.1835 75.1725 43.0939 76.0303 43.0591ZM71.5259 48.9534C71.5153 49.7526 71.9821 50.1449 72.7747 50.1337C73.538 50.1224 74.2455 49.7077 74.4876 49.0846C74.6844 48.5791 74.8626 48.0635 74.985 47.5424C75.2004 46.6166 75.3932 45.6852 75.5435 44.7504C75.6632 44.0084 75.0116 43.54 74.1418 43.6879C73.5487 43.7888 73.1231 44.0869 72.792 44.496C72.5499 44.7953 72.4183 45.1337 72.3305 45.4823C72.135 46.2646 71.9488 47.0492 71.7653 47.8349C71.6695 48.2473 71.5884 48.6643 71.5259 48.9534Z" fill="white"/>
<path d="M50.6758 51.2276C50.6944 51.1132 50.705 51.0056 50.7303 50.9003C51.1226 49.265 51.5163 47.6309 51.9086 45.9968C51.9352 45.888 51.9578 45.7782 51.9804 45.6684C52.1227 44.9735 51.5841 44.4646 50.7462 44.5117C50.2928 44.5375 49.9124 44.7067 49.5906 44.9735C49.1743 45.3187 48.9043 45.7412 48.7727 46.212C48.5426 47.0335 48.3444 47.8629 48.1423 48.6901C48.012 49.2236 47.9069 49.7615 47.7752 50.295C47.617 50.9294 47.2699 51.2096 46.5065 51.2376C45.6647 51.269 44.8189 51.2444 43.9425 51.2444C43.9531 51.1368 43.9531 51.0404 43.9744 50.9474C44.4385 49.0185 44.916 47.0918 45.3641 45.1606C45.5064 44.5476 45.8708 44.1161 46.5584 43.8952C47.2606 43.67 47.9707 43.4637 48.6809 43.2541C48.7913 43.2216 48.9136 43.206 49.0307 43.2015C49.2129 43.1936 49.3459 43.2642 49.3578 43.4267C49.3685 43.5803 49.3445 43.7361 49.3432 43.8908C49.3379 44.2248 49.5241 44.3828 49.9177 44.3884C50.2329 44.3929 50.5029 44.283 50.7795 44.171C51.4325 43.9053 52.0828 43.6307 52.7544 43.4043C53.4778 43.16 54.2306 43.1746 54.966 43.3842C55.6735 43.5859 56.0153 44.0409 55.885 44.6529C55.5113 46.4148 55.1229 48.1756 54.7186 49.933C54.6548 50.211 54.5125 50.4856 54.3543 50.7378C54.1348 51.0886 53.7691 51.2623 53.2824 51.2567C52.4764 51.2477 51.6705 51.2545 50.8646 51.2522C50.8114 51.2522 50.7609 51.2399 50.6758 51.2276Z" fill="white"/>
<path d="M64.2833 51.2791C63.9295 51.2444 63.5731 51.2276 63.226 51.1715C62.9095 51.12 62.694 50.9787 62.6448 50.6649C62.5757 50.2289 62.2991 50.1258 61.8296 50.3242C61.6886 50.3836 61.557 50.4598 61.424 50.5327C60.7138 50.9193 59.9412 51.1693 59.0967 51.2242C57.6737 51.3183 56.514 50.7445 56.2374 49.3984C56.0672 48.5701 56.2015 47.771 56.6244 47.0234C57.7415 45.0474 59.5502 43.7563 62.1049 43.2878C62.8323 43.1544 63.5997 43.1611 64.3498 43.1421C64.9948 43.1253 65.6424 43.1589 66.2888 43.1824C66.5241 43.1914 66.7635 43.2172 66.9936 43.2631C67.6413 43.3931 67.89 43.7126 67.7836 44.2696C67.7184 44.6092 67.6413 44.9477 67.5601 45.2862C67.1957 46.8217 66.8314 48.3583 66.4563 49.8927C66.3951 50.1415 66.2887 50.3836 66.177 50.6201C66.0281 50.9317 65.7382 51.1222 65.3485 51.1782C64.9988 51.2276 64.6423 51.2466 64.2833 51.2791ZM64.0106 44.8065C63.992 44.6619 63.9867 44.5834 63.9721 44.5072C63.8271 43.7383 63.1156 43.3931 62.2538 43.6834C61.5636 43.9165 61.1381 44.3637 60.9825 44.9611C60.63 46.3184 60.3069 47.6802 59.989 49.0442C59.888 49.4757 60.1566 49.8344 60.6447 49.9992C61.0144 50.1247 61.3961 50.1213 61.7711 50.0283C62.315 49.8927 62.6954 49.6091 62.8337 49.1283C63.1502 48.0265 63.4707 46.9259 63.7792 45.823C63.879 45.4666 63.9441 45.1046 64.0106 44.8065Z" fill="white"/>
<path d="M87.3025 51.278C86.97 51.2466 86.6269 51.2264 86.2904 51.1782C85.934 51.1278 85.7039 50.9731 85.6587 50.6324C85.6082 50.2513 85.3449 50.1415 84.9286 50.2962C84.773 50.3545 84.6281 50.4352 84.4844 50.5136C83.7849 50.8924 83.0308 51.1446 82.1997 51.2164C80.7487 51.3419 79.4454 50.7647 79.2327 49.2303C79.1276 48.4704 79.2473 47.734 79.6329 47.047C80.7461 45.0665 82.5481 43.7663 85.1055 43.2945C85.8449 43.1578 86.6269 43.1622 87.3903 43.1409C88.0233 43.123 88.659 43.1555 89.292 43.1813C89.554 43.1914 89.82 43.2216 90.0727 43.2788C90.6618 43.4111 90.8812 43.6778 90.8054 44.1889C90.7456 44.5969 90.6498 45.0015 90.5554 45.405C90.215 46.8564 89.8732 48.3067 89.5194 49.7559C89.4529 50.0272 89.3439 50.2917 89.2308 50.5517C89.0739 50.9171 88.7547 51.1345 88.2959 51.1883C87.9714 51.2276 87.6429 51.2489 87.3025 51.278ZM87.0445 44.7919C86.9979 44.5857 86.9806 44.394 86.9102 44.218C86.7306 43.7697 86.2133 43.5198 85.6587 43.5949C85.2837 43.6453 84.9565 43.7809 84.6759 43.9972C84.3142 44.2763 84.0815 44.6215 83.9777 45.0228C83.6399 46.3364 83.3021 47.65 82.979 48.9669C82.8407 49.5318 83.2343 49.9689 83.9245 50.063C84.9087 50.1964 85.6414 49.8176 85.8941 49.0005C86.2066 47.9896 86.4859 46.973 86.7692 45.9553C86.8782 45.5652 86.9567 45.1707 87.0445 44.7919Z" fill="white"/>
<path d="M25.5088 43.1578C26.1192 43.1555 26.7216 43.1992 27.3055 43.3662C28.5037 43.7081 29.1553 44.4231 29.3482 45.4599C29.5144 46.3521 29.3043 47.1938 28.8122 47.9772C27.755 49.6629 26.0833 50.6873 23.8916 51.1088C22.7758 51.3228 21.6454 51.3822 20.5123 51.185C20.2676 51.1424 20.0229 51.0897 19.7889 51.018C18.6731 50.6772 18.048 50.016 17.9576 49.0061C17.7701 46.9102 18.7063 45.2951 20.8634 44.2147C22.2904 43.5007 23.857 43.1891 25.5088 43.1578ZM21.4885 49.2796C21.4885 49.3256 21.4885 49.3704 21.4885 49.4152C21.4858 50.1281 21.9633 50.5629 22.8038 50.6134C23.7839 50.6728 24.5366 50.2569 24.7866 49.45C25.0486 48.6015 25.2681 47.743 25.4662 46.8822C25.6112 46.2501 25.7176 45.6101 25.7934 44.9701C25.8559 44.4467 25.55 44.1082 24.9582 43.9345C24.0033 43.6543 22.6934 44.0645 22.4367 45.0968C22.305 45.6291 22.1375 46.1559 21.9952 46.6861C21.7664 47.5435 21.551 48.402 21.4885 49.2796Z" fill="white"/>
<path d="M29.4905 51.2376C29.5623 50.9216 29.6248 50.6291 29.6953 50.3376C30.0849 48.7136 30.472 47.0896 30.8736 45.4677C30.9507 45.1539 31.0731 44.8457 31.1967 44.542C31.3124 44.2573 31.5385 44.0309 31.8683 43.9132C32.4867 43.6924 33.1091 43.4783 33.7435 43.2956C33.9842 43.2261 34.2648 43.2272 34.5241 43.2385C34.8314 43.2519 34.9643 43.3943 34.9683 43.6554C34.971 43.8224 34.9431 43.9894 34.9564 44.1553C34.979 44.4512 35.1386 44.5319 35.4538 44.4019C35.6306 44.329 35.7915 44.2292 35.9551 44.1362C36.3594 43.9053 36.7557 43.6644 37.1653 43.4402C37.3289 43.3505 37.5138 43.2799 37.6986 43.2261C38.0311 43.1309 38.2332 43.2396 38.2931 43.5321C38.3104 43.6195 38.3144 43.7103 38.309 43.7989C38.2798 44.3783 38.188 44.9511 37.9806 45.5059C37.9181 45.6729 37.8263 45.8398 37.7093 45.9844C37.5271 46.2086 37.2864 46.2433 37.0244 46.0864C36.8541 45.9844 36.7118 45.8488 36.5629 45.7233C36.3049 45.507 36.0203 45.3332 35.6453 45.2985C35.0441 45.2425 34.576 45.5182 34.4244 46.0416C34.3247 46.3868 34.2662 46.741 34.1797 47.0884C33.947 48.0243 33.7169 48.9602 33.4682 49.8927C33.3991 50.1505 33.282 50.4027 33.1583 50.647C32.9841 50.9922 32.6517 51.2164 32.2168 51.2298C31.3244 51.2578 30.4281 51.2376 29.4905 51.2376Z" fill="white"/>
<path d="M38.1494 51.232C38.2346 50.8801 38.3157 50.545 38.3981 50.2087C38.7944 48.5746 39.1961 46.9416 39.5817 45.3063C39.7121 44.7527 40.0446 44.3335 40.6483 44.0992C41.4263 43.7977 42.2189 43.5231 43.0076 43.2418C43.102 43.2082 43.211 43.1903 43.3148 43.1869C43.598 43.1768 43.7749 43.3023 43.7723 43.5422C43.7709 43.7294 43.7284 43.9177 43.6845 44.1026C43.2177 46.0416 42.7482 47.9817 42.2721 49.9185C42.2216 50.1225 42.1391 50.3287 42.0261 50.5136C41.7295 50.9978 41.2561 51.2612 40.5938 51.2589C39.881 51.2567 39.1668 51.2601 38.454 51.2578C38.3636 51.2567 38.2731 51.2421 38.1494 51.232Z" fill="white"/>
<path d="M40.2879 42.3149C40.3438 42.093 40.4209 41.7433 40.5207 41.3992C40.5951 41.1403 40.7853 40.9352 41.0579 40.8041C41.296 40.6886 41.546 40.5788 41.8067 40.5093C42.4836 40.3266 43.1658 40.1574 43.8521 40.0005C44.4558 39.8626 44.6394 40.0094 44.5356 40.5295C44.4798 40.8142 44.4053 41.0966 44.3308 41.3779C44.2537 41.666 44.0489 41.8767 43.739 42.0112C43.5635 42.0874 43.3853 42.1647 43.1991 42.214C42.5208 42.3934 41.8399 42.5637 41.1577 42.7319C41.0194 42.7655 40.8731 42.7823 40.7295 42.7935C40.3664 42.8215 40.2706 42.7431 40.2879 42.3149Z" fill="white"/>
</svg>
