<svg width="180" height="35" viewBox="0 0 247 50" fill="none" xmlns="http://www.w3.org/2000/svg">
<path d="M33.3312 37.3142C33.7797 35.1117 34.2101 32.9706 34.6513 30.8295C35.3963 27.2093 36.1486 23.5926 36.8972 19.9723C36.9117 19.9036 36.9189 19.8313 36.9334 19.7589C37.3421 17.513 36.2571 16.2218 33.9822 16.2508C31.946 16.2761 30.4306 17.5021 30.0075 19.5202C29.0599 24.0519 28.1232 28.5836 27.2082 33.1225C26.908 34.6162 26.1232 35.7771 24.9333 36.6596C24.4631 37.0068 23.8483 37.3359 23.2841 37.3576C21.2081 37.4408 19.1286 37.3902 16.9441 37.3902C17.0092 36.949 17.049 36.5728 17.1249 36.2039C18.2244 30.8621 19.3239 25.5203 20.4269 20.1785C20.5137 19.7553 20.6114 19.3358 20.6656 18.909C20.832 17.5853 20.1304 16.5401 18.832 16.2797C17.3238 15.9795 15.9061 16.258 14.6077 17.1043C13.8989 17.5672 13.548 18.2363 13.3853 19.0501C12.6764 22.5655 11.9459 26.0809 11.2298 29.5963C11.0019 30.7211 10.8464 31.8639 10.5534 32.9706C10.3437 33.759 10.0363 34.5475 9.63481 35.2527C8.81383 36.6922 7.60948 37.5095 5.84816 37.4191C4.30746 37.3396 2.75953 37.401 1.21521 37.401C0.860778 37.401 0.509962 37.401 0.0397949 37.401C0.274878 36.2365 0.484637 35.1912 0.69802 34.1496C1.92045 28.1749 3.17183 22.2038 4.34363 16.2182C4.62211 14.786 5.30204 13.871 6.68722 13.4515C8.9187 12.7788 11.1357 12.0518 13.3781 11.4225C14.539 11.097 15.0924 11.6359 14.9983 12.8294C14.9622 13.2923 14.8717 13.7589 14.8934 14.2218C14.9549 15.4334 15.5698 15.8312 16.6801 15.3864C17.0779 15.2272 17.436 14.9741 17.8302 14.7969C19.9821 13.8167 22.1268 12.8113 24.304 11.8891C25.4722 11.3936 26.7308 11.2634 28.0039 11.3285C29.6567 11.4153 30.503 12.2037 30.6983 13.8204C30.7019 13.8565 30.7055 13.8927 30.7091 13.9289C30.7778 15.8819 31.8339 15.7517 32.9912 15.2092C33.9641 14.7498 34.8936 14.2037 35.8412 13.6902C36.8213 13.1621 37.7833 12.6052 38.7779 12.1061C40.6947 11.144 42.7201 11.0572 44.7635 11.5455C46.8141 12.0337 47.8051 13.3683 47.6496 15.4696C47.5628 16.6088 47.2735 17.73 47.0456 18.8548C46.0474 23.7047 45.0492 28.5547 44.0329 33.401C43.4181 36.3233 42.1703 37.3504 39.1938 37.3938C37.3963 37.4191 35.6025 37.401 33.805 37.3974C33.6893 37.3938 33.5844 37.3576 33.3312 37.3142Z" fill="white"/>
<path d="M206.765 10.9451C208.899 11.2091 211.033 11.4731 213.166 11.748C213.448 11.7841 213.727 11.8746 213.995 11.9686C215.221 12.4062 215.72 13.1259 215.604 14.4315C215.532 15.2525 215.358 16.0627 215.199 16.8728C214.132 22.4063 213.061 27.9362 211.976 33.4661C211.81 34.3087 211.604 35.1478 211.376 35.9796C210.403 39.5312 208.334 42.2763 205.242 44.269C203.329 45.5023 201.268 46.4246 199.13 47.1805C196.627 48.0665 194.139 49.0033 191.484 49.3541C189.644 49.5964 187.821 49.5132 186.081 48.7899C184.038 47.9436 182.58 46.5403 182.146 44.2907C181.828 42.656 182.627 41.5927 184.266 41.2998C186.385 40.92 188.497 40.5041 190.613 40.1063C190.967 40.0412 191.318 39.9652 191.673 39.9218C192.53 39.8169 192.808 40.0484 192.805 40.8911C192.801 41.2853 192.729 41.6759 192.7 42.0701C192.616 43.2166 192.823 44.2944 193.553 45.213C194.414 46.2908 195.673 46.5403 196.797 45.7519C197.401 45.3287 197.966 44.7681 198.36 44.1497C199.861 41.7735 200.613 39.1225 200.946 36.3485C200.982 36.0375 200.92 35.7011 200.837 35.3937C200.66 34.7536 200.316 34.5004 199.644 34.5764C199.224 34.6234 198.794 34.75 198.418 34.9416C197.748 35.2816 197.112 35.6903 196.468 36.0809C194.714 37.1406 192.837 37.6107 190.797 37.2455C187.441 36.6487 185.242 34.3015 184.841 30.9235C184.439 27.5456 185.22 24.4135 186.971 21.5455C189.98 16.6124 194.454 13.6033 199.926 11.9975C202.15 11.3465 204.432 11.0572 206.765 10.9451ZM194.515 29.9651C194.486 32.5438 195.756 33.8096 197.911 33.7735C199.987 33.7373 201.911 32.3991 202.57 30.3883C203.105 28.7572 203.589 27.0935 203.922 25.4117C204.508 22.4244 205.032 19.4189 205.441 16.4026C205.767 14.0084 203.994 12.4966 201.629 12.974C200.016 13.2995 198.859 14.2616 197.958 15.5816C197.3 16.5473 196.942 17.6395 196.703 18.7643C196.172 21.2887 195.665 23.8204 195.166 26.3557C194.906 27.6866 194.685 29.032 194.515 29.9651Z" fill="white"/>
<path d="M137.813 37.3034C137.864 36.9345 137.893 36.5873 137.961 36.2473C139.028 30.9706 140.099 25.6975 141.166 20.4244C141.238 20.0736 141.3 19.7191 141.361 19.3647C141.748 17.1224 140.283 15.4804 138.005 15.6323C136.772 15.7155 135.737 16.2616 134.862 17.1224C133.73 18.2363 132.996 19.5998 132.638 21.1188C132.012 23.7698 131.473 26.4461 130.923 29.1152C130.569 30.8368 130.283 32.5728 129.925 34.2943C129.495 36.3413 128.551 37.2455 126.475 37.3359C124.186 37.4372 121.885 37.3576 119.502 37.3576C119.531 37.0104 119.531 36.6994 119.589 36.3992C120.851 30.1749 122.149 23.9579 123.368 17.7263C123.755 15.748 124.746 14.3556 126.616 13.6431C128.526 12.9162 130.457 12.2507 132.388 11.5744C132.688 11.4695 133.021 11.4189 133.339 11.4044C133.835 11.3791 134.196 11.6069 134.229 12.1314C134.258 12.6268 134.193 13.1296 134.189 13.6287C134.175 14.7064 134.681 15.2164 135.752 15.2345C136.609 15.2489 137.343 14.8945 138.095 14.5328C139.871 13.6757 141.64 12.7896 143.466 12.059C145.433 11.2706 147.48 11.3176 149.481 11.9939C151.405 12.6449 152.334 14.1133 151.98 16.088C150.963 21.7734 149.907 27.4552 148.808 33.1261C148.634 34.0231 148.247 34.9091 147.817 35.7229C147.22 36.8549 146.226 37.4155 144.902 37.3974C142.71 37.3685 140.518 37.3902 138.327 37.3829C138.182 37.3829 138.045 37.3431 137.813 37.3034Z" fill="white"/>
<path d="M174.819 37.4697C173.857 37.3576 172.887 37.3033 171.944 37.1225C171.083 36.9561 170.497 36.5004 170.363 35.4878C170.175 34.0809 169.423 33.7482 168.146 34.3883C167.763 34.58 167.405 34.8259 167.043 35.061C165.112 36.3087 163.01 37.1153 160.714 37.2925C156.844 37.5963 153.69 35.7446 152.938 31.4009C152.475 28.7282 152.84 26.1495 153.99 23.7372C157.028 17.361 161.947 13.1946 168.895 11.6829C170.873 11.2525 172.96 11.2742 175 11.2127C176.754 11.1584 178.515 11.2669 180.273 11.3429C180.913 11.3718 181.564 11.455 182.19 11.6033C183.951 12.0228 184.627 13.0536 184.338 14.8511C184.161 15.9469 183.951 17.0391 183.73 18.1314C182.739 23.0862 181.748 28.0447 180.728 32.9959C180.562 33.7988 180.273 34.58 179.969 35.3431C179.564 36.3485 178.775 36.9634 177.716 37.1442C176.765 37.3033 175.795 37.3648 174.819 37.4697ZM174.077 16.5834C174.027 16.1169 174.012 15.8637 173.972 15.6178C173.578 13.1368 171.643 12.0228 169.3 12.9596C167.423 13.7118 166.265 15.1549 165.842 17.0825C164.884 21.4623 164.005 25.8566 163.141 30.2581C162.866 31.6505 163.596 32.8078 164.924 33.3395C165.929 33.7445 166.967 33.7337 167.987 33.4335C169.466 32.9959 170.5 32.0809 170.877 30.5293C171.737 26.9741 172.609 23.4226 173.448 19.8638C173.719 18.7137 173.897 17.5455 174.077 16.5834Z" fill="white"/>
<path d="M237.42 37.4661C236.516 37.3649 235.582 37.2998 234.667 37.1442C233.698 36.9815 233.072 36.4824 232.95 35.3829C232.812 34.1533 232.096 33.7988 230.964 34.2979C230.541 34.486 230.147 34.7464 229.756 34.9996C227.854 36.222 225.803 37.0357 223.543 37.2672C219.597 37.6723 216.052 35.8097 215.474 30.8585C215.188 28.4064 215.514 26.0302 216.562 23.8132C219.59 17.4226 224.49 13.2272 231.445 11.7046C233.456 11.2634 235.582 11.2778 237.658 11.2091C239.38 11.1512 241.109 11.2561 242.83 11.3393C243.543 11.3719 244.266 11.4695 244.953 11.654C246.555 12.0807 247.152 12.9415 246.946 14.5907C246.783 15.9072 246.523 17.2128 246.266 18.5148C245.34 23.1984 244.411 27.8783 243.449 32.5547C243.268 33.4299 242.971 34.2834 242.664 35.1225C242.237 36.3015 241.369 37.0032 240.121 37.1768C239.239 37.3034 238.346 37.3721 237.42 37.4661ZM236.718 16.5365C236.591 15.871 236.544 15.2525 236.353 14.6847C235.865 13.2381 234.458 12.4315 232.95 12.6739C231.93 12.8366 231.04 13.2742 230.277 13.9722C229.293 14.8728 228.66 15.9867 228.378 17.2815C227.459 21.5202 226.541 25.759 225.662 30.0086C225.286 31.8314 226.356 33.2418 228.233 33.5456C230.91 33.976 232.902 32.7536 233.59 30.1171C234.44 26.8548 235.199 23.5745 235.969 20.2906C236.266 19.032 236.479 17.7589 236.718 16.5365Z" fill="white"/>
<path d="M69.3713 11.2633C71.0314 11.2561 72.6697 11.3971 74.2574 11.936C77.5161 13.0391 79.2882 15.3465 79.8126 18.6919C80.2647 21.5708 79.6933 24.2869 78.3551 26.815C75.4799 32.2545 70.9337 35.5601 64.9734 36.92C61.9391 37.6107 58.8649 37.8024 55.7835 37.1659C55.118 37.0285 54.4526 36.8585 53.816 36.627C50.7816 35.5275 49.0818 33.3937 48.8359 30.1351C48.3259 23.3719 50.8721 18.1603 56.7383 14.6738C60.619 12.37 64.8794 11.3646 69.3713 11.2633ZM58.4381 31.0176C58.4381 31.1658 58.4381 31.3105 58.4381 31.4552C58.4309 33.7554 59.7293 35.1586 62.015 35.3214C64.6805 35.5131 66.7275 34.1713 67.4075 31.5673C68.12 28.8295 68.7167 26.0591 69.2556 23.2815C69.6498 21.2417 69.9391 19.1766 70.1453 17.1115C70.3153 15.4225 69.4834 14.3303 67.874 13.7697C65.2773 12.8655 61.7148 14.1892 61.0168 17.5202C60.6588 19.2381 60.2031 20.9379 59.8161 22.6486C59.194 25.4153 58.6081 28.1857 58.4381 31.0176Z" fill="white"/>
<path d="M80.1996 37.3359C80.3949 36.316 80.5649 35.372 80.7566 34.4317C81.8162 29.1912 82.8687 23.9506 83.9609 18.7173C84.1707 17.7046 84.5034 16.71 84.8398 15.7299C85.1544 14.8113 85.7693 14.0807 86.6662 13.701C88.3479 12.9885 90.0405 12.2977 91.7657 11.7082C92.4203 11.484 93.1834 11.4876 93.8887 11.5237C94.7241 11.5671 95.0858 12.0265 95.0966 12.8691C95.1039 13.408 95.0279 13.9469 95.0641 14.4822C95.1256 15.437 95.5596 15.6974 96.4167 15.2778C96.8977 15.0427 97.3353 14.7209 97.7802 14.4207C98.8797 13.6757 99.9574 12.8981 101.071 12.1747C101.516 11.8854 102.019 11.6576 102.522 11.484C103.426 11.1765 103.976 11.5273 104.138 12.4713C104.185 12.7534 104.196 13.0463 104.182 13.3321C104.102 15.2019 103.853 17.05 103.288 18.8403C103.118 19.3791 102.869 19.918 102.551 20.3846C102.055 21.1079 101.4 21.22 100.688 20.7137C100.225 20.3846 99.8381 19.947 99.433 19.5419C98.7314 18.8439 97.9574 18.2833 96.9375 18.1712C95.3028 17.9903 94.0297 18.88 93.6174 20.569C93.3462 21.683 93.187 22.8258 92.952 23.947C92.319 26.9669 91.6933 29.9868 91.017 32.9959C90.829 33.8277 90.5107 34.6415 90.1744 35.4299C89.7006 36.5438 88.7964 37.2672 87.6138 37.3106C85.187 37.401 82.7493 37.3359 80.1996 37.3359Z" fill="white"/>
<path d="M103.748 37.3178C103.979 36.1822 104.2 35.1008 104.424 34.0158C105.502 28.7427 106.594 23.4732 107.643 18.1965C107.997 16.4099 108.901 15.0572 110.543 14.3014C112.659 13.3285 114.815 12.4424 116.959 11.5346C117.216 11.4261 117.513 11.3683 117.795 11.3574C118.565 11.3249 119.046 11.7299 119.039 12.5039C119.035 13.1079 118.92 13.7155 118.8 14.3122C117.531 20.5691 116.254 26.8295 114.959 33.0791C114.822 33.7373 114.598 34.4028 114.29 34.9996C113.484 36.562 112.196 37.4119 110.395 37.4046C108.457 37.3974 106.514 37.4082 104.576 37.401C104.33 37.3974 104.084 37.3504 103.748 37.3178Z" fill="white"/>
<path d="M109.563 8.54361C109.715 7.82751 109.925 6.69911 110.196 5.5888C110.399 4.75335 110.916 4.0915 111.657 3.66835C112.305 3.29583 112.985 2.9414 113.694 2.71716C115.534 2.12765 117.39 1.58154 119.256 1.0752C120.898 0.630354 121.397 1.10413 121.115 2.78226C120.963 3.70089 120.761 4.6123 120.558 5.52008C120.348 6.44956 119.791 7.12948 118.949 7.56348C118.471 7.80942 117.987 8.05899 117.48 8.21812C115.636 8.79679 113.784 9.34652 111.929 9.88902C111.552 9.99752 111.155 10.0518 110.764 10.0879C109.777 10.1783 109.516 9.92517 109.563 8.54361Z" fill="white"/>
</svg>
