<svg width="203" height="87" viewBox="0 0 203 87" fill="none" xmlns="http://www.w3.org/2000/svg">
<path d="M46.6318 117.461L55.3555 83.7497C57.8193 74.2285 65.1058 66.7028 74.5425 63.9329L84.9097 60.8899C91.5325 58.9459 95.8922 52.6333 95.3648 45.7512V45.7512C95.1159 42.5024 95.9598 39.2635 97.7626 36.5493L107.818 21.4108C115.632 9.64548 127.347 1.01408 140.899 -2.96385L153.5 -6.66246" stroke="white" stroke-opacity="0.2"/>
<path d="M52.6062 123.674L61.3298 89.9627C63.7937 80.4415 71.0802 72.9158 80.5169 70.1459L90.8841 67.1029C97.5069 65.159 101.867 58.8463 101.339 51.9643V51.9643C101.09 48.7154 101.934 45.4765 103.737 42.7623L113.792 27.6238C121.606 15.8585 133.321 7.22709 146.873 3.24916L159.474 -0.449447" stroke="white" stroke-opacity="0.2"/>
<path d="M57.0994 132.028L65.823 98.3169C68.2868 88.7957 75.5734 81.2701 85.0101 78.5002L95.3772 75.4572C102 73.5132 106.36 67.2006 105.832 60.3185V60.3185C105.583 57.0696 106.427 53.8308 108.23 51.1165L118.285 35.9781C126.1 24.2127 137.814 15.5813 151.366 11.6034L163.967 7.9048" stroke="white" stroke-opacity="0.2"/>
<path d="M62.594 139.382L71.3176 105.671C73.7815 96.1497 81.068 88.6241 90.5047 85.8542L100.872 82.8112C107.495 80.8672 111.854 74.5546 111.327 67.6725V67.6725C111.078 64.4236 111.922 61.1848 113.725 58.4705L123.78 43.3321C131.594 31.5667 143.309 22.9353 156.861 18.9574L169.462 15.2588" stroke="white" stroke-opacity="0.2"/>
<path d="M67.0889 146.736L75.8125 113.025C78.2763 103.504 85.5629 95.9781 94.9996 93.2082L105.367 90.1652C111.99 88.2212 116.349 81.9086 115.822 75.0265V75.0265C115.573 71.7776 116.417 68.5388 118.22 65.8245L128.275 50.6861C136.089 38.9207 147.804 30.2893 161.356 26.3114L173.957 22.6128" stroke="white" stroke-opacity="0.2"/>
<path d="M70.583 155.09L79.3066 121.379C81.7705 111.858 89.057 104.332 98.4937 101.562L108.861 98.5192C115.484 96.5752 119.843 90.2626 119.316 83.3805V83.3805C119.067 80.1316 119.911 76.8928 121.714 74.1785L131.769 59.0401C139.583 47.2748 151.298 38.6434 164.85 34.6654L177.451 30.9668" stroke="white" stroke-opacity="0.2"/>
<path d="M41.6575 109.247L50.3811 75.5364C52.845 66.0152 60.1315 58.4896 69.5682 55.7197L79.9354 52.6767C86.5582 50.7327 90.9178 44.42 90.3905 37.538V37.538C90.1415 34.2891 90.9855 31.0502 92.7882 28.336L102.843 13.1975C110.658 1.43222 122.372 -7.19918 135.925 -11.1771L148.525 -14.8757" stroke="white" stroke-opacity="0.2"/>
<path d="M33.6575 103.247L42.3811 69.5364C44.845 60.0152 52.1315 52.4896 61.5682 49.7197L71.9354 46.6767C78.5582 44.7327 82.9178 38.42 82.3905 31.538V31.538C82.1415 28.2891 82.9855 25.0502 84.7882 22.336L94.8432 7.19754C102.658 -4.56778 114.372 -13.1992 127.925 -17.1771L140.525 -20.8757" stroke="white" stroke-opacity="0.2"/>
<path d="M26.6575 96.2473L35.3811 62.5364C37.845 53.0152 45.1315 45.4896 54.5682 42.7197L64.9354 39.6767C71.5582 37.7327 75.9178 31.42 75.3905 24.538V24.538C75.1415 21.2891 75.9855 18.0502 77.7882 15.336L87.8432 0.197535C95.6577 -11.5678 107.372 -20.1992 120.925 -24.1771L133.525 -27.8757" stroke="white" stroke-opacity="0.2"/>
<path d="M80.8044 0.107178C63.804 10.1072 72.0561 23.4507 64.804 29.6072C55.5561 35.9507 41.9782 31.6872 38.8048 21.1072C35.6314 10.5272 44.4183 -7.40794 51.5598 -9.54999C58.7013 -11.692 77.631 -10.4728 80.8044 0.107178Z" stroke="white" stroke-opacity="0.2"/>
<path d="M73.0069 0.286455C61.4629 7.07687 67.0665 16.1377 62.1419 20.3182C55.8623 24.6257 46.6423 21.7306 44.4874 14.5464C42.3326 7.36208 48.2992 -4.81662 53.1486 -6.27116C57.998 -7.72571 70.8521 -6.89782 73.0069 0.286455Z" stroke="white" stroke-opacity="0.2"/>
<path d="M64.5621 3.13021C59.4228 6.15326 61.9175 10.1871 59.7251 12.0482C56.9294 13.9659 52.8247 12.677 51.8654 9.47863C50.9061 6.28024 53.5624 0.858353 55.7213 0.2108C57.8802 -0.436753 63.6028 -0.0681823 64.5621 3.13021Z" stroke="white" stroke-opacity="0.2"/>
</svg>
