<svg width="29" height="24" viewBox="0 0 29 24" fill="none" xmlns="http://www.w3.org/2000/svg">
<path fill-rule="evenodd" clip-rule="evenodd" d="M8.98394 2.00012H19.9403C23.9329 2.00012 26.2111 3.92012 26.2111 7.33012V16.6701C26.2111 20.0601 23.9447 22.0001 19.952 22.0001H8.98394C4.97953 22.0001 2.72485 20.0601 2.72485 16.6701V7.33012C2.72485 3.92012 4.97953 2.00012 8.98394 2.00012ZM15.431 12.8301H18.766C19.3062 12.8201 19.7407 12.4501 19.7407 11.9901C19.7407 11.5301 19.3062 11.1601 18.766 11.1601H15.431V8.34009C15.431 7.88009 14.9965 7.51009 14.4563 7.51009C13.9161 7.51009 13.4816 7.88009 13.4816 8.34009V11.1601H10.1583C9.89996 11.1601 9.65336 11.2501 9.46547 11.4001C9.28932 11.5601 9.18363 11.7691 9.18363 11.9901C9.18363 12.4501 9.61813 12.8201 10.1583 12.8301H13.4816V15.6601C13.4816 16.1201 13.9161 16.4901 14.4563 16.4901C14.9965 16.4901 15.431 16.1201 15.431 15.6601V12.8301Z" fill="#E80110"/>
</svg>
