<svg width="42" height="42" viewBox="0 0 42 42" fill="none" xmlns="http://www.w3.org/2000/svg">
<rect x="0.5" y="0.5" width="41" height="41" rx="20.5" fill="white"/>
<path d="M28.29 18.39L30.19 20.29C30.2837 20.3829 30.3581 20.4935 30.4088 20.6154C30.4596 20.7372 30.4858 20.8679 30.4858 21C30.4858 21.132 30.4596 21.2627 30.4088 21.3845C30.3581 21.5064 30.2837 21.617 30.19 21.71L28.29 23.61C28.1052 23.7962 28.0011 24.0476 28 24.31V27C28 27.2652 27.8946 27.5195 27.7071 27.7071C27.5195 27.8946 27.2652 28 27 28H24.31C24.0476 28.0011 23.7962 28.1052 23.61 28.29L21.71 30.19C21.617 30.2837 21.5064 30.3581 21.3845 30.4088C21.2627 30.4596 21.132 30.4858 21 30.4858C20.8679 30.4858 20.7372 30.4596 20.6154 30.4088C20.4935 30.3581 20.3829 30.2837 20.29 30.19L18.39 28.29C18.2037 28.1052 17.9523 28.0011 17.69 28H15C14.7347 28 14.4804 27.8946 14.2929 27.7071C14.1053 27.5195 14 27.2652 14 27V24.31C13.9989 24.0476 13.8947 23.7962 13.71 23.61L11.81 21.71C11.7162 21.617 11.6418 21.5064 11.5911 21.3845C11.5403 21.2627 11.5142 21.132 11.5142 21C11.5142 20.8679 11.5403 20.7372 11.5911 20.6154C11.6418 20.4935 11.7162 20.3829 11.81 20.29L13.71 18.39C13.8947 18.2037 13.9989 17.9523 14 17.69V15C14 14.7347 14.1053 14.4804 14.2929 14.2929C14.4804 14.1053 14.7347 14 15 14H17.69C17.9523 13.9989 18.2037 13.8947 18.39 13.71L20.29 11.81C20.3829 11.7162 20.4935 11.6418 20.6154 11.5911C20.7372 11.5403 20.8679 11.5142 21 11.5142C21.132 11.5142 21.2627 11.5403 21.3845 11.5911C21.5064 11.6418 21.617 11.7162 21.71 11.81L23.61 13.71C23.7962 13.8947 24.0476 13.9989 24.31 14H27C27.2652 14 27.5195 14.1053 27.7071 14.2929C27.8946 14.4804 28 14.7347 28 15V17.69C28.0011 17.9523 28.1052 18.2037 28.29 18.39ZM21 18C20.4066 18 19.8266 18.1759 19.3332 18.5055C18.8399 18.8352 18.4554 19.3037 18.2283 19.8519C18.0013 20.4001 17.9418 21.0033 18.0576 21.5852C18.1734 22.1672 18.4591 22.7017 18.8786 23.1213C19.2982 23.5408 19.8327 23.8266 20.4147 23.9423C20.9966 24.0581 21.5998 23.9987 22.148 23.7716C22.6962 23.5445 23.1647 23.16 23.4944 22.6667C23.824 22.1733 24 21.5933 24 21C24 20.2043 23.6839 19.4412 23.1213 18.8786C22.5587 18.316 21.7956 18 21 18Z" stroke="#E80110" stroke-width="1.5" stroke-linecap="round" stroke-linejoin="round"/>
<rect x="0.5" y="0.5" width="41" height="41" rx="20.5" stroke="#969AA8"/>
</svg>
