<?xml version="1.0" standalone="no"?>
<!DOCTYPE svg PUBLIC "-//W3C//DTD SVG 20010904//EN"
 "http://www.w3.org/TR/2001/REC-SVG-20010904/DTD/svg10.dtd">
<svg version="1.0" xmlns="http://www.w3.org/2000/svg"
 width="220.000000pt" height="27.000000pt" viewBox="0 0 220.000000 27.000000"
 preserveAspectRatio="xMidYMid meet">

<g transform="translate(0.000000,27.000000) scale(0.100000,-0.100000)"
fill="#000000" stroke="none">
<path d="M47 216 c-42 -32 -40 -133 3 -156 38 -20 90 -6 90 24 0 6 -5 5 -12
-2 -17 -17 -54 -15 -72 4 -23 23 -21 87 5 109 17 16 25 17 50 8 30 -12 37 -5
17 15 -16 16 -59 15 -81 -2z"/>
<path d="M215 220 c-8 -13 -55 -151 -55 -162 0 -19 20 -6 26 17 5 21 12 25 45
25 33 0 40 -4 45 -25 3 -14 12 -25 20 -25 10 0 5 23 -19 90 -29 83 -46 105
-62 80z m33 -67 c11 -32 10 -33 -20 -33 -23 0 -29 3 -24 16 3 9 9 27 12 41 8
28 17 21 32 -24z"/>
<path d="M340 140 l0 -90 45 0 c25 0 45 5 45 10 0 6 -16 10 -35 10 l-35 0 0
80 c0 47 -4 80 -10 80 -6 0 -10 -37 -10 -90z"/>
<path d="M469 211 c-20 -16 -24 -29 -24 -71 0 -42 4 -55 24 -71 54 -44 120
-12 128 63 5 40 2 50 -20 72 -31 31 -75 34 -108 7z m91 -16 c16 -20 16 -90 0
-110 -16 -19 -64 -19 -80 0 -20 24 -16 96 6 112 24 17 59 17 74 -2z"/>
<path d="M640 140 c0 -53 4 -90 10 -90 6 0 10 18 10 40 0 29 4 40 15 40 13 0
47 -43 59 -75 2 -5 7 -6 12 -2 5 5 -1 26 -13 47 -18 33 -19 41 -7 51 20 17 17
57 -5 69 -11 5 -33 10 -50 10 l-31 0 0 -90z m75 40 c0 -20 -6 -26 -27 -28 -25
-3 -28 0 -28 28 0 28 3 31 28 28 21 -2 27 -8 27 -28z"/>
<path d="M790 140 c0 -53 4 -90 10 -90 6 0 10 37 10 90 0 53 -4 90 -10 90 -6
0 -10 -37 -10 -90z"/>
<path d="M892 223 c-7 -3 -19 -18 -27 -33 -43 -82 22 -169 96 -130 30 17 22
29 -11 17 -40 -15 -64 0 -68 43 -7 72 27 107 77 80 13 -7 21 -7 21 -1 0 22
-55 37 -88 24z"/>
<path d="M1095 205 c-33 -32 -35 -105 -5 -135 30 -30 100 -25 100 8 0 12 -3
13 -12 4 -33 -33 -88 4 -88 58 0 54 55 91 88 58 9 -9 12 -8 12 4 0 35 -62 37
-95 3z"/>
<path d="M1246 209 c-22 -17 -26 -28 -26 -70 0 -82 62 -116 124 -68 22 17 26
28 26 70 0 82 -62 116 -124 68z m88 -21 c32 -46 8 -118 -39 -118 -28 0 -55 34
-55 70 0 36 27 70 55 70 13 0 31 -10 39 -22z"/>
<path d="M1410 160 c0 -80 19 -110 68 -110 47 0 62 27 62 108 0 41 -4 72 -10
72 -6 0 -10 -29 -10 -68 0 -73 -10 -92 -47 -92 -31 0 -43 28 -43 99 0 34 -4
61 -10 61 -6 0 -10 -30 -10 -70z"/>
<path d="M1590 141 c0 -54 4 -91 10 -91 6 0 10 33 10 78 l0 77 43 -74 c59
-104 67 -103 67 8 0 54 -4 91 -10 91 -6 0 -10 -29 -10 -67 l0 -68 -38 65 c-21
36 -46 66 -55 68 -15 3 -17 -7 -17 -87z"/>
<path d="M1750 220 c0 -5 14 -10 30 -10 l30 0 0 -80 c0 -47 4 -80 10 -80 6 0
10 33 10 80 0 79 0 80 25 80 14 0 25 5 25 10 0 6 -28 10 -65 10 -37 0 -65 -4
-65 -10z"/>
<path d="M1910 140 l0 -90 50 0 c28 0 50 5 50 10 0 6 -18 10 -40 10 -38 0 -40
2 -40 30 0 28 3 30 35 30 19 0 35 5 35 10 0 6 -16 10 -35 10 -32 0 -35 2 -35
30 0 28 2 30 40 30 22 0 40 5 40 10 0 6 -22 10 -50 10 l-50 0 0 -90z"/>
<path d="M2050 140 c0 -53 4 -90 10 -90 6 0 10 18 10 40 0 34 3 40 21 40 15 0
25 -11 36 -40 9 -22 22 -40 29 -40 10 0 9 11 -6 45 -11 26 -15 47 -10 50 14 9
12 59 -2 73 -7 7 -29 12 -50 12 l-38 0 0 -90z m75 40 c0 -20 -6 -26 -27 -28
-25 -3 -28 0 -28 28 0 28 3 31 28 28 21 -2 27 -8 27 -28z"/>
</g>
</svg>
