<svg width="11" height="14" viewBox="0 0 11 14" fill="none" xmlns="http://www.w3.org/2000/svg">
<g id="Profile">
<g id="Profile_2">
<mask id="path-1-inside-1_6_1639" fill="white">
<path fill-rule="evenodd" clip-rule="evenodd" d="M9.19603 3.52737C9.19603 5.48539 7.62611 7.0554 5.66671 7.0554C3.70797 7.0554 2.13738 5.48539 2.13738 3.52737C2.13738 1.56935 3.70797 0 5.66671 0C7.62611 0 9.19603 1.56935 9.19603 3.52737ZM5.66671 13.3333C2.77496 13.3333 0.333374 12.8633 0.333374 11.05C0.333374 9.23596 2.7903 8.78262 5.66671 8.78262C8.55912 8.78262 11 9.25263 11 11.066C11 12.88 8.54312 13.3333 5.66671 13.3333Z"/>
</mask>
<path d="M5.66671 8.0554C8.17817 8.0554 10.196 6.03789 10.196 3.52737H8.19603C8.19603 4.93288 7.07405 6.0554 5.66671 6.0554V8.0554ZM1.13738 3.52737C1.13738 6.03802 3.15603 8.0554 5.66671 8.0554V6.0554C4.25991 6.0554 3.13738 4.93276 3.13738 3.52737H1.13738ZM5.66671 -1C3.15628 -1 1.13738 1.01647 1.13738 3.52737H3.13738C3.13738 2.12222 4.25967 1 5.66671 1V-1ZM10.196 3.52737C10.196 1.0166 8.17793 -1 5.66671 -1V1C7.07429 1 8.19603 2.1221 8.19603 3.52737H10.196ZM-0.666626 11.05C-0.666626 11.7529 -0.420643 12.3635 0.0228252 12.8474C0.445646 13.3088 1.00542 13.6102 1.58181 13.8143C2.72127 14.2178 4.19652 14.3333 5.66671 14.3333V12.3333C4.24514 12.3333 3.05373 12.2138 2.24945 11.929C1.85398 11.789 1.62263 11.6329 1.49728 11.4961C1.39259 11.3819 1.33337 11.2537 1.33337 11.05H-0.666626ZM5.66671 7.78262C4.20599 7.78262 2.73184 7.89377 1.59167 8.29196C1.01507 8.49333 0.453217 8.7918 0.0281165 9.25137C-0.41828 9.73395 -0.666626 10.345 -0.666626 11.05H1.33337C1.33337 10.848 1.39214 10.7221 1.49631 10.6095C1.62177 10.4738 1.85392 10.3188 2.2511 10.1801C3.0585 9.89814 4.25102 9.78262 5.66671 9.78262V7.78262ZM12 11.066C12 10.3631 11.7542 9.75254 11.3107 9.26862C10.888 8.80723 10.3282 8.5058 9.75188 8.30167C8.61248 7.89813 7.1372 7.78262 5.66671 7.78262V9.78262C7.08863 9.78262 8.28002 9.90211 9.08418 10.1869C9.47959 10.327 9.71087 10.483 9.83616 10.6198C9.94081 10.734 10 10.8622 10 11.066H12ZM5.66671 14.3333C7.12743 14.3333 8.60158 14.2222 9.74174 13.824C10.3183 13.6226 10.8802 13.3242 11.3053 12.8646C11.7517 12.382 12 11.771 12 11.066H10C10 11.268 9.94127 11.3939 9.83711 11.5065C9.71165 11.6421 9.4795 11.7971 9.08231 11.9358C8.27491 12.2178 7.0824 12.3333 5.66671 12.3333V14.3333Z" fill="white" mask="url(#path-1-inside-1_6_1639)"/>
</g>
</g>
</svg>
