<svg width="26" height="26" viewBox="0 0 26 26" fill="none" xmlns="http://www.w3.org/2000/svg">
<g id="Layer_1" clip-path="url(#clip0_1_6144)">
<path id="Vector" d="M25.9997 13.9822C25.8818 14.6605 25.7813 15.3423 25.6415 16.0172C25.4785 16.8052 25.2728 16.9555 24.4547 16.9566C16.8188 16.9566 9.18289 16.9566 1.54698 16.9566C0.730002 16.9566 0.523157 16.8041 0.359068 16.0172C0.219246 15.3435 0.117557 14.6617 -0.00146484 13.9834C-0.00146484 13.3282 -0.00146484 12.6741 -0.00146484 12.0189C0.0297352 11.8907 0.0759574 11.7636 0.0909796 11.633C0.701113 6.29893 4.25214 2.03262 9.37934 0.531556C10.2368 0.2808 11.1369 0.173333 12.0175 0C12.6727 0 13.3267 0 13.9819 0C14.0917 0.0300444 14.1992 0.0751111 14.3101 0.0878222C19.658 0.660978 23.9555 4.2224 25.4693 9.38196C25.72 10.2382 25.8264 11.1384 25.9997 12.0178V13.9822ZM1.81854 15.4301H24.1797C25.1816 11.6884 23.8099 6.61787 19.6488 3.64231C15.7187 0.832 10.4112 0.797333 6.45231 3.57298C2.61702 6.2608 0.654891 11.2609 1.81854 15.4301Z" fill="white"/>
<path id="Vector_2" d="M14.56 26C14.3335 25.6857 14.0192 25.4026 13.8967 25.0525C13.5627 24.0945 13.3085 23.1088 12.9145 22.1243C12.7781 22.8454 12.6394 23.5664 12.5054 24.2886C12.4557 24.5533 12.4153 24.819 12.369 25.0848C12.2546 25.7296 11.9357 26.0046 11.4192 25.9041C10.9685 25.8174 10.7651 25.4199 10.8761 24.8063C11.1141 23.4832 11.3602 22.1613 11.6029 20.8382C11.7 20.3089 11.8086 19.782 11.8929 19.2516C11.9738 18.7408 12.1945 18.378 12.7596 18.3456C13.3281 18.3133 13.5812 18.6669 13.7233 19.1534C14.0665 20.3297 14.4121 21.5038 14.8697 22.6882C15.1828 21.6043 15.496 20.5204 15.8091 19.4365C15.8565 19.2701 15.8854 19.0967 15.9501 18.9373C16.1096 18.5421 16.395 18.3237 16.8387 18.3422C17.2871 18.3606 17.5817 18.6114 17.6638 19.0193C18.0682 21.0346 18.4565 23.0545 18.8217 25.0779C18.8991 25.5054 18.6714 25.8359 18.2092 25.903C17.7343 25.9723 17.4281 25.7527 17.3345 25.2766C17.1265 24.2216 16.9254 23.1666 16.6862 21.9278C16.4967 22.5518 16.3522 23.0141 16.217 23.4786C16.0657 23.9951 15.9628 24.529 15.7629 25.0247C15.6208 25.376 15.3527 25.6765 15.1412 26H14.5634H14.56Z" fill="white"/>
<path id="Vector_3" d="M4.50661 26C4.09061 25.7724 3.95887 25.4176 3.9635 24.9508C3.97967 23.0857 3.96696 21.2207 3.97158 19.3568C3.9739 18.5479 4.18767 18.3399 5.0035 18.3341C5.52234 18.3306 6.04234 18.3191 6.56003 18.3422C8.12696 18.4092 9.06065 19.8456 8.53141 21.3247C8.47132 21.4934 8.48172 21.7742 8.58456 21.9024C9.84181 23.4613 9.24092 25.3864 7.31461 25.9203C7.26145 25.9353 7.21407 25.9735 7.16438 26H4.50661ZM5.48536 24.4805C5.98803 24.4805 6.43061 24.5094 6.86741 24.4724C7.36776 24.4296 7.69016 24.1234 7.72367 23.6196C7.75603 23.1389 7.48101 22.7737 7.01879 22.7044C6.5219 22.6304 6.00652 22.6871 5.48536 22.6871V24.4805ZM5.49345 21.1432C5.89905 21.1432 6.27461 21.2288 6.57505 21.1167C6.81656 21.0265 7.09852 20.7099 7.12163 20.4707C7.13896 20.2835 6.82234 19.9519 6.59238 19.8802C6.26652 19.7774 5.88518 19.8536 5.49345 19.8536V21.1432Z" fill="white"/>
<path id="Vector_4" d="M21.0311 25.9999C20.6625 25.7607 20.5285 25.4349 20.5331 24.9854C20.5539 23.0822 20.54 21.179 20.5435 19.2758C20.5435 18.6437 20.8 18.3317 21.2923 18.3398C21.7649 18.3478 22.0272 18.6483 22.0307 19.2434C22.0388 21.1847 22.0272 23.1261 22.0388 25.0674C22.0411 25.503 21.8493 25.7896 21.4933 25.9976H21.0311V25.9999Z" fill="white"/>
<path id="Vector_5" d="M16.2391 10.5445C16.0808 10.8241 16.0045 11.0518 15.8543 11.2066C15.1205 11.9647 14.374 12.7112 13.6183 13.4473C13.2104 13.8436 12.7689 13.8586 12.4592 13.505C12.1137 13.1098 12.2039 12.732 12.5482 12.3865C13.2924 11.6388 14.0181 10.8692 14.7992 10.162C14.998 9.98174 15.399 9.90432 15.6694 9.95979C15.882 10.0037 16.038 10.3249 16.2391 10.5457V10.5445Z" fill="white"/>
<path id="Vector_6" d="M8.83882 4.72974C8.97864 4.8684 9.29989 5.066 9.43971 5.35258C9.71011 5.90494 10.3757 6.36254 10.0186 7.10556C9.78638 7.58858 9.09998 7.61285 8.77295 7.14716C8.47713 6.72654 8.20789 6.27818 7.98833 5.81365C7.74682 5.30289 8.10158 4.75285 8.83882 4.72974Z" fill="white"/>
<path id="Vector_7" d="M13.7465 5.03932C13.7465 5.30741 13.7777 5.57896 13.7384 5.84127C13.6795 6.24803 13.4333 6.49069 12.9988 6.48838C12.5632 6.48723 12.2986 6.23994 12.2651 5.83549C12.2211 5.30394 12.22 4.76314 12.2651 4.23158C12.2997 3.82714 12.5747 3.57754 13.0023 3.57985C13.4299 3.58216 13.6795 3.83061 13.7384 4.23736C13.7754 4.49967 13.7453 4.77123 13.7453 5.03932H13.7465Z" fill="white"/>
<path id="Vector_8" d="M5.50271 7.76074C6.17524 8.20448 6.80387 8.5627 7.34929 9.0203C7.47755 9.12776 7.41747 9.63274 7.27533 9.83727C7.154 10.0106 6.73569 10.147 6.54155 10.0684C5.99729 9.84883 5.46689 9.55532 5.00467 9.19594C4.82787 9.05843 4.74467 8.62625 4.81862 8.39052C4.89142 8.15941 5.21844 8.00803 5.50387 7.7619L5.50271 7.76074Z" fill="white"/>
<path id="Vector_9" d="M5.03244 13.7453C4.76435 13.7453 4.4928 13.7776 4.23048 13.7383C3.82488 13.6771 3.57644 13.4217 3.57875 12.9953C3.58106 12.5689 3.83297 12.2985 4.23973 12.265C4.7528 12.2222 5.2728 12.228 5.78702 12.2592C6.22497 12.2858 6.49306 12.5446 6.4896 13.0046C6.48613 13.4645 6.21573 13.7025 5.77777 13.7453C5.53164 13.7695 5.28088 13.7499 5.03244 13.7499C5.03244 13.7487 5.03244 13.7464 5.03244 13.7453Z" fill="white"/>
<path id="Vector_10" d="M20.9318 13.75C20.7007 13.75 20.4684 13.7673 20.2385 13.7465C19.7959 13.7072 19.5209 13.4727 19.5139 13.0093C19.507 12.5447 19.7762 12.2859 20.2177 12.2582C20.7157 12.227 21.2207 12.2247 21.7187 12.2582C22.1601 12.2882 22.4294 12.5586 22.4178 13.0174C22.4063 13.4761 22.1243 13.7118 21.6817 13.7465C21.4333 13.7662 21.1814 13.75 20.9306 13.75H20.9318Z" fill="white"/>
<path id="Vector_11" d="M16.7256 7.47303C16.1605 7.49499 15.7295 7.01659 15.919 6.5613C16.1524 6.00316 16.4586 5.4589 16.8272 4.98165C16.959 4.81179 17.4351 4.72628 17.628 4.83143C17.8499 4.95276 18.1122 5.40228 18.0406 5.58139C17.7944 6.18921 17.42 6.7485 17.0664 7.30894C16.9994 7.41525 16.8007 7.43952 16.7256 7.47303Z" fill="white"/>
<path id="Vector_12" d="M21.2692 8.84117C21.1305 8.981 20.9317 9.29993 20.6452 9.44091C20.094 9.71246 19.6352 10.3723 18.8922 10.0141C18.4415 9.79682 18.3884 9.10811 18.8136 8.80535C19.262 8.48526 19.7461 8.201 20.2488 7.97797C20.7434 7.75842 21.2495 8.12126 21.2692 8.84233V8.84117Z" fill="white"/>
</g>
<defs>
<clipPath id="clip0_1_6144">
<rect width="26" height="26" fill="white"/>
</clipPath>
</defs>
</svg>
