<svg width="90" height="90" viewBox="0 0 90 90" fill="none" xmlns="http://www.w3.org/2000/svg">
<g clip-path="url(#clip0_1_3560)">
<rect width="90" height="90" rx="45" fill="#CEE4D4"/>
<path d="M51.5829 60.2111C49.6622 60.1529 43.9636 58.3343 42.8308 57.4952L51.5829 60.2111Z" fill="#FFE7D0"/>
<path d="M52.3732 69.1741C55.9167 74.1373 67.3742 75.6105 69.3291 76.32C72.5354 77.535 73.0807 80.82 73.1282 82.6094C73.2652 87.7076 73.8632 96.4535 72.0743 101.075" fill="#FFE7D0"/>
<path d="M52.3732 69.1741C50.2234 65.2988 51.5829 60.2111 51.5829 60.2111C51.5829 60.2111 55.7481 60.4096 57.4185 59.5546C60.63 58.1702 64.4449 53.1064 64.4054 45.8561C64.3143 39.3269 62.9418 32.88 60.3666 26.8846C58.0429 20.8467 43.6238 15.2032 32.7614 25.7491C32.7614 25.7491 26.9047 31.1279 30.306 40.067" fill="#FFE7D0"/>
<path d="M13.4286 101.075C11.8821 96.0961 12.4907 83.0038 12.7146 81.1561C12.9386 79.3085 13.8027 75.5602 18.379 74.4194C20.4023 73.9085 33.0723 71.8502 35.6436 68.2793" fill="#FFE7D0"/>
<path d="M36.2654 54.7793C36.2654 54.7793 32.0105 52.352 30.3139 47.2908C28.6172 42.2296 30.306 40.067 30.306 40.067C31.668 38.0261 37.0874 37.5258 37.0874 43.6829" fill="#FFE7D0"/>
<path d="M36.2654 54.7793C36.5894 61.2117 36.6711 64.1632 35.6436 68.2793L36.2654 54.7793Z" fill="#FFE7D0"/>
<path d="M52.3732 69.1741C55.9167 74.1373 67.3742 75.6105 69.3291 76.32C72.5354 77.535 73.0807 80.82 73.1282 82.6094C73.2652 87.7076 73.8632 96.4535 72.0743 101.075H13.4286C11.8821 96.0961 12.4907 83.0038 12.7146 81.1561C12.9386 79.3085 13.8027 75.5602 18.379 74.4194C20.4023 73.9085 33.0723 71.8502 35.6436 68.2793C36.6711 64.1632 36.5894 61.2117 36.2654 54.7793C36.2654 54.7793 32.0105 52.352 30.3139 47.2908C28.6172 42.2296 30.306 40.067 30.306 40.067C26.9047 31.1279 32.7614 25.7491 32.7614 25.7491C43.6238 15.2032 58.0429 20.8467 60.3666 26.8846C62.9418 32.88 64.3143 39.3269 64.4054 45.8561C64.4449 53.1064 60.63 58.1702 57.4185 59.5546C55.7481 60.4096 51.5829 60.2111 51.5829 60.2111C51.5829 60.2111 50.2234 65.2988 52.3732 69.1741Z" fill="#FFE7D0"/>
<path d="M51.5829 60.2111C49.6622 60.1529 43.9636 58.3343 42.8308 57.4952M51.5829 60.2111C51.5829 60.2111 50.2234 65.2988 52.3732 69.1741C55.9167 74.1373 67.3742 75.6106 69.3291 76.32C72.5354 77.535 73.0807 80.82 73.1282 82.6094C73.2652 87.7076 73.8632 96.4535 72.0743 101.075H13.4286C11.8821 96.0961 12.4907 83.0038 12.7146 81.1561C12.9386 79.3085 13.8027 75.5603 18.379 74.4194C20.4023 73.9085 33.0723 71.8502 35.6436 68.2793C36.6711 64.1632 36.5894 61.2117 36.2654 54.7793C36.2654 54.7793 32.0105 52.352 30.3139 47.2908C28.6172 42.2296 30.306 40.067 30.306 40.067M51.5829 60.2111C51.5829 60.2111 55.7481 60.4096 57.4185 59.5546C60.63 58.1702 64.4449 53.1064 64.4054 45.8561C64.3143 39.3269 62.9418 32.88 60.3666 26.8846C58.0429 20.8467 43.6238 15.2032 32.7614 25.7491C32.7614 25.7491 26.9047 31.1279 30.306 40.067M30.306 40.067C31.668 38.0261 37.0874 37.5258 37.0874 43.6829" stroke="#373743" stroke-width="0.5" stroke-linecap="round" stroke-linejoin="round"/>
<path opacity="0.4" d="M51.5223 60.0073C51.2672 61.8088 50.872 64.4558 51.5223 66.5735C49.1116 65.9991 42.3065 61.2726 42.3065 57.4343C45.284 58.6028 48.3717 59.4648 51.5223 60.0073Z" fill="#373743"/>
<path d="M33.4112 41.5588C32.3838 41.8394 31.683 43.3985 32.4997 45.0794" stroke="#373743" stroke-width="0.5" stroke-linecap="round"/>
<path d="M12.4854 78.7739C12.2604 80.6215 11.6489 93.7139 13.2027 98.693H72.1262C73.9235 94.0712 73.3226 85.3254 73.185 80.2271C73.1373 78.4377 72.5894 75.1527 69.3679 73.9377C67.5695 73.2881 58.3676 72.1324 53.6029 68.2942L44.2058 72.7942L34.2793 67.2354C29.9975 69.8966 19.9292 71.5967 18.1765 72.0371C13.5786 73.178 12.7104 76.9263 12.4854 78.7739Z" fill="#E76158" stroke="#373743" stroke-width="0.5" stroke-linecap="round" stroke-linejoin="round"/>
<path d="M40.2748 72.4871C35.7748 71.2509 34.3904 69.2153 33.3157 67.6483C33.6836 66.0177 33.8823 63.7941 35.8676 62.8677C32.4264 64.7206 35.8648 65.9886 42.141 67.2883L40.2748 72.4871Z" fill="white"/>
<path d="M48.8168 71.8306C53.3168 70.5945 53.076 69.8718 53.6954 69.0565C53.6954 67.1109 53.5524 64.5142 51.5936 63.7439C54.4868 65.2368 52.8192 66.5497 46.6727 67.2883L48.8168 71.8306Z" fill="white"/>
<path d="M40.2748 72.4871C35.7748 71.2509 34.3904 69.2153 33.3157 67.6483C33.6836 66.0177 33.8823 63.7941 35.8676 62.8677C32.4264 64.7206 35.8648 65.9886 42.141 67.2883L40.2748 72.4871Z" stroke="#373743" stroke-width="0.5" stroke-linecap="round" stroke-linejoin="round"/>
<path d="M48.8168 71.8306C53.3168 70.5945 53.076 69.8718 53.6954 69.0565C53.6954 67.1109 53.5524 64.5142 51.5936 63.7439C54.4868 65.2368 52.8192 66.5497 46.6727 67.2883L48.8168 71.8306Z" stroke="#373743" stroke-width="0.5" stroke-linecap="round" stroke-linejoin="round"/>
<path d="M36.6617 65.5148L36.2647 62.7354C35.5984 62.7858 34.4117 63.5975 34.4117 64.3236C34.4117 65.0496 36.0398 65.4643 36.6617 65.5148Z" fill="#373743"/>
<path d="M50.6912 66.3089L51.2206 63.7942C51.8869 63.8446 52.9412 64.2593 52.9412 64.9854C52.9412 65.7114 51.3131 66.2585 50.6912 66.3089Z" fill="#373743"/>
<g opacity="0.2">
<path d="M46.1912 67.2354L48.4412 70.9201L46.3606 71.8068L45.1112 72.3124L46.1912 67.2354Z" fill="#373743"/>
<path d="M42.6177 67.2354L43.6765 72.2648L41.6329 71.3118L40.6667 70.7824L42.6177 67.2354Z" fill="#373743"/>
</g>
<path d="M61.4827 30.5449C58.8523 32.0508 48.774 33.0676 45.7313 32.7209C44.3073 32.5579 41.554 32.2914 39.8892 32.1051C39.8381 32.1072 39.7888 32.1247 39.7476 32.1554C39.7064 32.1861 39.6753 32.2285 39.6582 32.2772C39.6411 32.3259 39.6388 32.3787 39.6517 32.4287C39.6646 32.4787 39.692 32.5237 39.7304 32.5579C46.8429 37.3005 37.6968 48.2578 37.2205 42.1802C36.2933 37.1814 31.9674 38.9926 31.4552 39.3056C30.8381 39.6956 30.3211 40.2275 29.9467 40.858C29.4831 41.6058 29.2398 45.6032 31.6166 49.6964C31.644 49.7483 31.6532 49.8081 31.6425 49.866C31.6318 49.9238 31.6018 49.9763 31.5576 50.0146L30.7022 50.6925C30.6748 50.7125 30.6438 50.7268 30.6109 50.7346C30.5781 50.7425 30.544 50.7436 30.5107 50.7381C30.4773 50.7326 30.4454 50.7205 30.4168 50.7024C30.3881 50.6844 30.3632 50.6608 30.3436 50.633C18.8874 32.9744 27.1114 29.3832 28.3408 28.9641C28.3839 28.9471 28.4217 28.9187 28.4501 28.8818C28.4785 28.8449 28.4965 28.8009 28.5021 28.7545C28.9862 23.8101 32.052 18.1102 38.9569 17.0209C42.6656 16.3974 46.3998 17.0649 48.6255 17.9524H48.6434C51.3557 18.8372 53.42 17.2771 55.8429 14.9252C55.8762 14.893 55.9157 14.868 55.959 14.8517C56.0022 14.8355 56.0483 14.8284 56.0943 14.8308C56.1404 14.8332 56.1855 14.8451 56.2268 14.8658C56.2681 14.8865 56.3048 14.9155 56.3347 14.9511C57.3822 16.2111 57.3284 17.1063 56.9622 17.8799C56.9464 17.924 56.9429 17.9715 56.9518 18.0174C56.9607 18.0634 56.9818 18.106 57.0128 18.1408C57.0438 18.1756 57.0836 18.2012 57.1279 18.215C57.1722 18.2287 57.2194 18.2301 57.2644 18.2189C59.4644 17.4064 64.2846 18.3715 66.1236 17.0649C66.1586 17.0433 66.1982 17.0305 66.2392 17.0277C66.2801 17.0248 66.3212 17.0319 66.3588 17.0484C66.3965 17.0648 66.4297 17.0902 66.4556 17.1224C66.4815 17.1545 66.4994 17.1925 66.5077 17.2331C67.2787 23.259 65.1119 28.5268 61.4827 30.5449Z" fill="#373743"/>
<path d="M53.0186 41.0639C53.0186 41.202 53.1305 41.3139 53.2686 41.3139C53.4066 41.3139 53.5186 41.202 53.5186 41.0639H53.0186ZM57.0943 40.6271C57.0943 40.7652 57.2062 40.8771 57.3443 40.8771C57.4823 40.8771 57.5943 40.7652 57.5943 40.6271H57.0943ZM45.1868 41.0879C45.3185 41.1294 45.4589 41.0564 45.5005 40.9247C45.542 40.793 45.469 40.6526 45.3373 40.6111L45.1868 41.0879ZM31.0775 38.7768L31.1849 39.0027L31.1929 38.9986L31.0775 38.7768ZM28.724 42.9705C28.7492 43.1062 28.8797 43.1958 29.0155 43.1706C29.1512 43.1453 29.2408 43.0148 29.2156 42.8791L28.724 42.9705ZM53.0186 40.8495C53.0186 43.3038 51.3058 45.2292 49.2666 45.2292V45.7292C51.6479 45.7292 53.5186 43.509 53.5186 40.8495H53.0186ZM49.2666 45.2292C47.2274 45.2292 45.5147 43.3038 45.5147 40.8495H45.0147C45.0147 43.509 46.8854 45.7292 49.2666 45.7292V45.2292ZM45.5147 40.8495C45.5147 38.3952 47.2274 36.4698 49.2666 36.4698V35.9698C46.8854 35.9698 45.0147 38.1899 45.0147 40.8495H45.5147ZM49.2666 36.4698C51.3058 36.4698 53.0186 38.3952 53.0186 40.8495H53.5186C53.5186 38.1899 51.6479 35.9698 49.2666 35.9698V36.4698ZM65.0612 39.9548C65.0612 42.4091 63.3485 44.3345 61.3093 44.3345V44.8345C63.6905 44.8345 65.5612 42.6143 65.5612 39.9548H65.0612ZM61.3093 44.3345C59.2701 44.3345 57.5574 42.4091 57.5574 39.9548H57.0574C57.0574 42.6143 58.9281 44.8345 61.3093 44.8345V44.3345ZM57.5574 39.9548C57.5574 37.5005 59.2701 35.5751 61.3093 35.5751V35.0751C58.9281 35.0751 57.0574 37.2952 57.0574 39.9548H57.5574ZM61.3093 35.5751C63.3485 35.5751 65.0612 37.5005 65.0612 39.9548H65.5612C65.5612 37.2952 63.6905 35.0751 61.3093 35.0751V35.5751ZM53.5186 41.0639C53.5186 40.7085 53.7085 40.4281 54.0395 40.2176C54.3761 40.0035 54.8411 39.8765 55.3216 39.8473C55.8023 39.8181 56.2688 39.8887 56.6044 40.0406C56.9417 40.1932 57.0943 40.3978 57.0943 40.6271H57.5943C57.5943 40.1192 57.2373 39.7782 56.8105 39.585C56.3819 39.391 55.8294 39.3155 55.2913 39.3482C54.7528 39.3809 54.1989 39.5237 53.7712 39.7957C53.3381 40.0711 53.0186 40.4929 53.0186 41.0639H53.5186ZM45.2621 40.8495C45.3373 40.6111 45.3372 40.611 45.3371 40.611C45.337 40.611 45.3369 40.6109 45.3367 40.6109C45.3363 40.6108 45.3358 40.6106 45.335 40.6104C45.3336 40.6099 45.3315 40.6092 45.3287 40.6084C45.3231 40.6066 45.3149 40.604 45.304 40.6006C45.2823 40.5939 45.2501 40.5839 45.208 40.5709C45.124 40.545 45.0005 40.5072 44.8424 40.4597C44.5263 40.3647 44.0719 40.2307 43.5177 40.0747C42.4095 39.7627 40.9011 39.3621 39.3016 39.0082C37.7035 38.6546 36.008 38.3462 34.5275 38.2206C33.7874 38.1579 33.0952 38.1403 32.4928 38.1873C31.894 38.2339 31.3644 38.3457 30.9621 38.5551L31.1929 38.9986C31.5091 38.8341 31.9617 38.7302 32.5316 38.6857C33.0979 38.6416 33.7609 38.6574 34.4853 38.7188C35.9339 38.8417 37.6049 39.1449 39.1936 39.4964C40.781 39.8476 42.2798 40.2456 43.3822 40.556C43.9332 40.7111 44.3848 40.8442 44.6985 40.9385C44.8553 40.9856 44.9777 41.0231 45.0607 41.0487C45.1022 41.0615 45.1338 41.0713 45.1551 41.0779C45.1657 41.0813 45.1737 41.0838 45.179 41.0854C45.1817 41.0863 45.1837 41.0869 45.185 41.0873C45.1856 41.0875 45.1861 41.0877 45.1864 41.0878C45.1866 41.0878 45.1867 41.0879 45.1868 41.0879C45.1868 41.0879 45.1868 41.0879 45.2621 40.8495ZM30.9701 38.5511C30.1621 38.9353 29.5038 39.5774 29.0976 40.3769L29.5433 40.6034C29.8997 39.9021 30.4769 39.3393 31.1848 39.0026L30.9701 38.5511ZM29.0976 40.3769C28.6913 41.1763 28.56 42.0883 28.724 42.9705L29.2156 42.8791C29.0717 42.1049 29.187 41.3047 29.5433 40.6034L29.0976 40.3769Z" fill="#373743"/>
<path d="M55.6501 42.2685C55.5947 42.142 55.4473 42.0844 55.3208 42.1398C55.1944 42.1952 55.1367 42.3426 55.1922 42.4691L55.6501 42.2685ZM55.9619 49.1738C55.8359 49.2301 55.7794 49.378 55.8358 49.5041C55.8921 49.6301 56.04 49.6866 56.166 49.6302L55.9619 49.1738ZM43.5931 36.4768C43.5041 36.5824 43.5176 36.7401 43.6232 36.8291C43.7288 36.918 43.8865 36.9045 43.9755 36.799L43.5931 36.4768ZM49.5514 34.1496L49.5936 33.9032L49.5918 33.9029L49.5514 34.1496ZM50.3311 34.6169C50.4606 34.665 50.6045 34.5991 50.6525 34.4696C50.7006 34.3402 50.6346 34.1963 50.5052 34.1482L50.3311 34.6169ZM56.4275 34.7991C56.3256 34.8923 56.3187 35.0505 56.4119 35.1523C56.5051 35.2541 56.6633 35.2611 56.7651 35.1679L56.4275 34.7991ZM61.9287 33.7314L62.0338 33.5046L62.0336 33.5045L61.9287 33.7314ZM62.471 34.3466C62.5813 34.4297 62.738 34.4078 62.8212 34.2976C62.9043 34.1873 62.8824 34.0306 62.7721 33.9474L62.471 34.3466ZM55.4211 42.3688C55.1922 42.4691 55.1922 42.4691 55.1922 42.4691C55.1922 42.4692 55.1922 42.4692 55.1922 42.4693C55.1923 42.4695 55.1924 42.4697 55.1925 42.47C55.1928 42.4706 55.1932 42.4715 55.1937 42.4727C55.1948 42.4752 55.1964 42.4788 55.1985 42.4837C55.2028 42.4933 55.209 42.5077 55.2172 42.5265C55.2337 42.5641 55.2577 42.6194 55.2884 42.69C55.3498 42.8312 55.4374 43.0336 55.5426 43.2783C55.753 43.7679 56.0335 44.4266 56.3138 45.1036C56.5944 45.781 56.874 46.4746 57.0831 47.0348C57.1878 47.3152 57.2738 47.5593 57.3332 47.75C57.363 47.8455 57.3852 47.9247 57.3998 47.9868C57.4071 48.0178 57.412 48.0427 57.415 48.0619C57.4165 48.0714 57.4174 48.0787 57.4179 48.0841C57.4184 48.0897 57.4184 48.092 57.4184 48.0917H57.9184C57.9184 48.0242 57.9038 47.946 57.8866 47.8726C57.8682 47.7944 57.8422 47.7027 57.8105 47.6011C57.7471 47.3978 57.6575 47.1439 57.5515 46.8599C57.3393 46.2915 57.0571 45.5914 56.7758 44.9122C56.4943 44.2326 56.2129 43.5717 56.002 43.0809C55.8965 42.8354 55.8086 42.6324 55.747 42.4907C55.7162 42.4199 55.692 42.3644 55.6755 42.3265C55.6673 42.3076 55.6609 42.2931 55.6566 42.2834C55.6545 42.2785 55.6529 42.2748 55.6518 42.2723C55.6513 42.271 55.6508 42.2701 55.6506 42.2694C55.6504 42.2691 55.6503 42.2689 55.6502 42.2687C55.6502 42.2686 55.6502 42.2686 55.6502 42.2685C55.6501 42.2685 55.6501 42.2685 55.4211 42.3688ZM57.4184 48.0917C57.4184 48.1345 57.3824 48.2282 57.2408 48.37C57.1094 48.5016 56.9265 48.6354 56.7327 48.7579C56.5407 48.8791 56.3475 48.9835 56.2013 49.0578C56.1285 49.0949 56.068 49.1242 56.0259 49.1441C56.0049 49.154 55.9886 49.1616 55.9776 49.1666C55.9722 49.1692 55.9681 49.171 55.9654 49.1722C55.9641 49.1728 55.9631 49.1733 55.9625 49.1735C55.9623 49.1737 55.9621 49.1737 55.962 49.1738C55.9619 49.1738 55.9619 49.1738 55.9619 49.1738C55.9619 49.1738 55.9619 49.1738 55.9619 49.1738C55.9619 49.1738 55.9619 49.1738 56.064 49.402C56.166 49.6302 56.1661 49.6302 56.1661 49.6302C56.1661 49.6302 56.1662 49.6302 56.1662 49.6302C56.1663 49.6301 56.1664 49.6301 56.1666 49.63C56.1669 49.6299 56.1673 49.6297 56.1677 49.6295C56.1687 49.629 56.17 49.6284 56.1718 49.6277C56.1752 49.6261 56.1801 49.6239 56.1864 49.621C56.1989 49.6152 56.217 49.6068 56.2399 49.596C56.2856 49.5744 56.3504 49.543 56.428 49.5035C56.5827 49.4248 56.7906 49.3128 56.9998 49.1806C57.207 49.0496 57.4253 48.8929 57.5946 48.7233C57.7539 48.5638 57.9184 48.3454 57.9184 48.0917H57.4184ZM43.9755 36.799C45.4444 35.0552 47.5676 34.078 49.511 34.3964L49.5918 33.9029C47.4305 33.5489 45.1434 34.6365 43.5931 36.4768L43.9755 36.799ZM49.5092 34.3961C49.7894 34.444 50.0646 34.5179 50.3311 34.6169L50.5052 34.1482C50.2095 34.0384 49.9044 33.9564 49.5936 33.9032L49.5092 34.3961ZM56.7651 35.1679C58.3198 33.7445 60.2664 33.2386 61.8238 33.9584L62.0336 33.5045C60.2345 32.673 58.0764 33.2895 56.4275 34.7991L56.7651 35.1679ZM61.8235 33.9582C62.0524 34.0643 62.2694 34.1945 62.471 34.3466L62.7721 33.9474C62.5423 33.7741 62.2948 33.6256 62.0338 33.5046L61.8235 33.9582Z" fill="#373743"/>
<path d="M50.8977 52.4414C51.6833 54.2786 54.4014 54.72 55.64 54.5116" stroke="#373743" stroke-width="0.5" stroke-miterlimit="10" stroke-linecap="round"/>
<path d="M49.4431 43.4753C50.2637 43.4753 50.929 42.5627 50.929 41.437C50.929 40.3114 50.2637 39.3988 49.4431 39.3988C48.6224 39.3988 47.9572 40.3114 47.9572 41.437C47.9572 42.5627 48.6224 43.4753 49.4431 43.4753Z" fill="#373743"/>
<path d="M50.4205 40.7012C50.0227 39.1871 48.0336 38.9515 46.5951 40.2115" stroke="#373743" stroke-width="0.5" stroke-linecap="round"/>
<path d="M61.067 42.7393C61.8876 42.7393 62.5529 41.8268 62.5529 40.7011C62.5529 39.5754 61.8876 38.6628 61.067 38.6628C60.2463 38.6628 59.5811 39.5754 59.5811 40.7011C59.5811 41.8268 60.2463 42.7393 61.067 42.7393Z" fill="#373743"/>
<path d="M62.0444 39.9652C61.6466 38.4511 59.6575 38.2155 58.219 39.4755" stroke="#373743" stroke-width="0.5" stroke-linecap="round"/>
</g>
<defs>
<clipPath id="clip0_1_3560">
<rect width="90" height="90" rx="45" fill="white"/>
</clipPath>
</defs>
</svg>
