<svg width="24" height="25" viewBox="0 0 24 25" fill="none" xmlns="http://www.w3.org/2000/svg">
<path d="M15 13.6C14.6712 13.5311 14.3359 13.4976 14 13.5H8C6.67392 13.5 5.40215 14.0268 4.46447 14.9645C3.52678 15.9021 3 17.1739 3 18.5V19.5C3 19.5 5 21.5 11 21.5C12.0032 21.5051 13.0055 21.4417 14 21.31C14.35 21.31 14.69 21.21 15 21.14" stroke="#373743" stroke-width="1.5" stroke-linecap="round" stroke-linejoin="round"/>
<path d="M17 17.5H21M19 15.5V19.5M16 8.5C16 9.48891 15.7068 10.4556 15.1573 11.2779C14.6079 12.1001 13.827 12.741 12.9134 13.1194C11.9998 13.4978 10.9945 13.5969 10.0246 13.4039C9.05465 13.211 8.16373 12.7348 7.46447 12.0355C6.76521 11.3363 6.289 10.4454 6.09608 9.47545C5.90315 8.50555 6.00217 7.50021 6.3806 6.58658C6.75904 5.67295 7.39991 4.89206 8.22215 4.34265C9.0444 3.79324 10.0111 3.5 11 3.5C12.3261 3.5 13.5979 4.02678 14.5355 4.96447C15.4732 5.90215 16 7.17392 16 8.5Z" stroke="#373743" stroke-width="1.5" stroke-linecap="round" stroke-linejoin="round"/>
</svg>
