<svg width="120" height="120" viewBox="0 0 120 120" fill="none" xmlns="http://www.w3.org/2000/svg">
<g clip-path="url(#clip0_1_4170)">
<rect width="120" height="120" rx="60" fill="white"/>
<path d="M68.7771 80.2815C66.2162 80.2039 58.6181 77.7792 57.1076 76.6603L68.7771 80.2815Z" fill="#FFE7D0"/>
<path d="M69.8309 92.2321C74.5556 98.8498 89.8322 100.814 92.4387 101.76C96.7138 103.38 97.4409 107.76 97.5041 110.146C97.6868 116.944 98.4842 128.605 96.099 134.767" fill="#FFE7D0"/>
<path d="M69.8309 92.2321C66.9645 87.0651 68.7771 80.2815 68.7771 80.2815C68.7771 80.2815 74.3308 80.5462 76.5579 79.4062C80.8399 77.5603 85.9264 70.8086 85.8737 61.1415C85.7523 52.4359 83.9223 43.84 80.4887 35.8462C77.3904 27.7956 58.1649 20.2709 43.6818 34.3321C43.6818 34.3321 35.8729 41.5039 40.4079 53.4227" fill="#FFE7D0"/>
<path d="M17.9047 134.767C15.8427 128.128 16.6542 110.672 16.9528 108.208C17.2513 105.745 18.4035 100.747 24.5052 99.2259C27.203 98.5447 44.0963 95.8003 47.5247 91.0392" fill="#FFE7D0"/>
<path d="M48.3538 73.0392C48.3538 73.0392 42.6806 69.8027 40.4184 63.0545C38.1562 56.3062 40.4079 53.4227 40.4079 53.4227C42.224 50.7015 49.4497 50.0345 49.4497 58.2439" fill="#FFE7D0"/>
<path d="M48.3538 73.0392C48.7858 81.6156 48.8947 85.5509 47.5247 91.0392L48.3538 73.0392Z" fill="#FFE7D0"/>
<path d="M69.8309 92.2321C74.5556 98.8498 89.8322 100.814 92.4387 101.76C96.7138 103.38 97.4409 107.76 97.5041 110.146C97.6868 116.944 98.4842 128.605 96.099 134.767H17.9047C15.8427 128.128 16.6542 110.672 16.9528 108.208C17.2513 105.745 18.4035 100.747 24.5052 99.2259C27.203 98.5447 44.0963 95.8003 47.5247 91.0392C48.8947 85.5509 48.7858 81.6156 48.3538 73.0392C48.3538 73.0392 42.6806 69.8027 40.4184 63.0545C38.1562 56.3062 40.4079 53.4227 40.4079 53.4227C35.8729 41.5039 43.6818 34.3321 43.6818 34.3321C58.1649 20.2709 77.3904 27.7956 80.4887 35.8462C83.9223 43.84 85.7523 52.4359 85.8737 61.1415C85.9264 70.8086 80.8399 77.5603 76.5579 79.4062C74.3308 80.5462 68.7771 80.2815 68.7771 80.2815C68.7771 80.2815 66.9645 87.0651 69.8309 92.2321Z" fill="#FFE7D0"/>
<path d="M68.7771 80.2815C66.2162 80.2039 58.6181 77.7792 57.1076 76.6603M68.7771 80.2815C68.7771 80.2815 66.9645 87.0651 69.8309 92.2321C74.5556 98.8498 89.8322 100.814 92.4387 101.76C96.7138 103.38 97.4409 107.76 97.5041 110.146C97.6868 116.944 98.4842 128.605 96.099 134.767H17.9047C15.8427 128.128 16.6542 110.672 16.9528 108.208C17.2513 105.745 18.4035 100.747 24.5052 99.2259C27.203 98.5447 44.0963 95.8003 47.5247 91.0392C48.8947 85.5509 48.7858 81.6156 48.3538 73.0392C48.3538 73.0392 42.6806 69.8027 40.4184 63.0545C38.1562 56.3062 40.4079 53.4227 40.4079 53.4227M68.7771 80.2815C68.7771 80.2815 74.3308 80.5462 76.5579 79.4062C80.8399 77.5603 85.9264 70.8086 85.8737 61.1415C85.7523 52.4359 83.9223 43.84 80.4887 35.8462C77.3904 27.7956 58.1649 20.2709 43.6818 34.3321C43.6818 34.3321 35.8729 41.5039 40.4079 53.4227M40.4079 53.4227C42.224 50.7015 49.4497 50.0345 49.4497 58.2439" stroke="#373743" stroke-width="0.5" stroke-linecap="round" stroke-linejoin="round"/>
<path opacity="0.4" d="M68.6963 80.0098C68.3561 82.4118 67.8292 85.9412 68.6963 88.7648C65.4821 87.9989 56.4086 81.6969 56.4086 76.5792C60.3785 78.1371 64.4955 79.2865 68.6963 80.0098Z" fill="#373743"/>
<path d="M44.5482 55.4117C43.1782 55.7859 42.2438 57.8647 43.3327 60.1059" stroke="#373743" stroke-width="0.5" stroke-linecap="round"/>
<path d="M16.6473 105.032C16.3473 107.495 15.532 124.952 17.6038 131.591H96.1684C98.5648 125.428 97.7637 113.767 97.5801 106.969C97.5166 104.584 96.786 100.204 92.4907 98.5836C90.0928 97.7175 77.8236 96.1765 71.4706 91.0589L58.9412 97.0589L45.7059 89.6471C39.9968 93.1954 26.5725 95.4622 24.2356 96.0495C18.105 97.5706 16.9473 102.568 16.6473 105.032Z" fill="#E76158" stroke="#373743" stroke-width="0.5" stroke-linecap="round" stroke-linejoin="round"/>
<path d="M53.6998 96.6495C47.6998 95.0013 45.854 92.2872 44.421 90.1977C44.9116 88.0236 45.1765 85.0589 47.8236 83.8236C43.2354 86.2942 47.8198 87.9848 56.1881 89.7177L53.6998 96.6495Z" fill="white"/>
<path d="M65.0893 95.7742C71.0893 94.126 70.7681 93.1625 71.594 92.0754C71.594 89.4813 71.4034 86.0189 68.7916 84.9919C72.6493 86.9825 70.4257 88.733 62.2304 89.7177L65.0893 95.7742Z" fill="white"/>
<path d="M53.6998 96.6495C47.6998 95.0013 45.854 92.2872 44.421 90.1977C44.9116 88.0236 45.1765 85.0589 47.8236 83.8236C43.2354 86.2942 47.8198 87.9848 56.1881 89.7177L53.6998 96.6495Z" stroke="#373743" stroke-width="0.5" stroke-linecap="round" stroke-linejoin="round"/>
<path d="M65.0893 95.7742C71.0893 94.126 70.7681 93.1625 71.594 92.0754C71.594 89.4813 71.4034 86.0189 68.7916 84.9919C72.6493 86.9825 70.4257 88.733 62.2304 89.7177L65.0893 95.7742Z" stroke="#373743" stroke-width="0.5" stroke-linecap="round" stroke-linejoin="round"/>
<path d="M48.8824 87.353L48.353 83.6471C47.4646 83.7143 45.8824 84.7967 45.8824 85.7647C45.8824 86.7328 48.0532 87.2858 48.8824 87.353Z" fill="#373743"/>
<path d="M67.5883 88.4118L68.2942 85.0589C69.1826 85.1261 70.5883 85.679 70.5883 86.6471C70.5883 87.6152 68.4175 88.3446 67.5883 88.4118Z" fill="#373743"/>
<g opacity="0.2">
<path d="M61.5883 89.6471L64.5883 94.5601L61.8142 95.7424L60.1483 96.4165L61.5883 89.6471Z" fill="#373743"/>
<path d="M56.8236 89.6471L58.2354 96.353L55.5106 95.0824L54.2224 94.3765L56.8236 89.6471Z" fill="#373743"/>
</g>
<path d="M81.977 40.7267C78.4699 42.7345 65.0321 44.0903 60.9752 43.628C59.0765 43.4107 55.4055 43.0553 53.1857 42.8069C53.1176 42.8097 53.0518 42.8331 52.9969 42.874C52.942 42.9149 52.9005 42.9715 52.8777 43.0364C52.8549 43.1014 52.8519 43.1718 52.8691 43.2385C52.8862 43.3052 52.9228 43.3651 52.974 43.4107C62.4573 49.7341 50.2626 64.3439 49.6274 56.2404C48.3912 49.5754 42.6234 51.9903 41.9404 52.4077C41.1176 52.9276 40.4283 53.6369 39.929 54.4776C39.3109 55.4745 38.9865 60.8045 42.1555 66.262C42.1922 66.3312 42.2044 66.411 42.1901 66.4881C42.1758 66.5652 42.1359 66.6352 42.077 66.6863L40.9364 67.5902C40.8999 67.6168 40.8585 67.6359 40.8147 67.6463C40.7709 67.6568 40.7254 67.6584 40.681 67.651C40.6366 67.6436 40.594 67.6274 40.5558 67.6034C40.5176 67.5793 40.4845 67.5479 40.4583 67.5108C25.1833 43.9661 36.1487 39.1778 37.7878 38.6189C37.8453 38.5963 37.8957 38.5584 37.9336 38.5092C37.9715 38.46 37.9954 38.4014 38.003 38.3395C38.6484 31.747 42.7361 24.1471 51.9427 22.6947C56.8875 21.8633 61.8665 22.7534 64.8341 23.9367H64.858C68.4744 25.1165 71.2268 23.0363 74.4573 19.9004C74.5018 19.8574 74.5544 19.8241 74.6121 19.8025C74.6697 19.7808 74.7311 19.7713 74.7926 19.7745C74.854 19.7778 74.9141 19.7937 74.9692 19.8212C75.0243 19.8488 75.0733 19.8875 75.113 19.9349C76.5097 21.6149 76.438 22.8086 75.9497 23.8401C75.9287 23.8988 75.9239 23.9622 75.9358 24.0234C75.9477 24.0847 75.9758 24.1415 76.0172 24.1879C76.0586 24.2343 76.1116 24.2685 76.1707 24.2868C76.2297 24.3051 76.2926 24.3069 76.3526 24.292C79.286 23.2087 85.7129 24.4955 88.1649 22.7534C88.2116 22.7246 88.2645 22.7075 88.319 22.7037C88.3736 22.6999 88.4283 22.7093 88.4785 22.7313C88.5288 22.7533 88.573 22.7871 88.6076 22.83C88.6421 22.8729 88.666 22.9235 88.6771 22.9776C89.705 31.0121 86.816 38.0359 81.977 40.7267Z" fill="#373743"/>
<path d="M70.7748 54.7519C70.7748 54.8899 70.8867 55.0019 71.0248 55.0019C71.1629 55.0019 71.2748 54.8899 71.2748 54.7519H70.7748ZM76.2091 54.1695C76.2091 54.3076 76.321 54.4195 76.4591 54.4195C76.5971 54.4195 76.7091 54.3076 76.7091 54.1695H76.2091ZM60.2742 54.7044C60.4059 54.7459 60.5463 54.6729 60.5879 54.5412C60.6294 54.4095 60.5564 54.2691 60.4247 54.2276L60.2742 54.7044ZM41.4367 51.7024L41.5441 51.9284L41.5521 51.9242L41.4367 51.7024ZM38.3807 57.2787C38.4059 57.4145 38.5364 57.5041 38.6721 57.4788C38.8079 57.4536 38.8975 57.3231 38.8722 57.1874L38.3807 57.2787ZM70.7748 54.466C70.7748 57.7726 68.4648 60.3889 65.6889 60.3889V60.8889C68.8068 60.8889 71.2748 57.9778 71.2748 54.466H70.7748ZM65.6889 60.3889C62.913 60.3889 60.603 57.7726 60.603 54.466H60.103C60.103 57.9778 62.5709 60.8889 65.6889 60.8889V60.3889ZM60.603 54.466C60.603 51.1594 62.913 48.543 65.6889 48.543V48.043C62.5709 48.043 60.103 50.9541 60.103 54.466H60.603ZM65.6889 48.543C68.4648 48.543 70.7748 51.1594 70.7748 54.466H71.2748C71.2748 50.9541 68.8068 48.043 65.6889 48.043V48.543ZM86.8317 53.273C86.8317 56.5796 84.5217 59.196 81.7458 59.196V59.696C84.8638 59.696 87.3317 56.7849 87.3317 53.273H86.8317ZM81.7458 59.196C78.9699 59.196 76.6599 56.5796 76.6599 53.273H76.1599C76.1599 56.7849 78.6278 59.696 81.7458 59.696V59.196ZM76.6599 53.273C76.6599 49.9665 78.9699 47.3501 81.7458 47.3501V46.8501C78.6278 46.8501 76.1599 49.7612 76.1599 53.273H76.6599ZM81.7458 47.3501C84.5217 47.3501 86.8317 49.9665 86.8317 53.273H87.3317C87.3317 49.7612 84.8638 46.8501 81.7458 46.8501V47.3501ZM71.2748 54.7519C71.2748 54.242 71.5497 53.8446 72.008 53.5531C72.472 53.2581 73.1068 53.086 73.7571 53.0466C74.4076 53.007 75.044 53.102 75.5069 53.3115C75.9716 53.5218 76.2091 53.8173 76.2091 54.1695H76.7091C76.7091 53.5387 76.2672 53.1068 75.713 52.856C75.157 52.6043 74.4348 52.5045 73.7268 52.5475C73.0185 52.5905 72.2947 52.7782 71.7397 53.1312C71.1792 53.4877 70.7748 54.0264 70.7748 54.7519H71.2748ZM60.3495 54.466C60.4247 54.2276 60.4246 54.2275 60.4245 54.2275C60.4243 54.2275 60.4241 54.2274 60.4239 54.2273C60.4234 54.2272 60.4227 54.2269 60.4218 54.2266C60.4199 54.226 60.4171 54.2252 60.4134 54.224C60.406 54.2217 60.395 54.2183 60.3806 54.2137C60.3517 54.2047 60.3088 54.1914 60.2529 54.1741C60.1409 54.1396 59.9765 54.0893 59.766 54.026C59.3449 53.8995 58.7395 53.721 58.001 53.5131C56.5245 53.0974 54.5149 52.5637 52.3842 52.0923C50.2549 51.6212 47.9984 51.2108 46.0297 51.0439C45.0454 50.9604 44.1275 50.9373 43.3302 50.9994C42.5367 51.0613 41.8434 51.209 41.3213 51.4807L41.5521 51.9242C41.988 51.6974 42.6044 51.5575 43.3691 51.4979C44.1301 51.4386 45.019 51.46 45.9875 51.5421C47.9243 51.7063 50.1564 52.1115 52.2762 52.5805C54.3948 53.0493 56.3947 53.5803 57.8655 53.9944C58.6008 54.2014 59.2034 54.379 59.622 54.5049C59.8313 54.5678 59.9946 54.6177 60.1055 54.6519C60.1609 54.669 60.2032 54.6822 60.2316 54.691C60.2458 54.6955 60.2565 54.6988 60.2637 54.7011C60.2672 54.7022 60.2699 54.703 60.2717 54.7036C60.2726 54.7039 60.2732 54.7041 60.2736 54.7042C60.2739 54.7043 60.274 54.7043 60.2741 54.7044C60.2742 54.7044 60.2742 54.7044 60.3495 54.466ZM41.3293 51.4767C40.2687 51.9811 39.4044 52.824 38.8711 53.8736L39.3168 54.1001C39.8003 53.1486 40.5835 52.385 41.544 51.9282L41.3293 51.4767ZM38.8711 53.8736C38.3378 54.9231 38.1654 56.1205 38.3807 57.2787L38.8722 57.1874C38.677 56.1371 38.8334 55.0515 39.3168 54.1001L38.8711 53.8736Z" fill="#373743"/>
<path d="M74.1238 56.3914C74.0684 56.265 73.921 56.2074 73.7945 56.2628C73.668 56.3182 73.6104 56.4656 73.6658 56.5921L74.1238 56.3914ZM74.6499 65.6412C74.5238 65.6975 74.4673 65.8454 74.5237 65.9714C74.5801 66.0975 74.7279 66.154 74.854 66.0976L74.6499 65.6412ZM58.1878 48.6895C58.0989 48.7951 58.1124 48.9528 58.218 49.0418C58.3236 49.1307 58.4813 49.1172 58.5702 49.0116L58.1878 48.6895ZM66.0685 45.5329L66.1107 45.2865L66.1089 45.2862L66.0685 45.5329ZM67.1372 46.0779C67.2666 46.1259 67.4105 46.06 67.4586 45.9305C67.5066 45.8011 67.4407 45.6572 67.3112 45.6091L67.1372 46.0779ZM75.2929 46.4603C75.191 46.5535 75.184 46.7117 75.2773 46.8135C75.3705 46.9153 75.5286 46.9223 75.6305 46.8291L75.2929 46.4603ZM82.5715 44.9753L82.6767 44.7485L82.6764 44.7483L82.5715 44.9753ZM83.3448 45.729C83.4551 45.8121 83.6118 45.7902 83.695 45.6799C83.7781 45.5697 83.7562 45.4129 83.6459 45.3298L83.3448 45.729ZM73.8948 56.4918C73.6658 56.5921 73.6658 56.5921 73.6658 56.5921C73.6659 56.5922 73.6659 56.5923 73.6659 56.5924C73.666 56.5926 73.6662 56.5929 73.6663 56.5933C73.6667 56.5941 73.6672 56.5953 73.668 56.5969C73.6694 56.6002 73.6715 56.6051 73.6743 56.6116C73.68 56.6245 73.6884 56.6437 73.6993 56.6688C73.7212 56.7189 73.7534 56.7927 73.7943 56.8868C73.8761 57.0751 73.993 57.3451 74.1333 57.6716C74.414 58.3246 74.788 59.2032 75.162 60.1062C75.5362 61.0097 75.9094 61.9357 76.1888 62.684C76.3286 63.0584 76.4438 63.3856 76.5238 63.6419C76.5638 63.7702 76.5941 63.878 76.6142 63.9635C76.6354 64.0538 76.6412 64.1033 76.6412 64.1223H77.1412C77.1412 64.0425 77.1236 63.946 77.1009 63.8492C77.0771 63.7477 77.043 63.6274 77.0011 63.493C76.9172 63.224 76.7983 62.8871 76.6572 62.5091C76.3748 61.7525 75.9989 60.8202 75.624 59.9149C75.2489 59.0091 74.8739 58.1283 74.5927 57.4741C74.4521 57.147 74.3349 56.8764 74.2529 56.6876C74.2118 56.5932 74.1796 56.5192 74.1576 56.4688C74.1466 56.4436 74.1382 56.4243 74.1325 56.4112C74.1296 56.4047 74.1275 56.3998 74.126 56.3965C74.1253 56.3948 74.1247 56.3936 74.1244 56.3927C74.1242 56.3923 74.124 56.392 74.1239 56.3918C74.1239 56.3917 74.1239 56.3916 74.1238 56.3915C74.1238 56.3915 74.1238 56.3914 73.8948 56.4918ZM76.6412 64.1223C76.6412 64.2145 76.5718 64.3602 76.38 64.5522C76.1984 64.7341 75.9487 64.9163 75.688 65.081C75.4293 65.2445 75.1691 65.3849 74.9728 65.4848C74.875 65.5346 74.7935 65.574 74.7369 65.6008C74.7085 65.6142 74.6864 65.6245 74.6716 65.6313C74.6642 65.6347 74.6586 65.6373 74.6549 65.6389C74.6531 65.6397 74.6517 65.6403 74.6509 65.6407C74.6505 65.6409 74.6502 65.641 74.65 65.6411C74.6499 65.6412 74.6499 65.6412 74.6498 65.6412C74.6498 65.6412 74.6498 65.6412 74.6498 65.6412C74.6499 65.6412 74.6499 65.6412 74.7519 65.8694C74.854 66.0976 74.854 66.0976 74.8541 66.0976C74.8541 66.0976 74.8542 66.0975 74.8542 66.0975C74.8543 66.0975 74.8545 66.0974 74.8546 66.0973C74.855 66.0972 74.8555 66.097 74.8561 66.0967C74.8573 66.0961 74.859 66.0954 74.8612 66.0944C74.8657 66.0923 74.8721 66.0894 74.8803 66.0856C74.8968 66.0781 74.9207 66.067 74.9508 66.0527C75.0112 66.0241 75.0969 65.9827 75.1995 65.9304C75.4044 65.8262 75.6791 65.6781 75.9551 65.5037C76.2293 65.3305 76.5144 65.1253 76.7339 64.9055C76.9433 64.6958 77.1412 64.4254 77.1412 64.1223H76.6412ZM58.5702 49.0116C60.5424 46.6705 63.4006 45.3492 66.0281 45.7796L66.1089 45.2862C63.2635 44.8201 60.2413 46.2518 58.1878 48.6895L58.5702 49.0116ZM66.0263 45.7793C66.405 45.8441 66.7769 45.944 67.1372 46.0779L67.3112 45.6091C66.9218 45.4645 66.5199 45.3565 66.1107 45.2865L66.0263 45.7793ZM75.6305 46.8291C77.7191 44.9169 80.3499 44.2239 82.4666 45.2022L82.6764 44.7483C80.3179 43.6584 77.4757 44.4618 75.2929 46.4603L75.6305 46.8291ZM82.4664 45.2021C82.7769 45.346 83.0713 45.5227 83.3448 45.729L83.6459 45.3298C83.3442 45.1022 83.0193 44.9073 82.6767 44.7485L82.4664 45.2021Z" fill="#373743"/>
<path d="M67.8635 69.9219C68.911 72.3714 72.5351 72.9601 74.1865 72.6822" stroke="#373743" stroke-width="0.5" stroke-miterlimit="10" stroke-linecap="round"/>
<path d="M65.9241 57.9672C67.0183 57.9672 67.9053 56.7504 67.9053 55.2495C67.9053 53.7486 67.0183 52.5319 65.9241 52.5319C64.8299 52.5319 63.9429 53.7486 63.9429 55.2495C63.9429 56.7504 64.8299 57.9672 65.9241 57.9672Z" fill="#373743"/>
<path d="M67.2274 54.2683C66.697 52.2495 64.0448 51.9353 62.1268 53.6153" stroke="#373743" stroke-width="0.5" stroke-linecap="round"/>
<path d="M81.4225 56.986C82.5167 56.986 83.4037 55.7692 83.4037 54.2683C83.4037 52.7674 82.5167 51.5507 81.4225 51.5507C80.3283 51.5507 79.4413 52.7674 79.4413 54.2683C79.4413 55.7692 80.3283 56.986 81.4225 56.986Z" fill="#373743"/>
<path d="M82.7258 53.2871C82.1954 51.2683 79.5432 50.9541 77.6252 52.6341" stroke="#373743" stroke-width="0.5" stroke-linecap="round"/>
</g>
<rect x="0.5" y="0.5" width="119" height="119" rx="59.5" stroke="#E80110"/>
<defs>
<clipPath id="clip0_1_4170">
<rect width="120" height="120" rx="60" fill="white"/>
</clipPath>
</defs>
</svg>
