<svg width="14" height="14" viewBox="0 0 14 14" fill="none" xmlns="http://www.w3.org/2000/svg">
<path d="M6.99869 0C3.13248 0 0 3.13306 0 7C0 10.8669 3.13248 14 6.99869 14C10.8649 14 13.9974 10.8669 13.9974 7C13.9974 3.13306 10.8649 0 6.99869 0ZM8.61008 9.88186L6.12103 8.07258C6.03355 8.00766 5.98275 7.90605 5.98275 7.79879V3.04839C5.98275 2.8621 6.13514 2.70968 6.3214 2.70968H7.67598C7.86224 2.70968 8.01463 2.8621 8.01463 3.04839V6.93508L9.80663 8.23911C9.95903 8.34919 9.99007 8.56089 9.88001 8.71331L9.08419 9.80847C8.97413 9.95806 8.76248 9.99194 8.61008 9.88186Z" fill="#4F5B79"/>
</svg>
